<svg id="Layer_3" data-name="Layer 3" xmlns="http://www.w3.org/2000/svg" xmlns:xlink="http://www.w3.org/1999/xlink" viewBox="0 0 139.37 157.95"><defs><style>.cls-1{fill:#fff;}.cls-2{fill:#504c4d;}.cls-3{fill:url(#linear-gradient);}.cls-4{fill:url(#linear-gradient-2);}.cls-5{fill:url(#linear-gradient-3);}.cls-6{fill:url(#linear-gradient-4);}</style><linearGradient id="linear-gradient" x1="71.41" y1="99.57" x2="96.67" y2="99.57" gradientUnits="userSpaceOnUse"><stop offset="0.13" stop-color="#4f2e12"/><stop offset="0.27" stop-color="#76481a"/><stop offset="0.47" stop-color="#ad6d25"/><stop offset="0.65" stop-color="#d4882d"/><stop offset="0.79" stop-color="#ed9832"/><stop offset="0.87" stop-color="#f69e34"/></linearGradient><linearGradient id="linear-gradient-2" x1="58.67" y1="94.09" x2="77.84" y2="94.09" gradientUnits="userSpaceOnUse"><stop offset="0.12" stop-color="#370517"/><stop offset="0.29" stop-color="#4f0c29"/><stop offset="0.87" stop-color="#9e2164"/></linearGradient><linearGradient id="linear-gradient-3" x1="71.41" y1="110.33" x2="96.67" y2="110.33" gradientUnits="userSpaceOnUse"><stop offset="0.12" stop-color="#143717"/><stop offset="0.31" stop-color="#0d5c30"/><stop offset="0.56" stop-color="#06844a"/><stop offset="0.76" stop-color="#029c5a"/><stop offset="0.87" stop-color="#00a560"/></linearGradient><linearGradient id="linear-gradient-4" x1="58.67" y1="115.81" x2="77.84" y2="115.81" gradientUnits="userSpaceOnUse"><stop offset="0.1" stop-color="#240323"/><stop offset="0.22" stop-color="#3c0d39"/><stop offset="0.44" stop-color="#641f5d"/><stop offset="0.61" stop-color="#7c2973"/><stop offset="0.71" stop-color="#852d7b"/></linearGradient></defs><path class="cls-1" d="M83.15,66.77H73.73v0l-.58,0c-.72,0-1.42,0-2.13.07l-.93.07-.85.09c-.85.09-1.69.21-2.53.35h0L78,47.31H92.63l2-1.87H67.19L59.28,59.53,51.37,73.61l.77.46.78.45c.78-.52,1.59-1,2.41-1.46l.39-.2c.73-.39,1.47-.77,2.23-1.11l.22-.1c.83-.37,1.68-.72,2.55-1h0c.92-.33,1.85-.62,2.8-.88.7-.19,1.41-.37,2.12-.52,1-.2,2-.37,3-.49l.3,0c1-.12,2-.19,3.08-.22.36,0,.7,0,1.06,0a36.32,36.32,0,0,1,5,.35c.54.08,1.08.16,1.62.26l.08,0c.52.09,1,.2,1.55.32l.12,0c.51.11,1,.24,1.51.39l.11,0c.51.15,1,.3,1.51.47h0a36.75,36.75,0,0,1,10.06,5.18l.07,0c.38.28.75.57,1.12.86a1.84,1.84,0,0,0,.22.17c.34.28.67.55,1,.84l.3.25c.31.27.61.55.91.83l.33.32c.29.27.56.55.84.83l.35.37.78.85.35.4c.24.29.49.57.72.86s.23.3.35.44.46.59.68.89c.1.14.2.29.31.43.22.31.45.63.66.94.06.1.12.2.19.3.44.67.86,1.36,1.26,2.06l.26.46c.15.26.28.54.42.81l.37.71.36.78.36.79c.11.26.21.52.32.77l.33.84.27.77c.11.29.2.58.3.87l.24.78c.09.3.17.6.26.9s.13.52.2.78.15.63.22.94.11.51.16.77l.18,1,.12.75c0,.35.09.7.13,1.06l.09.71c0,.39.06.79.09,1.18,0,.21,0,.41,0,.62,0,.59,0,1.18,0,1.78v.06c0,.6,0,1.2,0,1.79,0,.2,0,.4,0,.61,0,.39,0,.79-.09,1.18l-.09.72c0,.35-.08.7-.13,1l-.12.76-.18,1c0,.26-.11.52-.16.77s-.14.63-.22,1-.13.52-.2.77-.17.61-.26.91l-.24.78-.3.86c-.09.26-.18.52-.28.78s-.21.55-.32.83l-.32.78-.36.78-.36.78-.37.72-.42.81-.28.48c-.41.72-.83,1.42-1.29,2.11-.05.07-.09.15-.14.23-.22.32-.45.63-.68,1l-.29.42-.7.9-.33.42c-.24.3-.48.59-.73.87l-.35.4-.78.85-.35.37c-.27.28-.55.56-.84.83l-.33.32c-.3.28-.6.56-.91.83l-.3.26c-.32.28-.66.56-1,.83l-.23.17c-.36.3-.74.58-1.11.86l-.08,0a37,37,0,0,1-7.26,4.11l-8,4.58h3.68a38.48,38.48,0,1,0,0-77ZM67.33,49.67a.39.39,0,0,1,.16-.32.5.5,0,0,1,.25-.08h.54l.71,0c.69,0,1.38,0,2.07,0a4.7,4.7,0,0,1,.65,0h.12c.23,0,.47,0,.7.08l.35.06.18,0c.09,0,.11.14.11.18s-.12.16-.16.17l-.16.07-.35.1c-.24.07-.47.11-.71.16a15.23,15.23,0,0,1-2.86,0l-.71-.06-.36,0h-.13a.19.19,0,0,1-.1,0,.46.46,0,0,1-.28-.25.37.37,0,0,1,0-.17Zm-1.07,2a.43.43,0,0,1,.16-.32.45.45,0,0,1,.25-.08h.53l.72,0c.69,0,1.38,0,2.07,0a4.7,4.7,0,0,1,.65,0h.12c.23,0,.47,0,.7.08l.35.06.18,0c.09,0,.12.14.11.18s-.11.16-.15.17l-.17.07-.35.1c-.23.07-.47.11-.7.16a15.35,15.35,0,0,1-2.87,0l-.71-.06-.35,0-.24,0a.4.4,0,0,1-.27-.25.25.25,0,0,1,0-.16Zm-1,2a.4.4,0,0,1,.19-.31.58.58,0,0,1,.17-.06h.59l.72,0c.69,0,1.37,0,2.06,0a4.7,4.7,0,0,1,.65,0h.13c.23,0,.47,0,.7.08l.35.06.18,0c.09,0,.1.14.1.19s-.12.15-.16.16l-.17.07-.35.1c-.23.07-.47.11-.7.16a16.25,16.25,0,0,1-2.87,0l-.71-.06-.35,0H65.7a.72.72,0,0,1-.17,0,.43.43,0,0,1-.26-.28A.47.47,0,0,1,65.26,53.64Zm-1,2a.4.4,0,0,1,.19-.31.58.58,0,0,1,.17-.06h.59l.72,0c.69,0,1.37,0,2.06,0a4.7,4.7,0,0,1,.65,0h.13c.23,0,.47,0,.7.08l.35.06.18,0c.09,0,.1.14.1.19s-.12.15-.16.16l-.17.07-.35.1c-.23.07-.47.11-.7.16a16.25,16.25,0,0,1-2.87,0l-.71-.06-.35,0H64.7a.72.72,0,0,1-.17,0,.43.43,0,0,1-.26-.28A.47.47,0,0,1,64.26,55.64Zm-.93,2a.4.4,0,0,1,.12-.29.39.39,0,0,1,.16-.1l.12,0h.53l.72,0c.69,0,1.38,0,2.08,0a4.7,4.7,0,0,1,.65,0h.11c.23,0,.47,0,.7.08l.35.05.18,0c.07,0,.13.13.12.18s-.1.18-.14.18l-.17.06-.35.11-.7.16a15.34,15.34,0,0,1-2.87,0l-.71-.06-.35,0-.2,0a.43.43,0,0,1-.3-.21.41.41,0,0,1-.05-.18Zm-1.07,2a.43.43,0,0,1,.13-.3.42.42,0,0,1,.16-.09l.09,0h.56l.71,0c.69,0,1.39,0,2.08,0a4.7,4.7,0,0,1,.65,0h.11c.23,0,.47,0,.7.08l.35.05.18,0c.08,0,.13.13.12.18s-.1.18-.14.18l-.17.06-.35.11-.7.16a15.35,15.35,0,0,1-2.87,0l-.71-.06-.35,0-.2,0a.43.43,0,0,1-.35-.4Zm-.87,8.09a.21.21,0,0,1-.1.12.94.94,0,0,1-.18.12,2.13,2.13,0,0,1-.41.18,2.46,2.46,0,0,1-.88.12c-.27,0-.55,0-.83,0l-.41-.07a.71.71,0,0,1-.2,0l-.1,0a.48.48,0,0,1-.16,0,.43.43,0,0,1-.15-.15.42.42,0,0,1-.06-.21v-.06a.4.4,0,0,1,.21-.34c.17-.06.16,0,.2,0h.11l.42,0,1.33,0h.39a3,3,0,0,1,.41.08c.13.06.27,0,.39.2S61.39,67.7,61.39,67.77Zm3.29-1.88-.17.06-.35.11-.7.16a15.35,15.35,0,0,1-2.87,0l-.71-.06-.35,0-.2,0a.43.43,0,0,1-.3-.21.41.41,0,0,1-.05-.18v-.07a.43.43,0,0,1,.12-.3.42.42,0,0,1,.28-.11h.53l.72,0c.71,0,1.42,0,2.14,0a3.87,3.87,0,0,1,.59,0h.11l.7.07.35.06.18,0c.07,0,.13.13.12.18S64.72,65.89,64.68,65.89Zm1.28-2-.17.06-.35.11-.7.16a15.35,15.35,0,0,1-2.87,0l-.71-.06-.35,0-.2,0a.43.43,0,0,1-.35-.4v-.06a.43.43,0,0,1,.13-.3.42.42,0,0,1,.16-.09l.09,0h.56l.71,0c.72,0,1.43,0,2.15,0a3.74,3.74,0,0,1,.58,0h.11c.23,0,.47,0,.7.08l.35.05.18,0c.08,0,.13.13.12.18S66,63.89,66,63.89Zm-.22-1.67a15.35,15.35,0,0,1-2.87,0l-.71-.06-.35,0-.2,0a.43.43,0,0,1-.35-.4v-.06a.43.43,0,0,1,.13-.3.42.42,0,0,1,.16-.09l.09,0h.56l.71,0c.71,0,1.43,0,2.14,0a3.87,3.87,0,0,1,.59,0h.11c.23,0,.47,0,.7.08l.35.05.18,0c.08,0,.13.13.12.18s-.1.18-.14.18l-.17.06-.35.11Zm52.37,38.51a.22.22,0,0,1,0,.11.18.18,0,0,1-.09.1l-.08,0a2,2,0,0,1-.31.12c-.22.07-.44.12-.65.17a10.74,10.74,0,0,1-2.65.06l-.66-.06-.32,0-.16,0h-.09a.42.42,0,0,1-.27-.14.39.39,0,0,1-.1-.28v0a.47.47,0,0,1,0-.17.4.4,0,0,1,.24-.2.86.86,0,0,1,.15,0h.33l.66,0c.71,0,1.43,0,2.14,0,.12,0,.25,0,.37,0h.1a4.69,4.69,0,0,1,1.31.23A.14.14,0,0,1,118.11,100.73Zm-.16-2a.22.22,0,0,1,0,.11.18.18,0,0,1-.09.1l-.08,0a2,2,0,0,1-.31.12c-.22.07-.44.12-.65.17a10.74,10.74,0,0,1-2.65.06l-.65-.06-.33,0-.16,0h-.08a.46.46,0,0,1-.28-.14.44.44,0,0,1-.1-.28v0a.85.85,0,0,1,0-.17.39.39,0,0,1,.25-.2.72.72,0,0,1,.14,0h.33l.66,0c.71,0,1.42,0,2.13,0a3.38,3.38,0,0,1,.45,0h0a4.82,4.82,0,0,1,1.31.23A.13.13,0,0,1,118,98.73Zm-.31-2a.32.32,0,0,1,0,.1.24.24,0,0,1-.1.1l-.07,0a2.08,2.08,0,0,1-.32.12c-.21.07-.43.12-.65.17a10.74,10.74,0,0,1-2.65.06l-.65-.06-.33,0-.16,0h-.08a.42.42,0,0,1-.27-.14.4.4,0,0,1-.11-.28v0a.47.47,0,0,1,0-.17.39.39,0,0,1,.25-.2.72.72,0,0,1,.14,0H113l.66,0c.72,0,1.43,0,2.14,0a3.08,3.08,0,0,1,.43,0h.05a4.75,4.75,0,0,1,1.31.23A.14.14,0,0,1,117.64,96.74Zm-.5-2a.19.19,0,0,1,0,.1.24.24,0,0,1-.1.1L117,95a1.75,1.75,0,0,1-.32.12c-.21.07-.43.12-.65.17a10.72,10.72,0,0,1-2.65.06l-.65-.06-.32,0-.17,0h-.08a.42.42,0,0,1-.27-.14.39.39,0,0,1-.1-.28v0a.35.35,0,0,1,0-.17.37.37,0,0,1,.24-.2.77.77,0,0,1,.15,0h.32l.66,0c.72,0,1.43,0,2.14,0a3.09,3.09,0,0,1,.43,0h0a5.08,5.08,0,0,1,1.31.23A.14.14,0,0,1,117.14,94.74Zm-.84-2a.32.32,0,0,1,0,.1c0,.09-.13.12-.16.14l-.29.12c-.2.07-.41.12-.61.17a9.57,9.57,0,0,1-2.5.06l-.61-.06-.3,0-.16,0h-.07a.4.4,0,0,1-.27-.14.39.39,0,0,1-.1-.28.44.44,0,0,1,0-.17.38.38,0,0,1,.21-.22.37.37,0,0,1,.14,0H112l.61,0c.68,0,1.34,0,2,0a2.8,2.8,0,0,1,.41,0h0a4.59,4.59,0,0,1,1.23.23A.18.18,0,0,1,116.3,92.73Zm-.77-2a.32.32,0,0,1,0,.1c0,.09-.12.12-.15.14l-.3.12c-.2.07-.4.12-.6.17a10,10,0,0,1-2.5.07l-.61-.07-.31,0-.15,0h-.08a.44.44,0,0,1-.27-.14.44.44,0,0,1-.1-.28.7.7,0,0,1,0-.16.38.38,0,0,1,.2-.23.37.37,0,0,1,.14,0h.35l.62,0c.67,0,1.33,0,2,0a3.09,3.09,0,0,1,.43,0h0a4.59,4.59,0,0,1,1.23.23A.12.12,0,0,1,115.53,90.73ZM96.94,73.24c-.47,0-1,.06-1.44,0l-.18,0h-.09a.4.4,0,0,1-.29-.14.48.48,0,0,1-.13-.33V72.7a.49.49,0,0,1,.07-.19.44.44,0,0,1,.33-.21h.09a5.78,5.78,0,0,1,.72,0c.48,0,1,0,1.46.1h0a4.19,4.19,0,0,1,.46.16.88.88,0,0,1,.22.1.13.13,0,0,1,.07,0h0l0,0s0,0,0,0v0a.09.09,0,0,1,0,.08l0,0a1.85,1.85,0,0,1-.52.22A2,2,0,0,1,96.94,73.24ZM99.16,75l-.59-.09-.29,0h-.16s0,0,0,0l0,0h0v0h0v0h0s0,0,0-.06.16,0,.22-.05l.29,0,.59-.08,1.18-.23a8.24,8.24,0,0,1,1.24-.16,4.48,4.48,0,0,1,.62.06l.33.08.08,0h0l.09,0a.49.49,0,0,1,.22.44.44.44,0,0,1-.13.32.4.4,0,0,1-.15.1l0,0-.16.05-.32.08c-.22,0-.42,0-.62,0a5.8,5.8,0,0,1-1.24-.17Zm1,1.87h0l-.07,0a.14.14,0,0,1,0-.17h0a0,0,0,0,1,0,0h0a2.13,2.13,0,0,1,.25,0l.59-.09,1.18-.22a9.06,9.06,0,0,1,1.23-.19,3.34,3.34,0,0,1,1.26.19.4.4,0,0,1,.21.14.48.48,0,0,1,.11.3,1.42,1.42,0,0,1,0,.19.52.52,0,0,1-.23.26c-.17.07-.23.08-.35.12a5.08,5.08,0,0,1-.64.08,4.63,4.63,0,0,1-1.24-.13A17.14,17.14,0,0,0,100.18,76.9Zm3,2.11-.59-.08a1.55,1.55,0,0,1-.29,0s0,0,0,0h0a.17.17,0,0,1,0-.18l0,0h0a18.82,18.82,0,0,0,2.35-.37,5.83,5.83,0,0,1,1.25-.13,3.62,3.62,0,0,1,.63.08,1.5,1.5,0,0,1,.36.12.47.47,0,0,1,.24.44.44.44,0,0,1-.11.31.4.4,0,0,1-.21.14,3.82,3.82,0,0,1-1.27.2,10.71,10.71,0,0,1-1.22-.2Zm2.17,2.28-.59-.11-.3-.06-.15,0a.28.28,0,0,1-.24-.3s0-.24.16-.28a.25.25,0,0,1,.13,0h1c.39,0,.79,0,1.18,0h0l.24,0,.48,0,.46,0c.2,0,.4,0,.6,0l.31,0,.16,0c.06,0,.23.16.2.27a.3.3,0,0,1-.15.31l-.16.07a1.34,1.34,0,0,1-.3.12,4.44,4.44,0,0,1-.6.16,5.27,5.27,0,0,1-1.25,0C106.16,81.4,105.76,81.36,105.37,81.29Zm1.41,1.89-.3-.06-.15,0a.28.28,0,0,1-.24-.3s0-.25.16-.28a.25.25,0,0,1,.13,0h1c.39,0,.79,0,1.18,0h0l.25,0,.47,0,.47,0c.2,0,.4,0,.6,0l.31,0,.16,0c.06,0,.23.17.2.27a.3.3,0,0,1-.15.31l-.16.07a1.57,1.57,0,0,1-.3.12,4.87,4.87,0,0,1-.6.16,5.27,5.27,0,0,1-1.25,0c-.39,0-.79-.08-1.18-.15Zm1.47,2.09-.59-.11-.15,0h-.05l-.11,0a.35.35,0,0,1-.14-.2.24.24,0,0,1,0-.13.32.32,0,0,1,.08-.2.31.31,0,0,1,.19-.09h.08a17.32,17.32,0,0,0,2.39,0h0l.51,0a3.09,3.09,0,0,1,.68,0,4.34,4.34,0,0,1,.61.06l.15,0,.09,0a.24.24,0,0,1,.12.14c0,.08,0,.09,0,.12a.29.29,0,0,1-.06.17.72.72,0,0,1-.2.13,4.64,4.64,0,0,1-1.21.34,9.93,9.93,0,0,1-1.23,0C109,85.38,108.64,85.33,108.25,85.27Zm1.21,1.91-.31-.06-.15,0a.29.29,0,0,1-.25-.3,1.2,1.2,0,0,1,0-.14.24.24,0,0,1,.14-.14.61.61,0,0,1,.21,0h.31l.61,0c.42,0,.82,0,1.23,0h0l.26,0,.48,0,.48,0,.62,0,.32,0,.16,0c.06,0,.25.16.22.27s0,.27-.16.31l-.16.07-.31.12a4.85,4.85,0,0,1-.63.16,5.52,5.52,0,0,1-1.28,0c-.41,0-.82-.09-1.22-.15Zm.27,1.87a.39.39,0,0,1-.1-.28.39.39,0,0,1,0-.16.42.42,0,0,1,.2-.23l.14,0h.35l.62,0c.67,0,1.34,0,2,0a2.94,2.94,0,0,1,.42,0h0a4.45,4.45,0,0,1,1.23.23.14.14,0,0,1,0,.1.32.32,0,0,1,0,.1c0,.09-.13.12-.16.14l-.29.12c-.2.07-.41.12-.61.17a10,10,0,0,1-2.5.07l-.61-.07-.3,0-.16,0H110A.42.42,0,0,1,109.73,89.05ZM93,140.66a1.21,1.21,0,0,1-.24.21,1,1,0,0,1-.32.14l-.35,0a3.74,3.74,0,0,1-.53-.06l-.27-.07-.13,0s-.3-.1-.32-.29a.59.59,0,0,1,0-.13s0,0,0,0a.52.52,0,0,1,0-.19.39.39,0,0,1,.21-.17c.09,0,.06,0,.1,0h.29l.56,0h.54a.92.92,0,0,1,.49.25C93.15,140.42,93.06,140.61,93,140.66Zm3.9-1.85a.2.2,0,0,1-.08.11l-.16.13a3.14,3.14,0,0,1-.37.18,2.24,2.24,0,0,1-.84.13,6.49,6.49,0,0,1-.75-.06l-.38-.06-.19-.05a.46.46,0,0,1-.4-.34c0-.2,0,0,0-.27a.35.35,0,0,1,.25-.22.68.68,0,0,1,.24,0l.39,0,.77,0h.76a1.44,1.44,0,0,1,.73.28A.56.56,0,0,1,96.9,138.81ZM99.64,137l-.14.12a1.86,1.86,0,0,1-.33.19,1,1,0,0,1-.39.12l-.39,0a5.36,5.36,0,0,1-.68-.06l-.34-.06-.17,0s-.32,0-.38-.32,0-.07,0-.22a.39.39,0,0,1,.2-.26.38.38,0,0,1,.13,0h.14l.35,0,.7,0H99a1.26,1.26,0,0,1,.65.27.52.52,0,0,1,0,.11A.23.23,0,0,1,99.64,137Zm3.36-2a1.13,1.13,0,0,1-.18.12,1.46,1.46,0,0,1-.38.18,2.37,2.37,0,0,1-.86.13,7.18,7.18,0,0,1-.79-.06l-.39-.06-.2,0-.16,0a.41.41,0,0,1-.25-.31c0-.19,0,0,0-.25a.39.39,0,0,1,.28-.26,1.48,1.48,0,0,1,.23,0h.4l.8,0h.79a2.7,2.7,0,0,1,.39.08c.13.06.26,0,.37.2a.28.28,0,0,1,0,.13A.18.18,0,0,1,103,135Zm2.45-2.07a.27.27,0,0,1-.11.09.82.82,0,0,1-.2.12,3.34,3.34,0,0,1-.44.17,4.94,4.94,0,0,1-1.83.06l-.44-.06-.22,0h-.08l-.11,0a.41.41,0,0,1-.24-.38v-.07a.53.53,0,0,1,.08-.22.42.42,0,0,1,.31-.15h.22l.45,0c.44,0,.87,0,1.31,0a1.78,1.78,0,0,1,.4,0h.07l.44.08.21.07c.06,0,.18,0,.2.16A.29.29,0,0,1,105.45,132.91Zm2-2a.27.27,0,0,1-.11.09.82.82,0,0,1-.2.12,3.34,3.34,0,0,1-.44.17,5,5,0,0,1-1.83.06l-.44-.06-.22,0h-.08l-.11,0a.41.41,0,0,1-.24-.38v-.07a.53.53,0,0,1,.08-.22.42.42,0,0,1,.31-.15h.22l.45,0,1.3,0a1.41,1.41,0,0,1,.41,0h.07l.44.08.21.07c.06,0,.18,0,.2.16A.29.29,0,0,1,107.45,130.91Zm2-2a.61.61,0,0,1-.13.09l-.23.12a4.59,4.59,0,0,1-.48.17,6.56,6.56,0,0,1-2,0l-.49-.06-.25,0h-.06l-.12,0a.43.43,0,0,1-.28-.4v-.1a.39.39,0,0,1,.33-.33h.33l.5,0c.48,0,1,0,1.45,0a2.26,2.26,0,0,1,.45,0h.07a3.85,3.85,0,0,1,.49.08l.24.06c.06,0,.19,0,.22.17A.25.25,0,0,1,109.44,128.92Zm2-2-.13.07-.28.11a3.92,3.92,0,0,1-.56.16,9.14,9.14,0,0,1-2.33,0l-.57-.06-.28,0-.19,0a.42.42,0,0,1-.3-.42v0a.4.4,0,0,1,0-.15.39.39,0,0,1,.2-.2.37.37,0,0,1,.14,0h1c.56,0,1.12,0,1.68,0a3,3,0,0,1,.52,0h.09a5.39,5.39,0,0,1,.56.08l.28.06.14,0a.15.15,0,0,1,.11.15A.2.2,0,0,1,111.47,127Zm1-2-.13.07-.28.11a3.92,3.92,0,0,1-.56.16,9.14,9.14,0,0,1-2.33,0l-.57-.06-.28,0-.19,0a.42.42,0,0,1-.3-.42v0a.32.32,0,0,1,0-.14.38.38,0,0,1,.2-.21l.14,0h.39l.58,0,1.67,0a3.13,3.13,0,0,1,.53,0h.09c.18,0,.37,0,.56.08l.28.06.14,0a.15.15,0,0,1,.11.15A.2.2,0,0,1,112.47,125Zm1-2-.13.07-.28.11a3.92,3.92,0,0,1-.56.16,9.14,9.14,0,0,1-2.33,0l-.57-.06-.28,0-.19,0a.42.42,0,0,1-.3-.42v0a.32.32,0,0,1,0-.14.38.38,0,0,1,.2-.21l.14,0h.39l.58,0,1.67,0a3.13,3.13,0,0,1,.53,0h.09c.18,0,.37,0,.56.08l.28.06.14,0a.15.15,0,0,1,.11.15A.2.2,0,0,1,113.47,123Zm1.38-2-.15.07-.3.11-.61.16a11.23,11.23,0,0,1-2.52,0l-.62-.06-.31,0-.2,0a.46.46,0,0,1-.26-.19.38.38,0,0,1,0-.24.52.52,0,0,1,.06-.24.39.39,0,0,1,.26-.17,1.67,1.67,0,0,1,.19,0h.32l.62,0c.61,0,1.22,0,1.83,0h.66c.2,0,.41,0,.61.08l.31.06.15,0c.06,0,.12.11.11.16A.18.18,0,0,1,114.85,121Zm1-2-.16.07-.32.11-.64.16a13.12,13.12,0,0,1-2.65,0l-.66-.07-.32,0-.2,0a.4.4,0,0,1-.27-.2.44.44,0,0,1-.06-.24.35.35,0,0,1,0-.1.33.33,0,0,1,.07-.16.41.41,0,0,1,.29-.15h.49l.66,0c.64,0,1.29,0,1.93,0h.69c.21,0,.43,0,.65.08l.32.06.16,0a.14.14,0,0,1,.11.16A.15.15,0,0,1,115.85,119Zm.67-2-.16.07-.31.11-.65.16a13.1,13.1,0,0,1-2.65,0l-.65-.07-.33,0-.2,0a.43.43,0,0,1-.27-.21.39.39,0,0,1,0-.24.67.67,0,0,1,0-.1.46.46,0,0,1,.07-.16.41.41,0,0,1,.29-.15h.49l.66,0c.65,0,1.29,0,1.93,0a5.81,5.81,0,0,1,.59,0h.1c.22,0,.43,0,.65.08l.32.06.16,0c.07,0,.13.11.12.16A.17.17,0,0,1,116.52,116.93Zm.35-2-.15.07-.32.11-.65.16a13.1,13.1,0,0,1-2.65,0l-.65-.07-.33,0-.19,0a.43.43,0,0,1-.28-.21.49.49,0,0,1-.05-.24.67.67,0,0,1,0-.1.46.46,0,0,1,.07-.16.41.41,0,0,1,.29-.15h.5l.65,0c.65,0,1.29,0,1.93,0a5.8,5.8,0,0,1,.59,0h.1c.22,0,.44,0,.65.08l.32.06.16,0c.07,0,.13.11.12.16A.17.17,0,0,1,116.87,114.93Zm.65-2-.16.07-.31.11-.65.16a13.1,13.1,0,0,1-2.65,0l-.65-.07-.33,0-.2,0a.43.43,0,0,1-.27-.21.39.39,0,0,1,0-.24.67.67,0,0,1,0-.1.46.46,0,0,1,.07-.16.41.41,0,0,1,.29-.15h.49l.66,0c.65,0,1.29,0,1.93,0a5.8,5.8,0,0,1,.59,0h.1c.22,0,.43,0,.65.08l.32.06.16,0c.07,0,.13.11.12.16A.17.17,0,0,1,117.52,112.93Zm.31-2-.16.07-.32.11-.64.16a13.12,13.12,0,0,1-2.65,0l-.66-.07-.32,0-.2,0a.41.41,0,0,1-.27-.21.32.32,0,0,1,0-.24.19.19,0,0,1,0-.1.46.46,0,0,1,.07-.16.41.41,0,0,1,.29-.15h.49l.66,0c.64,0,1.29,0,1.93,0a3.85,3.85,0,0,1,.59,0h.1c.21,0,.43,0,.65.08l.32.06.16,0a.14.14,0,0,1,.11.16A.15.15,0,0,1,117.83,110.93Zm.15-2-.15.07-.32.11-.65.16a13.1,13.1,0,0,1-2.65,0l-.65-.07-.32,0-.2,0a.43.43,0,0,1-.28-.21.49.49,0,0,1-.05-.24.35.35,0,0,1,0-.1.33.33,0,0,1,.07-.16.41.41,0,0,1,.29-.15h.49l.66,0c.64,0,1.28,0,1.92,0a3.9,3.9,0,0,1,.59,0h.11c.21,0,.43,0,.64.08l.33.06.16,0a.14.14,0,0,1,.11.16C118.13,108.82,118,108.93,118,108.93Zm.12-2L118,107l-.32.11-.65.16a13.1,13.1,0,0,1-2.65,0l-.65-.06-.33-.05-.19,0a.43.43,0,0,1-.28-.21.49.49,0,0,1,0-.24v0s0,0,0-.08a.35.35,0,0,1,.07-.15.39.39,0,0,1,.29-.16h.5l.66,0c.64,0,1.28,0,1.92,0a3.9,3.9,0,0,1,.59,0h.1c.22,0,.44,0,.65.08l.33.06.16,0c.07,0,.12.11.11.17A.17.17,0,0,1,118.1,106.94Zm0-2L118,105l-.32.11c-.21.07-.43.11-.65.16a12.41,12.41,0,0,1-2.65,0l-.65-.06-.33,0-.19,0a.45.45,0,0,1-.28-.2.5.5,0,0,1,0-.24v0s0-.06,0-.09a.41.41,0,0,1,.07-.15.43.43,0,0,1,.29-.16h.5l.66,0,1.92,0a5.86,5.86,0,0,1,.59,0l.1,0h0c.22,0,.44,0,.65.07l.33.06.16,0c.07,0,.12.12.11.17S118.16,104.93,118.1,104.94Zm.06-2-.31.09c-.21.06-.42.1-.64.14a7.37,7.37,0,0,1-1.32.12l-1.31,0h-.66l-.33,0h-.24a.82.82,0,0,1-.17,0,.46.46,0,0,1-.27-.26.45.45,0,0,1,0-.18v0a.46.46,0,0,1,.13-.32.47.47,0,0,1,.29-.14l.33,0h.66l1.31,0c.43,0,.89,0,1.32.07a7,7,0,0,1,1.28.28.11.11,0,0,1,.06.09h0A.13.13,0,0,1,118.16,102.89Z"/><path class="cls-1" d="M66,24.29A16.37,16.37,0,0,0,49.63,8H39.09V8A16.26,16.26,0,0,0,24.62,17.9l1.18,1,.14.06A14.67,14.67,0,0,1,44.6,10.53a14.94,14.94,0,0,1,3.87,2.1l.08.06c.27.2.53.42.78.64l.13.11a15.67,15.67,0,0,1,1.94,2.13c.09.11.18.22.26.34l.4.6.3.51c.11.18.22.37.32.56s.22.46.33.69l.21.45c.16.39.3.78.43,1.17l.12.42c.08.29.16.58.22.88,0,.15.07.31.1.46,0,.31.1.62.14.93,0,.14,0,.28.05.42,0,.45.07.91.07,1.37a22.31,22.31,0,0,1-1.87,9c-2.12,4.81-27.6,48.88-27.86,49.33l-.71,1.22H43.36c.4-.55.82-1.1,1.26-1.63H36.74C41,75,62,38.53,64,34A23.83,23.83,0,0,0,66,24.29Zm-2.77-2.62A.33.33,0,0,1,63,22a5.11,5.11,0,0,1-1.22.23h-.1l-.3,0c-.23,0-.46,0-.69,0l-.33,0c-.84,0-1.69-.1-2.52-.17a.32.32,0,0,1-.29-.32.33.33,0,0,1,.29-.36c.83-.07,1.68-.13,2.53-.18l.29,0a6.74,6.74,0,0,1,1,0l.11,0a5.11,5.11,0,0,1,1.22.23A.31.31,0,0,1,63.21,21.67Zm-.84-2.08a.34.34,0,0,1-.21.35,5.23,5.23,0,0,1-1.18.23h-.39c-.23,0-.45,0-.67,0l-.3,0C58.81,20.08,58,20,57.2,20a.31.31,0,0,1-.29-.31.33.33,0,0,1,.28-.37c.8-.07,1.62-.13,2.43-.17l.28,0a5.3,5.3,0,0,1,1,0H61a5.23,5.23,0,0,1,1.18.23A.3.3,0,0,1,62.37,19.59Zm-1-1.92a.33.33,0,0,1-.21.35,4.51,4.51,0,0,1-1.15.23h-.38c-.22,0-.44,0-.65,0l-.29,0c-.79,0-1.59-.1-2.36-.17a.32.32,0,0,1-.28-.32.33.33,0,0,1,.28-.36c.78-.07,1.57-.13,2.36-.18l.27,0a6,6,0,0,1,.95,0l.1,0a4.51,4.51,0,0,1,1.15.23A.3.3,0,0,1,61.33,17.67Zm-2.54-2.52a5.75,5.75,0,0,1,1.26.22.32.32,0,0,1,.21.3.35.35,0,0,1-.21.36,5.75,5.75,0,0,1-1.26.22h-.1l-.32,0c-.23,0-.47,0-.7,0l-.33,0c-.87,0-1.75-.11-2.6-.18a.32.32,0,0,1-.29-.31.33.33,0,0,1,.29-.37c.85-.07,1.73-.13,2.6-.18l.3,0,0,.22h0v-.22a8.56,8.56,0,0,1,1,0ZM51.59,12a.31.31,0,0,1-.28-.31.33.33,0,0,1,.28-.37c.62-.07,1.25-.13,1.88-.17l.23,0a3.73,3.73,0,0,1,.76,0h.09a3.31,3.31,0,0,1,1,.24.31.31,0,0,1,.18.29.33.33,0,0,1-.18.33,3.34,3.34,0,0,1-.94.24h-.09l-.24,0a4.91,4.91,0,0,1-.55,0l-.21,0C52.84,12.17,52.21,12.11,51.59,12Zm2,2a.32.32,0,0,1-.29-.31v-.06a.32.32,0,0,1,.29-.31c.74-.07,1.5-.13,2.25-.18l.26,0a4.54,4.54,0,0,1,.91,0h.1a4.24,4.24,0,0,1,1.1.23.31.31,0,0,1,.2.29.34.34,0,0,1-.19.35,4.4,4.4,0,0,1-1.11.23H57l-.28,0c-.22,0-.43,0-.64,0l-.27,0C55.09,14.17,54.33,14.11,53.59,14ZM35.06,80a5.87,5.87,0,0,1-1.27.23h-.43c-.25,0-.49,0-.73,0l-.32,0c-.91,0-1.8-.11-2.65-.18a.32.32,0,0,1-.29-.31.35.35,0,0,1,.29-.37c.9-.07,1.79-.13,2.65-.17l.31,0a6.14,6.14,0,0,1,1.05,0h.11l0,.22h0l0-.22a5.87,5.87,0,0,1,1.27.23.31.31,0,0,1,.22.3A.33.33,0,0,1,35.06,80Zm1-2a5.87,5.87,0,0,1-1.27.23h-.43c-.25,0-.49,0-.73,0l-.32,0c-.91,0-1.8-.11-2.65-.18a.32.32,0,0,1-.29-.31.35.35,0,0,1,.29-.37c.9-.07,1.79-.13,2.65-.17l.31,0a6.08,6.08,0,0,1,1.05,0h.11l0,.22h0l0-.22a5.87,5.87,0,0,1,1.27.23.31.31,0,0,1,.22.3A.33.33,0,0,1,36.06,78Zm1-2a6.45,6.45,0,0,1-1.26.23h-.44c-.24,0-.49,0-.73,0l-.32,0c-.89,0-1.78-.1-2.65-.17a.33.33,0,0,1-.29-.32.35.35,0,0,1,.29-.37c.9-.07,1.79-.13,2.65-.17l.31,0a6.08,6.08,0,0,1,1.05,0h.11l0,.22h0l0-.22a5.87,5.87,0,0,1,1.27.23.31.31,0,0,1,.22.3A.33.33,0,0,1,37.06,76Zm1.18-2a6.45,6.45,0,0,1-1.26.23h-.44c-.24,0-.48,0-.71,0l-.35,0c-.88,0-1.77-.1-2.64-.17a.32.32,0,0,1-.29-.32.34.34,0,0,1,.29-.37c.9-.07,1.79-.13,2.65-.17l.3,0a6.26,6.26,0,0,1,1.06,0H37a6.18,6.18,0,0,1,1.28.23.31.31,0,0,1,.22.3A.33.33,0,0,1,38.24,74Zm1.46-2a5.87,5.87,0,0,1-1.27.23H38c-.24,0-.47,0-.71,0l-.34,0c-.89,0-1.78-.1-2.65-.17a.33.33,0,0,1-.29-.32.35.35,0,0,1,.29-.37c.9-.07,1.79-.13,2.65-.17l.31,0a6.08,6.08,0,0,1,1.05,0h.12a6.09,6.09,0,0,1,1.27.23.31.31,0,0,1,.22.3A.33.33,0,0,1,39.7,72Zm1.36-2a5.87,5.87,0,0,1-1.27.23h-.43c-.24,0-.48,0-.71,0l-.34,0c-.89,0-1.78-.1-2.65-.17a.34.34,0,0,1,0-.68c.9-.08,1.79-.14,2.65-.18l.31,0a6.11,6.11,0,0,1,1.05,0h.11l0,.22h0l0-.22a5.87,5.87,0,0,1,1.27.23.31.31,0,0,1,.22.3A.33.33,0,0,1,41.06,70Zm1-2a5.87,5.87,0,0,1-1.27.23h-.43c-.25,0-.5,0-.74,0l-.32,0c-.88,0-1.77-.1-2.64-.17a.32.32,0,0,1-.29-.32.33.33,0,0,1,.29-.36c.9-.08,1.79-.14,2.65-.18l.31,0a7.33,7.33,0,0,1,1.05,0h.11l0,.22h0l0-.22a5.87,5.87,0,0,1,1.27.23.31.31,0,0,1,.22.3A.33.33,0,0,1,42.06,68Zm1-2a5.87,5.87,0,0,1-1.27.23h-.43c-.25,0-.5,0-.74,0l-.32,0c-.88,0-1.77-.1-2.64-.17a.32.32,0,0,1-.29-.32.33.33,0,0,1,.29-.36c.9-.08,1.79-.14,2.65-.18l.31,0a6.08,6.08,0,0,1,1.05,0h.11l0,.22h0l0-.22a5.87,5.87,0,0,1,1.27.23.31.31,0,0,1,.22.3A.33.33,0,0,1,43.06,66Zm1-2a5.87,5.87,0,0,1-1.27.23h-.43c-.25,0-.5,0-.74,0l-.32,0c-.88,0-1.77-.1-2.64-.17a.32.32,0,0,1-.29-.32.33.33,0,0,1,.29-.36c.87-.08,1.76-.13,2.65-.18l.31,0a7.49,7.49,0,0,1,1.05,0h.11l0,.22h0l0-.22a5.87,5.87,0,0,1,1.27.23.31.31,0,0,1,.22.3A.33.33,0,0,1,44.06,64Zm1.16-2a5.87,5.87,0,0,1-1.27.23h-.43c-.25,0-.5,0-.75,0l-.31,0c-.88,0-1.77-.1-2.64-.17a.32.32,0,0,1-.29-.32.33.33,0,0,1,.29-.36c.87-.08,1.76-.13,2.65-.18l.31,0a6.17,6.17,0,0,1,1,0h.11l0,.22h0l0-.22a5.87,5.87,0,0,1,1.27.23.31.31,0,0,1,.22.3A.33.33,0,0,1,45.22,62Zm1.12-2a6.21,6.21,0,0,1-1.27.23h-.43c-.25,0-.5,0-.74,0l-.31,0c-.89,0-1.78-.1-2.65-.17a.32.32,0,0,1-.29-.32.33.33,0,0,1,.29-.36c.87-.08,1.76-.13,2.65-.18l.32,0a6.06,6.06,0,0,1,1,0h.12a6.21,6.21,0,0,1,1.27.23.31.31,0,0,1,.22.3A.33.33,0,0,1,46.34,60Zm1.52-2a5.87,5.87,0,0,1-1.27.23h-.43c-.25,0-.5,0-.74,0l-.32,0c-.88,0-1.77-.1-2.64-.17a.32.32,0,0,1-.29-.32.33.33,0,0,1,.29-.36c.87-.08,1.76-.13,2.65-.18l.38,0a8,8,0,0,1,1,0h.11l0,.22h0l0-.22a5.87,5.87,0,0,1,1.27.23.31.31,0,0,1,.22.3A.33.33,0,0,1,47.86,58Zm1.2-2a5.87,5.87,0,0,1-1.27.23h-.43c-.25,0-.5,0-.74,0l-.32,0c-.88,0-1.77-.1-2.64-.17a.32.32,0,0,1-.29-.32.33.33,0,0,1,.29-.36c.87-.08,1.76-.13,2.65-.18l.32,0a6.06,6.06,0,0,1,1,0l.13,0a6,6,0,0,1,1.26.22.31.31,0,0,1,.22.3A.33.33,0,0,1,49.06,56Zm1-2a5.87,5.87,0,0,1-1.27.23h-.43c-.25,0-.5,0-.74,0l-.32,0c-.88,0-1.77-.1-2.64-.17a.32.32,0,0,1-.29-.32.33.33,0,0,1,.29-.36c.87-.08,1.76-.13,2.65-.18l.32,0a6.06,6.06,0,0,1,1,0l.13,0a6,6,0,0,1,1.26.22.31.31,0,0,1,.22.3A.33.33,0,0,1,50.06,54Zm1-2a5.87,5.87,0,0,1-1.27.23h-.43c-.25,0-.5,0-.74,0l-.32,0c-.85,0-1.74-.1-2.64-.17a.32.32,0,0,1-.29-.32.33.33,0,0,1,.29-.36c.87-.08,1.76-.13,2.65-.18l.32,0a7.15,7.15,0,0,1,1,0l.12,0a5.84,5.84,0,0,1,1.27.22.31.31,0,0,1,.22.3A.33.33,0,0,1,51.06,52Zm1.07-2a5.87,5.87,0,0,1-1.27.23h-.43l-.72,0-.33,0c-.86,0-1.75-.1-2.65-.17a.32.32,0,0,1-.29-.32.33.33,0,0,1,.29-.36c.87-.07,1.76-.13,2.65-.18l.32,0a6,6,0,0,1,1,0h.12l0,.22h0l0-.21a5.75,5.75,0,0,1,1.26.22.31.31,0,0,1,.22.3A.33.33,0,0,1,52.13,50Zm1.41-2a5.5,5.5,0,0,1-1.27.23h-.43l-.72,0-.33,0c-.86,0-1.75-.1-2.65-.17a.32.32,0,0,1-.29-.32.33.33,0,0,1,.29-.36c.85-.07,1.75-.13,2.65-.18l.32,0a7.19,7.19,0,0,1,1,0h.13l0,.22h0l0-.21a5.85,5.85,0,0,1,1.26.22.3.3,0,0,1,.21.3A.32.32,0,0,1,53.54,48Zm1.23-2a5.58,5.58,0,0,1-1.28.23h-.42l-.72,0-.34,0c-.85,0-1.74-.1-2.64-.17a.32.32,0,0,1-.29-.32.33.33,0,0,1,.29-.36c.85-.07,1.74-.13,2.65-.18l.32,0a5.85,5.85,0,0,1,1,0h.11a6.18,6.18,0,0,1,1.28.23.31.31,0,0,1,.22.3A.33.33,0,0,1,54.77,46Zm1.1-2a5.87,5.87,0,0,1-1.27.23h-.43l-.72,0-.33,0c-.86,0-1.75-.1-2.65-.17a.32.32,0,0,1-.29-.32.33.33,0,0,1,.29-.36c.88-.07,1.78-.13,2.65-.18l.31,0a7.37,7.37,0,0,1,1,0h.12l0,.22h0l0-.22a6.78,6.78,0,0,1,1.28.23.32.32,0,0,1,.21.3A.33.33,0,0,1,55.87,44Zm.88-2a5.5,5.5,0,0,1-1.27.23h-.43c-.24,0-.49,0-.73,0l-.32,0c-.87,0-1.77-.1-2.65-.17a.32.32,0,0,1-.29-.32.33.33,0,0,1,.29-.36c.88-.07,1.78-.13,2.65-.18l.32,0a7.19,7.19,0,0,1,1,0l.12,0a5.64,5.64,0,0,1,1.28.22.3.3,0,0,1,.21.3A.32.32,0,0,1,56.75,42Zm1.07-2a5.5,5.5,0,0,1-1.27.23h-.43c-.24,0-.49,0-.73,0l-.32,0c-.88,0-1.77-.1-2.65-.17a.32.32,0,0,1-.29-.32.33.33,0,0,1,.3-.36c.87-.07,1.76-.13,2.64-.18l.32,0a7.06,7.06,0,0,1,1,0l.12,0a6.25,6.25,0,0,1,1.28.22.3.3,0,0,1,.21.3A.32.32,0,0,1,57.82,40Zm.88-2a5.32,5.32,0,0,1-1.27.23H57c-.25,0-.49,0-.73,0l-.32,0c-.88,0-1.77-.1-2.65-.17a.32.32,0,0,1-.29-.32.33.33,0,0,1,.29-.36c.88-.07,1.77-.13,2.65-.18l.32,0a7.31,7.31,0,0,1,1,0l.11,0a5.82,5.82,0,0,1,1.28.22.31.31,0,0,1,.22.3A.33.33,0,0,1,58.7,38Zm1.41-2.3a.3.3,0,0,1-.22.3,5.5,5.5,0,0,1-1.27.23h-.43c-.24,0-.49,0-.73,0l-.32,0c-.88,0-1.77-.1-2.65-.17a.32.32,0,0,1-.29-.32.33.33,0,0,1,.3-.36c.87-.07,1.76-.13,2.64-.18l.32,0a7.19,7.19,0,0,1,1,0l.12,0a6.25,6.25,0,0,1,1.28.22.3.3,0,0,1,.21.3Zm1-2a.31.31,0,0,1-.22.3,5.32,5.32,0,0,1-1.27.23h-.43c-.25,0-.49,0-.73,0l-.32,0c-.88,0-1.77-.1-2.65-.17a.32.32,0,0,1-.29-.32.33.33,0,0,1,.29-.36c.88-.07,1.77-.13,2.65-.18l.31,0a7.37,7.37,0,0,1,1,0l.12,0a6,6,0,0,1,1.28.22.32.32,0,0,1,.21.3Zm1.16-2A.3.3,0,0,1,62,32a5.73,5.73,0,0,1-1.31.23h-.44c-.25,0-.5,0-.74,0l-.33,0c-.93,0-1.84-.1-2.71-.17a.31.31,0,0,1-.29-.32.32.32,0,0,1,.29-.36c.89-.07,1.8-.13,2.71-.18l.32,0a7.65,7.65,0,0,1,1.07,0l.12,0a6.1,6.1,0,0,1,1.3.22.32.32,0,0,1,.22.3Zm.35-2a.31.31,0,0,1-.22.3,5.68,5.68,0,0,1-1.28.23h-.43c-.24,0-.49,0-.73,0l-.32,0c-.9,0-1.8-.1-2.65-.17a.32.32,0,0,1-.29-.32.33.33,0,0,1,.3-.36l2.64-.18.32,0a9,9,0,0,1,1,0l.12,0a6.25,6.25,0,0,1,1.28.22.31.31,0,0,1,.22.3Zm.68-2a.33.33,0,0,1-.22.31,6.14,6.14,0,0,1-1.28.22h-.42c-.25,0-.5,0-.73,0l-.33,0c-.88,0-1.77-.1-2.64-.17a.32.32,0,0,1-.29-.32.33.33,0,0,1,.29-.36l2.65-.18.36,0a6.6,6.6,0,0,1,1,0l.11,0a6.14,6.14,0,0,1,1.28.22.31.31,0,0,1,.22.3Zm0-2a.33.33,0,0,1-.22.31,6.14,6.14,0,0,1-1.28.22h-.42c-.25,0-.5,0-.73,0l-.33,0c-.88,0-1.77-.1-2.64-.17a.32.32,0,0,1-.29-.32.33.33,0,0,1,.29-.36l2.65-.18.31,0a7.41,7.41,0,0,1,1.05,0l.11,0a6.14,6.14,0,0,1,1.28.22.31.31,0,0,1,.22.3ZM63.17,24a5.49,5.49,0,0,1-1.28.23h-.41c-.24,0-.49,0-.72,0l-.32,0c-.87,0-1.75-.1-2.61-.17a.32.32,0,0,1-.29-.32.33.33,0,0,1,.29-.36l2.62-.18.3,0a6,6,0,0,1,1,0h0l.11,0a5.75,5.75,0,0,1,1.26.22.33.33,0,0,1,.22.3A.34.34,0,0,1,63.17,24Z"/><path class="cls-1" d="M73.55,138.84l-2.91,1.67a3.9,3.9,0,0,1-3,.46,5.11,5.11,0,0,1-1.44-.68l-1.44-.84-2.88-1.67-11.51-6.7-23-13.4L15.8,111l-2.88-1.68-1.44-.84a3.83,3.83,0,0,1-1.19-.92,3.76,3.76,0,0,1-.88-2.79v-3.33l.14-53.26,0-6.66a4.18,4.18,0,0,1,.15-1.46,3.44,3.44,0,0,1,.67-1.23,3.5,3.5,0,0,1,1.13-.88L13,37.11l11.55-6.63,23.1-13.25.85-.49-.66-.66A13.53,13.53,0,0,0,46.66,15l-.42-.33-.44.26L22.85,28,11.38,34.61l-1.44.82a7.05,7.05,0,0,0-1.51,1.14A6.5,6.5,0,0,0,6.7,40a7.79,7.79,0,0,0-.09,1v5.8l0,52.9v5a9.24,9.24,0,0,0,.12,1.83,6.41,6.41,0,0,0,1.82,3.34A6.48,6.48,0,0,0,10,110.85l1.43.82L23,118.23l23,13.1,11.51,6.52,5.75,3.26,1.44.81c.49.26.93.56,1.5.81a5.93,5.93,0,0,0,5.22-.22l1.44-.84L75.63,140l5.69-3.37,11.37-6.76h0c.72-.63,1.42-1.29,2.09-2,.34-.34.67-.69,1-1l.48-.53.24-.27a1.37,1.37,0,0,0,.24-.39Z"/><path class="cls-1" d="M132.22,105.46l-.08-10-.29-19.92-.28-19.92-.07-9.95,0-2.49a21.21,21.21,0,0,0-.09-2.51,5.79,5.79,0,0,0-2.81-4l-17-9.81L94.62,17,77.68,7,73.45,4.52c-.73-.4-1.36-.85-2.19-1.22a5.91,5.91,0,0,0-2.56-.49,6.09,6.09,0,0,0-2.54.65L64,4.68,59.74,7.1l-.65.37.63.45L61,8.84l.27.19.28-.16L64.77,7h0l2-1.16a3.86,3.86,0,0,1,2-.66,3.64,3.64,0,0,1,2,.49l2,1.18,8.1,4.71L97,21l16.19,9.43,8.09,4.71,4,2.36,2,1.17A3.49,3.49,0,0,1,128.69,40a3.94,3.94,0,0,1,.32.89,4.49,4.49,0,0,1,.06,1v2.34L129,49l0,9.37-.09,18.73-.06,18.73v11.63a3.2,3.2,0,0,1-.61,1.65,3.42,3.42,0,0,1-.62.64,4.41,4.41,0,0,1-.39.25l-.5.29-2,1.18-.41.23-.07.49L124,114l-.3,2,1.75-1,1.55-.9h0l2.16-1.27a6.54,6.54,0,0,0,3.05-4.72A26,26,0,0,0,132.22,105.46Z"/><path class="cls-1" d="M39.8,91.18v0l0-.15-.16-.06-.08-.19,0,.14-.65-.25,0,.12c-.15.41-.32.83-.48,1.24-.3.77-.62,1.57-.87,2.37-.1.36-.21.71-.32,1.06a26.32,26.32,0,0,0-.71,2.64,40.12,40.12,0,0,0-1,7.62,37.31,37.31,0,0,0,.46,7.69A30.06,30.06,0,0,0,38,120.8l.13.28,1.2-.59-.13-.28a29.26,29.26,0,0,1-2-7.12,37.38,37.38,0,0,1-.46-7.41,39.1,39.1,0,0,1,.9-7.39,23.94,23.94,0,0,1,.64-2.56q.16-.53.3-1c.23-.77.51-1.54.77-2.29l.39-1.08.11,0Z"/><polygon class="cls-2" points="58.67 126.67 58.67 83.24 71.41 104.95 58.67 126.67"/><polygon class="cls-1" points="71.41 104.95 77.84 94.19 96.67 104.95 71.41 104.95"/><polygon class="cls-3" points="71.41 104.95 96.67 104.95 77.84 94.19 71.41 104.95"/><polygon class="cls-4" points="58.67 83.24 71.41 104.95 77.84 94.19 58.67 83.24"/><polygon class="cls-5" points="71.41 104.95 96.67 104.95 77.84 115.71 71.41 104.95"/><polygon class="cls-6" points="58.67 126.67 71.41 104.95 77.84 115.71 58.67 126.67"/><path class="cls-1" d="M48.67,21.24Q40,26.43,31.33,31.52T13.9,41.64l.23-.4c0,5.25.06,10.5,0,15.75L14.1,72.74,14,88.49c-.07,5.25-.15,10.5-.28,15.75q-.18-7.87-.28-15.75l-.15-15.75L13.19,57c0-5.25,0-10.5,0-15.75V41l.23-.13Q22.2,35.85,31,31T48.67,21.24Z"/><path class="cls-1" d="M68.77,8.93,83,16.9,97.17,25l28.25,16.3.24.15v.28c0,9.77,0,19.55-.12,29.32s-.17,19.55-.37,29.32c-.19-9.77-.29-19.55-.37-29.32s-.07-19.55-.12-29.32l.25.42L96.77,25.66l-14-8.32Z"/><polygon class="cls-1" points="8.98 116.54 12.29 118.47 13.02 117.2 8.41 114.53 4.35 121.53 8.98 124.2 9.62 123.09 6.17 121.1 7.33 119.22 10.44 121.08 11.18 119.86 8.11 118.03 8.98 116.54"/><path class="cls-1" d="M18.07,120a3.37,3.37,0,0,0-2.07-.69,2.29,2.29,0,0,0-1.9,1.21,2,2,0,0,0,0,2.29,6.42,6.42,0,0,0,.75,1,5.38,5.38,0,0,1,.52.64.89.89,0,0,1,0,1.26,1.25,1.25,0,0,1-1.39,0,1.49,1.49,0,0,1-.81-1.28v-.4l-1.61.15,0,.36a2.92,2.92,0,0,0,1,2,3.2,3.2,0,0,0,2,.85h.15a2.37,2.37,0,0,0,1.91-.9,2.48,2.48,0,0,0,.48-1,2,2,0,0,0-.13-1.16,2.43,2.43,0,0,0-.43-.69l-.17-.22a7.11,7.11,0,0,0-.49-.6l-.17-.19c-.24-.25-.76-.9-.39-1.44a1,1,0,0,1,.6-.47.69.69,0,0,1,.25,0h.14a1.12,1.12,0,0,1,.4.1,1.4,1.4,0,0,1,1,1.23l0,.27,1.41-.14,0-.3A2.77,2.77,0,0,0,18.07,120Z"/><path class="cls-1" d="M21,123.5l2.16,1.24-3.19,5.57-.09.22,1.09.62.13-.21c.95-1.52,1.92-3.11,2.86-4.66l.45-.74,2.14,1.26.76-1.29-5.61-3.23Z"/><path class="cls-1" d="M25.9,132.06a.93.93,0,0,0-1.31.37.9.9,0,0,0-.06.72.82.82,0,0,0,.44.52.79.79,0,0,0,.38.09.86.86,0,0,0,.76-.43,1,1,0,0,0,.16-.73A.84.84,0,0,0,25.9,132.06Z"/><path class="cls-1" d="M36,132.83l.26,1.46L37.6,134l-2.85,5-.08.22,1.09.61,2.06-3.32c.61-1,1.19-2,1.76-2.93l.38-.64-1.06-.61Z"/><path class="cls-1" d="M46.41,136.72a3,3,0,0,0-2.33-.82,2.58,2.58,0,0,0-.64,5l-2.71,1.32-.6.29,1.51.92.19-.1c.61-.3,1.25-.64,2-1l.54-.28,0,0a10.44,10.44,0,0,0,1.4-.82,3.17,3.17,0,0,0,1.42-2A2.57,2.57,0,0,0,46.41,136.72Zm-3,1.21a1.24,1.24,0,0,1,.75-.61,1.36,1.36,0,0,1,.29,0,1.48,1.48,0,0,1,.72.2,1.42,1.42,0,0,1,.68.77,1.55,1.55,0,0,1,0,.21v.09a1.37,1.37,0,0,1-.18.71.76.76,0,0,1-.08.11l0,0-.09.1a1.11,1.11,0,0,1-.62.33,1.4,1.4,0,0,1-1-.24h0a1.22,1.22,0,0,1-.61-.76A1.14,1.14,0,0,1,43.4,137.93Z"/><path class="cls-1" d="M53.24,140.71a3.09,3.09,0,0,0-2.34-.82,2.54,2.54,0,0,0-2,1.45A2.51,2.51,0,0,0,49,143.8a2.61,2.61,0,0,0,1.31,1.09c-.9.42-1.79.85-2.72,1.31l-.59.29,1.51.92.19-.09,2-1c.18-.11.37-.21.58-.32a9.38,9.38,0,0,0,1.39-.82,3.2,3.2,0,0,0,1.43-2A2.61,2.61,0,0,0,53.24,140.71Zm-3,1.21a1.22,1.22,0,0,1,.75-.61,1.27,1.27,0,0,1,.28,0,1.45,1.45,0,0,1,.72.2,1.42,1.42,0,0,1,.68.77,1,1,0,0,1,0,.22.25.25,0,0,0,0,.08,1.41,1.41,0,0,1-.19.72l-.07.1,0,0-.09.1a1.06,1.06,0,0,1-.62.33,1.4,1.4,0,0,1-1-.24h0a1.2,1.2,0,0,1-.61-.76A1.15,1.15,0,0,1,50.23,141.92Z"/><path class="cls-1" d="M60.67,146.64l.66-1-3.77-2.29-2.52,4,.57.13a2.57,2.57,0,0,0,.4.07,1.53,1.53,0,0,1,.6.16,1.72,1.72,0,0,1,.79.47,1.29,1.29,0,0,1,.14,1.58,1.26,1.26,0,0,1-1.46.56,1.2,1.2,0,0,1-.86-1.3l0-.36-1.55-.19,0,.37a2.64,2.64,0,0,0,1.52,2.65,2.76,2.76,0,0,0,1.33.33,2.55,2.55,0,0,0,1.7-.61,2.86,2.86,0,0,0,1-2.88,2.74,2.74,0,0,0-1.89-1.83l.8-1.31Zm.28-1Z"/></svg>