<svg xmlns="http://www.w3.org/2000/svg" xmlns:xlink="http://www.w3.org/1999/xlink" viewBox="0 0 139.37 157.95"><defs><style>.cls-1{fill:#fff;}.cls-2{fill:#504c4d;}.cls-3{fill:url(#linear-gradient);}.cls-4{fill:url(#linear-gradient-2);}.cls-5{fill:url(#linear-gradient-3);}.cls-6{fill:url(#linear-gradient-4);}</style><linearGradient id="linear-gradient" x1="71.41" y1="99.57" x2="96.67" y2="99.57" gradientUnits="userSpaceOnUse"><stop offset="0.13" stop-color="#4f2e12"/><stop offset="0.26" stop-color="#75471a"/><stop offset="0.47" stop-color="#ac6c25"/><stop offset="0.65" stop-color="#d3872d"/><stop offset="0.79" stop-color="#ec9732"/><stop offset="0.87" stop-color="#f59d34"/></linearGradient><linearGradient id="linear-gradient-2" x1="58.67" y1="94.09" x2="77.84" y2="94.09" gradientUnits="userSpaceOnUse"><stop offset="0.12" stop-color="#370517"/><stop offset="0.29" stop-color="#4e0b29"/><stop offset="0.87" stop-color="#9d2164"/></linearGradient><linearGradient id="linear-gradient-3" x1="71.41" y1="110.33" x2="96.67" y2="110.33" gradientUnits="userSpaceOnUse"><stop offset="0.12" stop-color="#143717"/><stop offset="0.31" stop-color="#0d5b2f"/><stop offset="0.56" stop-color="#06834a"/><stop offset="0.75" stop-color="#029b5a"/><stop offset="0.87" stop-color="#00a460"/></linearGradient><linearGradient id="linear-gradient-4" x1="58.67" y1="115.81" x2="77.84" y2="115.81" gradientUnits="userSpaceOnUse"><stop offset="0.1" stop-color="#240323"/><stop offset="0.22" stop-color="#3b0d38"/><stop offset="0.43" stop-color="#631e5c"/><stop offset="0.61" stop-color="#7b2973"/><stop offset="0.71" stop-color="#842d7b"/></linearGradient></defs><g id="Layer_4" data-name="Layer 4"><path class="cls-1" d="M83.15,66.77H73.73v0l-.58,0c-.72,0-1.42,0-2.13.07l-.93.07-.85.09c-.85.09-1.69.21-2.53.35h0L78,47.31H92.63l2-1.87H67.19L59.28,59.53,51.37,73.61l.77.46.78.45c.78-.52,1.59-1,2.41-1.46l.39-.2c.73-.39,1.47-.77,2.23-1.11l.22-.1c.83-.37,1.68-.72,2.55-1h0c.92-.33,1.85-.62,2.8-.88.7-.19,1.41-.37,2.12-.52,1-.2,2-.37,3-.49l.3,0c1-.12,2-.19,3.08-.22.36,0,.7,0,1.06,0a36.32,36.32,0,0,1,5,.35c.54.08,1.08.16,1.62.26l.08,0c.52.09,1,.2,1.55.32l.12,0c.51.11,1,.24,1.51.39l.11,0c.51.15,1,.3,1.51.47h0a36.75,36.75,0,0,1,10.06,5.18l.07,0c.38.28.75.57,1.12.86a1.84,1.84,0,0,0,.22.17c.34.28.67.55,1,.84l.3.25c.31.27.61.55.91.83l.33.32c.29.27.56.55.84.83l.35.37.78.85.35.4c.24.29.49.57.72.86s.23.3.35.44.46.59.68.89c.1.14.2.29.31.43.22.31.45.63.66.94.06.1.12.2.19.3.44.67.86,1.36,1.26,2.06l.26.46c.15.26.28.54.42.81l.37.71.36.78.36.79c.11.26.21.52.32.77l.33.84.27.77c.11.29.2.58.3.87l.24.78c.09.3.17.6.26.9s.13.52.2.78.15.63.22.94.11.51.16.77l.18,1,.12.75c0,.35.09.7.13,1.06l.09.71c0,.39.06.79.09,1.18,0,.21,0,.41,0,.62,0,.59,0,1.18,0,1.78v.06c0,.6,0,1.2,0,1.79,0,.2,0,.4,0,.61,0,.39,0,.79-.09,1.18l-.09.72c0,.35-.08.7-.13,1l-.12.76-.18,1c0,.26-.11.52-.16.77s-.14.63-.22,1-.13.52-.2.77-.17.61-.26.91l-.24.78-.3.86c-.09.26-.18.52-.28.78s-.21.55-.32.83l-.32.78-.36.78-.36.78-.37.72-.42.81-.28.48c-.41.72-.83,1.42-1.29,2.11-.05.07-.09.15-.14.23-.22.32-.45.63-.68,1l-.29.42-.7.9-.33.42c-.24.3-.48.59-.73.87l-.35.4-.78.85-.35.37c-.27.28-.55.56-.84.83l-.33.32c-.3.28-.6.56-.91.83l-.3.26c-.32.28-.66.56-1,.83l-.23.17c-.36.3-.74.58-1.11.86l-.08,0a37,37,0,0,1-7.26,4.11l-8,4.58h3.68a38.48,38.48,0,1,0,0-77ZM67.33,49.67a.39.39,0,0,1,.16-.32.5.5,0,0,1,.25-.08h.54l.71,0c.69,0,1.38,0,2.07,0a4.7,4.7,0,0,1,.65,0h.12c.23,0,.47,0,.7.08l.35.06.18,0c.09,0,.11.14.11.18s-.12.16-.16.17l-.16.07-.35.1c-.24.07-.47.11-.71.16a15.23,15.23,0,0,1-2.86,0l-.71-.06-.36,0h-.13a.19.19,0,0,1-.1,0,.46.46,0,0,1-.28-.25.37.37,0,0,1,0-.17Zm-1.07,2a.43.43,0,0,1,.16-.32.45.45,0,0,1,.25-.08h.53l.72,0c.69,0,1.38,0,2.07,0a4.7,4.7,0,0,1,.65,0h.12c.23,0,.47,0,.7.08l.35.06.18,0c.09,0,.12.14.11.18s-.11.16-.15.17l-.17.07-.35.1c-.23.07-.47.11-.7.16a15.35,15.35,0,0,1-2.87,0l-.71-.06-.35,0-.24,0a.4.4,0,0,1-.27-.25.25.25,0,0,1,0-.16Zm-1,2a.4.4,0,0,1,.19-.31.58.58,0,0,1,.17-.06h.59l.72,0c.69,0,1.37,0,2.06,0a4.7,4.7,0,0,1,.65,0h.13c.23,0,.47,0,.7.08l.35.06.18,0c.09,0,.1.14.1.19s-.12.15-.16.16l-.17.07-.35.1c-.23.07-.47.11-.7.16a16.25,16.25,0,0,1-2.87,0l-.71-.06-.35,0H65.7a.72.72,0,0,1-.17,0,.43.43,0,0,1-.26-.28A.47.47,0,0,1,65.26,53.64Zm-1,2a.4.4,0,0,1,.19-.31.58.58,0,0,1,.17-.06h.59l.72,0c.69,0,1.37,0,2.06,0a4.7,4.7,0,0,1,.65,0h.13c.23,0,.47,0,.7.08l.35.06.18,0c.09,0,.1.14.1.19s-.12.15-.16.16l-.17.07-.35.1c-.23.07-.47.11-.7.16a16.25,16.25,0,0,1-2.87,0l-.71-.06-.35,0H64.7a.72.72,0,0,1-.17,0,.43.43,0,0,1-.26-.28A.47.47,0,0,1,64.26,55.64Zm-.93,2a.4.4,0,0,1,.12-.29.39.39,0,0,1,.16-.1l.12,0h.53l.72,0c.69,0,1.38,0,2.08,0a4.7,4.7,0,0,1,.65,0h.11c.23,0,.47,0,.7.08l.35.05.18,0c.07,0,.13.13.12.18s-.1.18-.14.18l-.17.06-.35.11-.7.16a15.34,15.34,0,0,1-2.87,0l-.71-.06-.35,0-.2,0a.43.43,0,0,1-.3-.21.41.41,0,0,1-.05-.18Zm-1.07,2a.43.43,0,0,1,.13-.3.42.42,0,0,1,.16-.09l.09,0h.56l.71,0c.69,0,1.39,0,2.08,0a4.7,4.7,0,0,1,.65,0h.11c.23,0,.47,0,.7.08l.35.05.18,0c.08,0,.13.13.12.18s-.1.18-.14.18l-.17.06-.35.11-.7.16a15.35,15.35,0,0,1-2.87,0l-.71-.06-.35,0-.2,0a.43.43,0,0,1-.35-.4Zm-.87,8.09a.21.21,0,0,1-.1.12.94.94,0,0,1-.18.12,2.13,2.13,0,0,1-.41.18,2.46,2.46,0,0,1-.88.12c-.27,0-.55,0-.83,0l-.41-.07a.71.71,0,0,1-.2,0l-.1,0a.48.48,0,0,1-.16,0,.43.43,0,0,1-.15-.15.42.42,0,0,1-.06-.21v-.06a.4.4,0,0,1,.21-.34c.17-.06.16,0,.2,0h.11l.42,0,1.33,0h.39a3,3,0,0,1,.41.08c.13.06.27,0,.39.2S61.39,67.7,61.39,67.77Zm3.29-1.88-.17.06-.35.11-.7.16a15.35,15.35,0,0,1-2.87,0l-.71-.06-.35,0-.2,0a.43.43,0,0,1-.3-.21.41.41,0,0,1-.05-.18v-.07a.43.43,0,0,1,.12-.3.42.42,0,0,1,.28-.11h.53l.72,0c.71,0,1.42,0,2.14,0a3.87,3.87,0,0,1,.59,0h.11l.7.07.35.06.18,0c.07,0,.13.13.12.18S64.72,65.89,64.68,65.89Zm1.28-2-.17.06-.35.11-.7.16a15.35,15.35,0,0,1-2.87,0l-.71-.06-.35,0-.2,0a.43.43,0,0,1-.35-.4v-.06a.43.43,0,0,1,.13-.3.42.42,0,0,1,.16-.09l.09,0h.56l.71,0c.72,0,1.43,0,2.15,0a3.74,3.74,0,0,1,.58,0h.11c.23,0,.47,0,.7.08l.35.05.18,0c.08,0,.13.13.12.18S66,63.89,66,63.89Zm-.22-1.67a15.35,15.35,0,0,1-2.87,0l-.71-.06-.35,0-.2,0a.43.43,0,0,1-.35-.4v-.06a.43.43,0,0,1,.13-.3.42.42,0,0,1,.16-.09l.09,0h.56l.71,0c.71,0,1.43,0,2.14,0a3.87,3.87,0,0,1,.59,0h.11c.23,0,.47,0,.7.08l.35.05.18,0c.08,0,.13.13.12.18s-.1.18-.14.18l-.17.06-.35.11Zm52.37,38.51a.22.22,0,0,1,0,.11.18.18,0,0,1-.09.1l-.08,0a2,2,0,0,1-.31.12c-.22.07-.44.12-.65.17a10.74,10.74,0,0,1-2.65.06l-.66-.06-.32,0-.16,0h-.09a.42.42,0,0,1-.27-.14.39.39,0,0,1-.1-.28v0a.47.47,0,0,1,0-.17.4.4,0,0,1,.24-.2.86.86,0,0,1,.15,0h.33l.66,0c.71,0,1.43,0,2.14,0,.12,0,.25,0,.37,0h.1a4.69,4.69,0,0,1,1.31.23A.14.14,0,0,1,118.11,100.73Zm-.16-2a.22.22,0,0,1,0,.11.18.18,0,0,1-.09.1l-.08,0a2,2,0,0,1-.31.12c-.22.07-.44.12-.65.17a10.74,10.74,0,0,1-2.65.06l-.65-.06-.33,0-.16,0h-.08a.46.46,0,0,1-.28-.14.44.44,0,0,1-.1-.28v0a.85.85,0,0,1,0-.17.39.39,0,0,1,.25-.2.72.72,0,0,1,.14,0h.33l.66,0c.71,0,1.42,0,2.13,0a3.38,3.38,0,0,1,.45,0h0a4.82,4.82,0,0,1,1.31.23A.13.13,0,0,1,118,98.73Zm-.31-2a.32.32,0,0,1,0,.1.24.24,0,0,1-.1.1l-.07,0a2.08,2.08,0,0,1-.32.12c-.21.07-.43.12-.65.17a10.74,10.74,0,0,1-2.65.06l-.65-.06-.33,0-.16,0h-.08a.42.42,0,0,1-.27-.14.4.4,0,0,1-.11-.28v0a.47.47,0,0,1,0-.17.39.39,0,0,1,.25-.2.72.72,0,0,1,.14,0H113l.66,0c.72,0,1.43,0,2.14,0a3.08,3.08,0,0,1,.43,0h.05a4.75,4.75,0,0,1,1.31.23A.14.14,0,0,1,117.64,96.74Zm-.5-2a.19.19,0,0,1,0,.1.24.24,0,0,1-.1.1L117,95a1.75,1.75,0,0,1-.32.12c-.21.07-.43.12-.65.17a10.72,10.72,0,0,1-2.65.06l-.65-.06-.32,0-.17,0h-.08a.42.42,0,0,1-.27-.14.39.39,0,0,1-.1-.28v0a.35.35,0,0,1,0-.17.37.37,0,0,1,.24-.2.77.77,0,0,1,.15,0h.32l.66,0c.72,0,1.43,0,2.14,0a3.09,3.09,0,0,1,.43,0h0a5.08,5.08,0,0,1,1.31.23A.14.14,0,0,1,117.14,94.74Zm-.84-2a.32.32,0,0,1,0,.1c0,.09-.13.12-.16.14l-.29.12c-.2.07-.41.12-.61.17a9.57,9.57,0,0,1-2.5.06l-.61-.06-.3,0-.16,0h-.07a.4.4,0,0,1-.27-.14.39.39,0,0,1-.1-.28.44.44,0,0,1,0-.17.38.38,0,0,1,.21-.22.37.37,0,0,1,.14,0H112l.61,0c.68,0,1.34,0,2,0a2.8,2.8,0,0,1,.41,0h0a4.59,4.59,0,0,1,1.23.23A.18.18,0,0,1,116.3,92.73Zm-.77-2a.32.32,0,0,1,0,.1c0,.09-.12.12-.15.14l-.3.12c-.2.07-.4.12-.6.17a10,10,0,0,1-2.5.07l-.61-.07-.31,0-.15,0h-.08a.44.44,0,0,1-.27-.14.44.44,0,0,1-.1-.28.7.7,0,0,1,0-.16.38.38,0,0,1,.2-.23.37.37,0,0,1,.14,0h.35l.62,0c.67,0,1.33,0,2,0a3.09,3.09,0,0,1,.43,0h0a4.59,4.59,0,0,1,1.23.23A.12.12,0,0,1,115.53,90.73ZM96.94,73.24c-.47,0-1,.06-1.44,0l-.18,0h-.09a.4.4,0,0,1-.29-.14.48.48,0,0,1-.13-.33V72.7a.49.49,0,0,1,.07-.19.44.44,0,0,1,.33-.21h.09a5.78,5.78,0,0,1,.72,0c.48,0,1,0,1.46.1h0a4.19,4.19,0,0,1,.46.16.88.88,0,0,1,.22.1.13.13,0,0,1,.07,0h0l0,0s0,0,0,0v0a.09.09,0,0,1,0,.08l0,0a1.85,1.85,0,0,1-.52.22A2,2,0,0,1,96.94,73.24ZM99.16,75l-.59-.09-.29,0h-.16s0,0,0,0l0,0h0v0h0v0h0s0,0,0-.06.16,0,.22-.05l.29,0,.59-.08,1.18-.23a8.24,8.24,0,0,1,1.24-.16,4.48,4.48,0,0,1,.62.06l.33.08.08,0h0l.09,0a.49.49,0,0,1,.22.44.44.44,0,0,1-.13.32.4.4,0,0,1-.15.1l0,0-.16.05-.32.08c-.22,0-.42,0-.62,0a5.8,5.8,0,0,1-1.24-.17Zm1,1.87h0l-.07,0a.14.14,0,0,1,0-.17h0a0,0,0,0,1,0,0h0a2.13,2.13,0,0,1,.25,0l.59-.09,1.18-.22a9.06,9.06,0,0,1,1.23-.19,3.34,3.34,0,0,1,1.26.19.4.4,0,0,1,.21.14.48.48,0,0,1,.11.3,1.42,1.42,0,0,1,0,.19.52.52,0,0,1-.23.26c-.17.07-.23.08-.35.12a5.08,5.08,0,0,1-.64.08,4.63,4.63,0,0,1-1.24-.13A17.14,17.14,0,0,0,100.18,76.9Zm3,2.11-.59-.08a1.55,1.55,0,0,1-.29,0s0,0,0,0h0a.17.17,0,0,1,0-.18l0,0h0a18.82,18.82,0,0,0,2.35-.37,5.83,5.83,0,0,1,1.25-.13,3.62,3.62,0,0,1,.63.08,1.5,1.5,0,0,1,.36.12.47.47,0,0,1,.24.44.44.44,0,0,1-.11.31.4.4,0,0,1-.21.14,3.82,3.82,0,0,1-1.27.2,10.71,10.71,0,0,1-1.22-.2Zm2.17,2.28-.59-.11-.3-.06-.15,0a.28.28,0,0,1-.24-.3s0-.24.16-.28a.25.25,0,0,1,.13,0h1c.39,0,.79,0,1.18,0h0l.24,0,.48,0,.46,0c.2,0,.4,0,.6,0l.31,0,.16,0c.06,0,.23.16.2.27a.3.3,0,0,1-.15.31l-.16.07a1.34,1.34,0,0,1-.3.12,4.44,4.44,0,0,1-.6.16,5.27,5.27,0,0,1-1.25,0C106.16,81.4,105.76,81.36,105.37,81.29Zm1.41,1.89-.3-.06-.15,0a.28.28,0,0,1-.24-.3s0-.25.16-.28a.25.25,0,0,1,.13,0h1c.39,0,.79,0,1.18,0h0l.25,0,.47,0,.47,0c.2,0,.4,0,.6,0l.31,0,.16,0c.06,0,.23.17.2.27a.3.3,0,0,1-.15.31l-.16.07a1.57,1.57,0,0,1-.3.12,4.87,4.87,0,0,1-.6.16,5.27,5.27,0,0,1-1.25,0c-.39,0-.79-.08-1.18-.15Zm1.47,2.09-.59-.11-.15,0h-.05l-.11,0a.35.35,0,0,1-.14-.2.24.24,0,0,1,0-.13.32.32,0,0,1,.08-.2.31.31,0,0,1,.19-.09h.08a17.32,17.32,0,0,0,2.39,0h0l.51,0a3.09,3.09,0,0,1,.68,0,4.34,4.34,0,0,1,.61.06l.15,0,.09,0a.24.24,0,0,1,.12.14c0,.08,0,.09,0,.12a.29.29,0,0,1-.06.17.72.72,0,0,1-.2.13,4.64,4.64,0,0,1-1.21.34,9.93,9.93,0,0,1-1.23,0C109,85.38,108.64,85.33,108.25,85.27Zm1.21,1.91-.31-.06-.15,0a.29.29,0,0,1-.25-.3,1.2,1.2,0,0,1,0-.14.24.24,0,0,1,.14-.14.61.61,0,0,1,.21,0h.31l.61,0c.42,0,.82,0,1.23,0h0l.26,0,.48,0,.48,0,.62,0,.32,0,.16,0c.06,0,.25.16.22.27s0,.27-.16.31l-.16.07-.31.12a4.85,4.85,0,0,1-.63.16,5.52,5.52,0,0,1-1.28,0c-.41,0-.82-.09-1.22-.15Zm.27,1.87a.39.39,0,0,1-.1-.28.39.39,0,0,1,0-.16.42.42,0,0,1,.2-.23l.14,0h.35l.62,0c.67,0,1.34,0,2,0a2.94,2.94,0,0,1,.42,0h0a4.45,4.45,0,0,1,1.23.23.14.14,0,0,1,0,.1.32.32,0,0,1,0,.1c0,.09-.13.12-.16.14l-.29.12c-.2.07-.41.12-.61.17a10,10,0,0,1-2.5.07l-.61-.07-.3,0-.16,0H110A.42.42,0,0,1,109.73,89.05ZM93,140.66a1.21,1.21,0,0,1-.24.21,1,1,0,0,1-.32.14l-.35,0a3.74,3.74,0,0,1-.53-.06l-.27-.07-.13,0s-.3-.1-.32-.29a.59.59,0,0,1,0-.13s0,0,0,0a.52.52,0,0,1,0-.19.39.39,0,0,1,.21-.17c.09,0,.06,0,.1,0h.29l.56,0h.54a.92.92,0,0,1,.49.25C93.15,140.42,93.06,140.61,93,140.66Zm3.9-1.85a.2.2,0,0,1-.08.11l-.16.13a3.14,3.14,0,0,1-.37.18,2.24,2.24,0,0,1-.84.13,6.49,6.49,0,0,1-.75-.06l-.38-.06-.19-.05a.46.46,0,0,1-.4-.34c0-.2,0,0,0-.27a.35.35,0,0,1,.25-.22.68.68,0,0,1,.24,0l.39,0,.77,0h.76a1.44,1.44,0,0,1,.73.28A.56.56,0,0,1,96.9,138.81ZM99.64,137l-.14.12a1.86,1.86,0,0,1-.33.19,1,1,0,0,1-.39.12l-.39,0a5.36,5.36,0,0,1-.68-.06l-.34-.06-.17,0s-.32,0-.38-.32,0-.07,0-.22a.39.39,0,0,1,.2-.26.38.38,0,0,1,.13,0h.14l.35,0,.7,0H99a1.26,1.26,0,0,1,.65.27.52.52,0,0,1,0,.11A.23.23,0,0,1,99.64,137Zm3.36-2a1.13,1.13,0,0,1-.18.12,1.46,1.46,0,0,1-.38.18,2.37,2.37,0,0,1-.86.13,7.18,7.18,0,0,1-.79-.06l-.39-.06-.2,0-.16,0a.41.41,0,0,1-.25-.31c0-.19,0,0,0-.25a.39.39,0,0,1,.28-.26,1.48,1.48,0,0,1,.23,0h.4l.8,0h.79a2.7,2.7,0,0,1,.39.08c.13.06.26,0,.37.2a.28.28,0,0,1,0,.13A.18.18,0,0,1,103,135Zm2.45-2.07a.27.27,0,0,1-.11.09.82.82,0,0,1-.2.12,3.34,3.34,0,0,1-.44.17,4.94,4.94,0,0,1-1.83.06l-.44-.06-.22,0h-.08l-.11,0a.41.41,0,0,1-.24-.38v-.07a.53.53,0,0,1,.08-.22.42.42,0,0,1,.31-.15h.22l.45,0c.44,0,.87,0,1.31,0a1.78,1.78,0,0,1,.4,0h.07l.44.08.21.07c.06,0,.18,0,.2.16A.29.29,0,0,1,105.45,132.91Zm2-2a.27.27,0,0,1-.11.09.82.82,0,0,1-.2.12,3.34,3.34,0,0,1-.44.17,5,5,0,0,1-1.83.06l-.44-.06-.22,0h-.08l-.11,0a.41.41,0,0,1-.24-.38v-.07a.53.53,0,0,1,.08-.22.42.42,0,0,1,.31-.15h.22l.45,0,1.3,0a1.41,1.41,0,0,1,.41,0h.07l.44.08.21.07c.06,0,.18,0,.2.16A.29.29,0,0,1,107.45,130.91Zm2-2a.61.61,0,0,1-.13.09l-.23.12a4.59,4.59,0,0,1-.48.17,6.56,6.56,0,0,1-2,0l-.49-.06-.25,0h-.06l-.12,0a.43.43,0,0,1-.28-.4v-.1a.39.39,0,0,1,.33-.33h.33l.5,0c.48,0,1,0,1.45,0a2.26,2.26,0,0,1,.45,0h.07a3.85,3.85,0,0,1,.49.08l.24.06c.06,0,.19,0,.22.17A.25.25,0,0,1,109.44,128.92Zm2-2-.13.07-.28.11a3.92,3.92,0,0,1-.56.16,9.14,9.14,0,0,1-2.33,0l-.57-.06-.28,0-.19,0a.42.42,0,0,1-.3-.42v0a.4.4,0,0,1,0-.15.39.39,0,0,1,.2-.2.37.37,0,0,1,.14,0h1c.56,0,1.12,0,1.68,0a3,3,0,0,1,.52,0h.09a5.39,5.39,0,0,1,.56.08l.28.06.14,0a.15.15,0,0,1,.11.15A.2.2,0,0,1,111.47,127Zm1-2-.13.07-.28.11a3.92,3.92,0,0,1-.56.16,9.14,9.14,0,0,1-2.33,0l-.57-.06-.28,0-.19,0a.42.42,0,0,1-.3-.42v0a.32.32,0,0,1,0-.14.38.38,0,0,1,.2-.21l.14,0h.39l.58,0,1.67,0a3.13,3.13,0,0,1,.53,0h.09c.18,0,.37,0,.56.08l.28.06.14,0a.15.15,0,0,1,.11.15A.2.2,0,0,1,112.47,125Zm1-2-.13.07-.28.11a3.92,3.92,0,0,1-.56.16,9.14,9.14,0,0,1-2.33,0l-.57-.06-.28,0-.19,0a.42.42,0,0,1-.3-.42v0a.32.32,0,0,1,0-.14.38.38,0,0,1,.2-.21l.14,0h.39l.58,0,1.67,0a3.13,3.13,0,0,1,.53,0h.09c.18,0,.37,0,.56.08l.28.06.14,0a.15.15,0,0,1,.11.15A.2.2,0,0,1,113.47,123Zm1.38-2-.15.07-.3.11-.61.16a11.23,11.23,0,0,1-2.52,0l-.62-.06-.31,0-.2,0a.46.46,0,0,1-.26-.19.38.38,0,0,1,0-.24.52.52,0,0,1,.06-.24.39.39,0,0,1,.26-.17,1.67,1.67,0,0,1,.19,0h.32l.62,0c.61,0,1.22,0,1.83,0h.66c.2,0,.41,0,.61.08l.31.06.15,0c.06,0,.12.11.11.16A.18.18,0,0,1,114.85,121Zm1-2-.16.07-.32.11-.64.16a13.12,13.12,0,0,1-2.65,0l-.66-.07-.32,0-.2,0a.4.4,0,0,1-.27-.2.44.44,0,0,1-.06-.24.35.35,0,0,1,0-.1.33.33,0,0,1,.07-.16.41.41,0,0,1,.29-.15h.49l.66,0c.64,0,1.29,0,1.93,0h.69c.21,0,.43,0,.65.08l.32.06.16,0a.14.14,0,0,1,.11.16A.15.15,0,0,1,115.85,119Zm.67-2-.16.07-.31.11-.65.16a13.1,13.1,0,0,1-2.65,0l-.65-.07-.33,0-.2,0a.43.43,0,0,1-.27-.21.39.39,0,0,1,0-.24.67.67,0,0,1,0-.1.46.46,0,0,1,.07-.16.41.41,0,0,1,.29-.15h.49l.66,0c.65,0,1.29,0,1.93,0a5.81,5.81,0,0,1,.59,0h.1c.22,0,.43,0,.65.08l.32.06.16,0c.07,0,.13.11.12.16A.17.17,0,0,1,116.52,116.93Zm.35-2-.15.07-.32.11-.65.16a13.1,13.1,0,0,1-2.65,0l-.65-.07-.33,0-.19,0a.43.43,0,0,1-.28-.21.49.49,0,0,1-.05-.24.67.67,0,0,1,0-.1.46.46,0,0,1,.07-.16.41.41,0,0,1,.29-.15h.5l.65,0c.65,0,1.29,0,1.93,0a5.8,5.8,0,0,1,.59,0h.1c.22,0,.44,0,.65.08l.32.06.16,0c.07,0,.13.11.12.16A.17.17,0,0,1,116.87,114.93Zm.65-2-.16.07-.31.11-.65.16a13.1,13.1,0,0,1-2.65,0l-.65-.07-.33,0-.2,0a.43.43,0,0,1-.27-.21.39.39,0,0,1,0-.24.67.67,0,0,1,0-.1.46.46,0,0,1,.07-.16.41.41,0,0,1,.29-.15h.49l.66,0c.65,0,1.29,0,1.93,0a5.8,5.8,0,0,1,.59,0h.1c.22,0,.43,0,.65.08l.32.06.16,0c.07,0,.13.11.12.16A.17.17,0,0,1,117.52,112.93Zm.31-2-.16.07-.32.11-.64.16a13.12,13.12,0,0,1-2.65,0l-.66-.07-.32,0-.2,0a.41.41,0,0,1-.27-.21.32.32,0,0,1,0-.24.19.19,0,0,1,0-.1.46.46,0,0,1,.07-.16.41.41,0,0,1,.29-.15h.49l.66,0c.64,0,1.29,0,1.93,0a3.85,3.85,0,0,1,.59,0h.1c.21,0,.43,0,.65.08l.32.06.16,0a.14.14,0,0,1,.11.16A.15.15,0,0,1,117.83,110.93Zm.15-2-.15.07-.32.11-.65.16a13.1,13.1,0,0,1-2.65,0l-.65-.07-.32,0-.2,0a.43.43,0,0,1-.28-.21.49.49,0,0,1-.05-.24.35.35,0,0,1,0-.1.33.33,0,0,1,.07-.16.41.41,0,0,1,.29-.15h.49l.66,0c.64,0,1.28,0,1.92,0a3.9,3.9,0,0,1,.59,0h.11c.21,0,.43,0,.64.08l.33.06.16,0a.14.14,0,0,1,.11.16C118.13,108.82,118,108.93,118,108.93Zm.12-2L118,107l-.32.11-.65.16a13.1,13.1,0,0,1-2.65,0l-.65-.06-.33-.05-.19,0a.43.43,0,0,1-.28-.21.49.49,0,0,1,0-.24v0s0,0,0-.08a.35.35,0,0,1,.07-.15.39.39,0,0,1,.29-.16h.5l.66,0c.64,0,1.28,0,1.92,0a3.9,3.9,0,0,1,.59,0h.1c.22,0,.44,0,.65.08l.33.06.16,0c.07,0,.12.11.11.17A.17.17,0,0,1,118.1,106.94Zm0-2L118,105l-.32.11c-.21.07-.43.11-.65.16a12.41,12.41,0,0,1-2.65,0l-.65-.06-.33,0-.19,0a.45.45,0,0,1-.28-.2.5.5,0,0,1,0-.24v0s0-.06,0-.09a.41.41,0,0,1,.07-.15.43.43,0,0,1,.29-.16h.5l.66,0,1.92,0a5.86,5.86,0,0,1,.59,0l.1,0h0c.22,0,.44,0,.65.07l.33.06.16,0c.07,0,.12.12.11.17S118.16,104.93,118.1,104.94Zm.06-2-.31.09c-.21.06-.42.1-.64.14a7.37,7.37,0,0,1-1.32.12l-1.31,0h-.66l-.33,0h-.24a.82.82,0,0,1-.17,0,.46.46,0,0,1-.27-.26.45.45,0,0,1,0-.18v0a.46.46,0,0,1,.13-.32.47.47,0,0,1,.29-.14l.33,0h.66l1.31,0c.43,0,.89,0,1.32.07a7,7,0,0,1,1.28.28.11.11,0,0,1,.06.09h0A.13.13,0,0,1,118.16,102.89Z"/><path class="cls-1" d="M66,24.29A16.37,16.37,0,0,0,49.63,8H39.09V8A16.26,16.26,0,0,0,24.62,17.9l1.18,1,.14.06A14.67,14.67,0,0,1,44.6,10.53a14.94,14.94,0,0,1,3.87,2.1l.08.06c.27.2.53.42.78.64l.13.11a15.67,15.67,0,0,1,1.94,2.13c.09.11.18.22.26.34l.4.6.3.51c.11.18.22.37.32.56s.22.46.33.69l.21.45c.16.39.3.78.43,1.17l.12.42c.08.29.16.58.22.88,0,.15.07.31.1.46,0,.31.1.62.14.93,0,.14,0,.28.05.42,0,.45.07.91.07,1.37a22.31,22.31,0,0,1-1.87,9c-2.12,4.81-27.6,48.88-27.86,49.33l-.71,1.22H43.36c.4-.55.82-1.1,1.26-1.63H36.74C41,75,62,38.53,64,34A23.83,23.83,0,0,0,66,24.29Zm-2.77-2.62A.33.33,0,0,1,63,22a5.11,5.11,0,0,1-1.22.23h-.1l-.3,0c-.23,0-.46,0-.69,0l-.33,0c-.84,0-1.69-.1-2.52-.17a.32.32,0,0,1-.29-.32.33.33,0,0,1,.29-.36c.83-.07,1.68-.13,2.53-.18l.29,0a6.74,6.74,0,0,1,1,0l.11,0a5.11,5.11,0,0,1,1.22.23A.31.31,0,0,1,63.21,21.67Zm-.84-2.08a.34.34,0,0,1-.21.35,5.23,5.23,0,0,1-1.18.23h-.39c-.23,0-.45,0-.67,0l-.3,0C58.81,20.08,58,20,57.2,20a.31.31,0,0,1-.29-.31.33.33,0,0,1,.28-.37c.8-.07,1.62-.13,2.43-.17l.28,0a5.3,5.3,0,0,1,1,0H61a5.23,5.23,0,0,1,1.18.23A.3.3,0,0,1,62.37,19.59Zm-1-1.92a.33.33,0,0,1-.21.35,4.51,4.51,0,0,1-1.15.23h-.38c-.22,0-.44,0-.65,0l-.29,0c-.79,0-1.59-.1-2.36-.17a.32.32,0,0,1-.28-.32.33.33,0,0,1,.28-.36c.78-.07,1.57-.13,2.36-.18l.27,0a6,6,0,0,1,.95,0l.1,0a4.51,4.51,0,0,1,1.15.23A.3.3,0,0,1,61.33,17.67Zm-2.54-2.52a5.75,5.75,0,0,1,1.26.22.32.32,0,0,1,.21.3.35.35,0,0,1-.21.36,5.75,5.75,0,0,1-1.26.22h-.1l-.32,0c-.23,0-.47,0-.7,0l-.33,0c-.87,0-1.75-.11-2.6-.18a.32.32,0,0,1-.29-.31.33.33,0,0,1,.29-.37c.85-.07,1.73-.13,2.6-.18l.3,0,0,.22h0v-.22a8.56,8.56,0,0,1,1,0ZM51.59,12a.31.31,0,0,1-.28-.31.33.33,0,0,1,.28-.37c.62-.07,1.25-.13,1.88-.17l.23,0a3.73,3.73,0,0,1,.76,0h.09a3.31,3.31,0,0,1,1,.24.31.31,0,0,1,.18.29.33.33,0,0,1-.18.33,3.34,3.34,0,0,1-.94.24h-.09l-.24,0a4.91,4.91,0,0,1-.55,0l-.21,0C52.84,12.17,52.21,12.11,51.59,12Zm2,2a.32.32,0,0,1-.29-.31v-.06a.32.32,0,0,1,.29-.31c.74-.07,1.5-.13,2.25-.18l.26,0a4.54,4.54,0,0,1,.91,0h.1a4.24,4.24,0,0,1,1.1.23.31.31,0,0,1,.2.29.34.34,0,0,1-.19.35,4.4,4.4,0,0,1-1.11.23H57l-.28,0c-.22,0-.43,0-.64,0l-.27,0C55.09,14.17,54.33,14.11,53.59,14ZM35.06,80a5.87,5.87,0,0,1-1.27.23h-.43c-.25,0-.49,0-.73,0l-.32,0c-.91,0-1.8-.11-2.65-.18a.32.32,0,0,1-.29-.31.35.35,0,0,1,.29-.37c.9-.07,1.79-.13,2.65-.17l.31,0a6.14,6.14,0,0,1,1.05,0h.11l0,.22h0l0-.22a5.87,5.87,0,0,1,1.27.23.31.31,0,0,1,.22.3A.33.33,0,0,1,35.06,80Zm1-2a5.87,5.87,0,0,1-1.27.23h-.43c-.25,0-.49,0-.73,0l-.32,0c-.91,0-1.8-.11-2.65-.18a.32.32,0,0,1-.29-.31.35.35,0,0,1,.29-.37c.9-.07,1.79-.13,2.65-.17l.31,0a6.08,6.08,0,0,1,1.05,0h.11l0,.22h0l0-.22a5.87,5.87,0,0,1,1.27.23.31.31,0,0,1,.22.3A.33.33,0,0,1,36.06,78Zm1-2a6.45,6.45,0,0,1-1.26.23h-.44c-.24,0-.49,0-.73,0l-.32,0c-.89,0-1.78-.1-2.65-.17a.33.33,0,0,1-.29-.32.35.35,0,0,1,.29-.37c.9-.07,1.79-.13,2.65-.17l.31,0a6.08,6.08,0,0,1,1.05,0h.11l0,.22h0l0-.22a5.87,5.87,0,0,1,1.27.23.31.31,0,0,1,.22.3A.33.33,0,0,1,37.06,76Zm1.18-2a6.45,6.45,0,0,1-1.26.23h-.44c-.24,0-.48,0-.71,0l-.35,0c-.88,0-1.77-.1-2.64-.17a.32.32,0,0,1-.29-.32.34.34,0,0,1,.29-.37c.9-.07,1.79-.13,2.65-.17l.3,0a6.26,6.26,0,0,1,1.06,0H37a6.18,6.18,0,0,1,1.28.23.31.31,0,0,1,.22.3A.33.33,0,0,1,38.24,74Zm1.46-2a5.87,5.87,0,0,1-1.27.23H38c-.24,0-.47,0-.71,0l-.34,0c-.89,0-1.78-.1-2.65-.17a.33.33,0,0,1-.29-.32.35.35,0,0,1,.29-.37c.9-.07,1.79-.13,2.65-.17l.31,0a6.08,6.08,0,0,1,1.05,0h.12a6.09,6.09,0,0,1,1.27.23.31.31,0,0,1,.22.3A.33.33,0,0,1,39.7,72Zm1.36-2a5.87,5.87,0,0,1-1.27.23h-.43c-.24,0-.48,0-.71,0l-.34,0c-.89,0-1.78-.1-2.65-.17a.34.34,0,0,1,0-.68c.9-.08,1.79-.14,2.65-.18l.31,0a6.11,6.11,0,0,1,1.05,0h.11l0,.22h0l0-.22a5.87,5.87,0,0,1,1.27.23.31.31,0,0,1,.22.3A.33.33,0,0,1,41.06,70Zm1-2a5.87,5.87,0,0,1-1.27.23h-.43c-.25,0-.5,0-.74,0l-.32,0c-.88,0-1.77-.1-2.64-.17a.32.32,0,0,1-.29-.32.33.33,0,0,1,.29-.36c.9-.08,1.79-.14,2.65-.18l.31,0a7.33,7.33,0,0,1,1.05,0h.11l0,.22h0l0-.22a5.87,5.87,0,0,1,1.27.23.31.31,0,0,1,.22.3A.33.33,0,0,1,42.06,68Zm1-2a5.87,5.87,0,0,1-1.27.23h-.43c-.25,0-.5,0-.74,0l-.32,0c-.88,0-1.77-.1-2.64-.17a.32.32,0,0,1-.29-.32.33.33,0,0,1,.29-.36c.9-.08,1.79-.14,2.65-.18l.31,0a6.08,6.08,0,0,1,1.05,0h.11l0,.22h0l0-.22a5.87,5.87,0,0,1,1.27.23.31.31,0,0,1,.22.3A.33.33,0,0,1,43.06,66Zm1-2a5.87,5.87,0,0,1-1.27.23h-.43c-.25,0-.5,0-.74,0l-.32,0c-.88,0-1.77-.1-2.64-.17a.32.32,0,0,1-.29-.32.33.33,0,0,1,.29-.36c.87-.08,1.76-.13,2.65-.18l.31,0a7.49,7.49,0,0,1,1.05,0h.11l0,.22h0l0-.22a5.87,5.87,0,0,1,1.27.23.31.31,0,0,1,.22.3A.33.33,0,0,1,44.06,64Zm1.16-2a5.87,5.87,0,0,1-1.27.23h-.43c-.25,0-.5,0-.75,0l-.31,0c-.88,0-1.77-.1-2.64-.17a.32.32,0,0,1-.29-.32.33.33,0,0,1,.29-.36c.87-.08,1.76-.13,2.65-.18l.31,0a6.17,6.17,0,0,1,1,0h.11l0,.22h0l0-.22a5.87,5.87,0,0,1,1.27.23.31.31,0,0,1,.22.3A.33.33,0,0,1,45.22,62Zm1.12-2a6.21,6.21,0,0,1-1.27.23h-.43c-.25,0-.5,0-.74,0l-.31,0c-.89,0-1.78-.1-2.65-.17a.32.32,0,0,1-.29-.32.33.33,0,0,1,.29-.36c.87-.08,1.76-.13,2.65-.18l.32,0a6.06,6.06,0,0,1,1,0h.12a6.21,6.21,0,0,1,1.27.23.31.31,0,0,1,.22.3A.33.33,0,0,1,46.34,60Zm1.52-2a5.87,5.87,0,0,1-1.27.23h-.43c-.25,0-.5,0-.74,0l-.32,0c-.88,0-1.77-.1-2.64-.17a.32.32,0,0,1-.29-.32.33.33,0,0,1,.29-.36c.87-.08,1.76-.13,2.65-.18l.38,0a8,8,0,0,1,1,0h.11l0,.22h0l0-.22a5.87,5.87,0,0,1,1.27.23.31.31,0,0,1,.22.3A.33.33,0,0,1,47.86,58Zm1.2-2a5.87,5.87,0,0,1-1.27.23h-.43c-.25,0-.5,0-.74,0l-.32,0c-.88,0-1.77-.1-2.64-.17a.32.32,0,0,1-.29-.32.33.33,0,0,1,.29-.36c.87-.08,1.76-.13,2.65-.18l.32,0a6.06,6.06,0,0,1,1,0l.13,0a6,6,0,0,1,1.26.22.31.31,0,0,1,.22.3A.33.33,0,0,1,49.06,56Zm1-2a5.87,5.87,0,0,1-1.27.23h-.43c-.25,0-.5,0-.74,0l-.32,0c-.88,0-1.77-.1-2.64-.17a.32.32,0,0,1-.29-.32.33.33,0,0,1,.29-.36c.87-.08,1.76-.13,2.65-.18l.32,0a6.06,6.06,0,0,1,1,0l.13,0a6,6,0,0,1,1.26.22.31.31,0,0,1,.22.3A.33.33,0,0,1,50.06,54Zm1-2a5.87,5.87,0,0,1-1.27.23h-.43c-.25,0-.5,0-.74,0l-.32,0c-.85,0-1.74-.1-2.64-.17a.32.32,0,0,1-.29-.32.33.33,0,0,1,.29-.36c.87-.08,1.76-.13,2.65-.18l.32,0a7.15,7.15,0,0,1,1,0l.12,0a5.84,5.84,0,0,1,1.27.22.31.31,0,0,1,.22.3A.33.33,0,0,1,51.06,52Zm1.07-2a5.87,5.87,0,0,1-1.27.23h-.43l-.72,0-.33,0c-.86,0-1.75-.1-2.65-.17a.32.32,0,0,1-.29-.32.33.33,0,0,1,.29-.36c.87-.07,1.76-.13,2.65-.18l.32,0a6,6,0,0,1,1,0h.12l0,.22h0l0-.21a5.75,5.75,0,0,1,1.26.22.31.31,0,0,1,.22.3A.33.33,0,0,1,52.13,50Zm1.41-2a5.5,5.5,0,0,1-1.27.23h-.43l-.72,0-.33,0c-.86,0-1.75-.1-2.65-.17a.32.32,0,0,1-.29-.32.33.33,0,0,1,.29-.36c.85-.07,1.75-.13,2.65-.18l.32,0a7.19,7.19,0,0,1,1,0h.13l0,.22h0l0-.21a5.85,5.85,0,0,1,1.26.22.3.3,0,0,1,.21.3A.32.32,0,0,1,53.54,48Zm1.23-2a5.58,5.58,0,0,1-1.28.23h-.42l-.72,0-.34,0c-.85,0-1.74-.1-2.64-.17a.32.32,0,0,1-.29-.32.33.33,0,0,1,.29-.36c.85-.07,1.74-.13,2.65-.18l.32,0a5.85,5.85,0,0,1,1,0h.11a6.18,6.18,0,0,1,1.28.23.31.31,0,0,1,.22.3A.33.33,0,0,1,54.77,46Zm1.1-2a5.87,5.87,0,0,1-1.27.23h-.43l-.72,0-.33,0c-.86,0-1.75-.1-2.65-.17a.32.32,0,0,1-.29-.32.33.33,0,0,1,.29-.36c.88-.07,1.78-.13,2.65-.18l.31,0a7.37,7.37,0,0,1,1,0h.12l0,.22h0l0-.22a6.78,6.78,0,0,1,1.28.23.32.32,0,0,1,.21.3A.33.33,0,0,1,55.87,44Zm.88-2a5.5,5.5,0,0,1-1.27.23h-.43c-.24,0-.49,0-.73,0l-.32,0c-.87,0-1.77-.1-2.65-.17a.32.32,0,0,1-.29-.32.33.33,0,0,1,.29-.36c.88-.07,1.78-.13,2.65-.18l.32,0a7.19,7.19,0,0,1,1,0l.12,0a5.64,5.64,0,0,1,1.28.22.3.3,0,0,1,.21.3A.32.32,0,0,1,56.75,42Zm1.07-2a5.5,5.5,0,0,1-1.27.23h-.43c-.24,0-.49,0-.73,0l-.32,0c-.88,0-1.77-.1-2.65-.17a.32.32,0,0,1-.29-.32.33.33,0,0,1,.3-.36c.87-.07,1.76-.13,2.64-.18l.32,0a7.06,7.06,0,0,1,1,0l.12,0a6.25,6.25,0,0,1,1.28.22.3.3,0,0,1,.21.3A.32.32,0,0,1,57.82,40Zm.88-2a5.32,5.32,0,0,1-1.27.23H57c-.25,0-.49,0-.73,0l-.32,0c-.88,0-1.77-.1-2.65-.17a.32.32,0,0,1-.29-.32.33.33,0,0,1,.29-.36c.88-.07,1.77-.13,2.65-.18l.32,0a7.31,7.31,0,0,1,1,0l.11,0a5.82,5.82,0,0,1,1.28.22.31.31,0,0,1,.22.3A.33.33,0,0,1,58.7,38Zm1.41-2.3a.3.3,0,0,1-.22.3,5.5,5.5,0,0,1-1.27.23h-.43c-.24,0-.49,0-.73,0l-.32,0c-.88,0-1.77-.1-2.65-.17a.32.32,0,0,1-.29-.32.33.33,0,0,1,.3-.36c.87-.07,1.76-.13,2.64-.18l.32,0a7.19,7.19,0,0,1,1,0l.12,0a6.25,6.25,0,0,1,1.28.22.3.3,0,0,1,.21.3Zm1-2a.31.31,0,0,1-.22.3,5.32,5.32,0,0,1-1.27.23h-.43c-.25,0-.49,0-.73,0l-.32,0c-.88,0-1.77-.1-2.65-.17a.32.32,0,0,1-.29-.32.33.33,0,0,1,.29-.36c.88-.07,1.77-.13,2.65-.18l.31,0a7.37,7.37,0,0,1,1,0l.12,0a6,6,0,0,1,1.28.22.32.32,0,0,1,.21.3Zm1.16-2A.3.3,0,0,1,62,32a5.73,5.73,0,0,1-1.31.23h-.44c-.25,0-.5,0-.74,0l-.33,0c-.93,0-1.84-.1-2.71-.17a.31.31,0,0,1-.29-.32.32.32,0,0,1,.29-.36c.89-.07,1.8-.13,2.71-.18l.32,0a7.65,7.65,0,0,1,1.07,0l.12,0a6.1,6.1,0,0,1,1.3.22.32.32,0,0,1,.22.3Zm.35-2a.31.31,0,0,1-.22.3,5.68,5.68,0,0,1-1.28.23h-.43c-.24,0-.49,0-.73,0l-.32,0c-.9,0-1.8-.1-2.65-.17a.32.32,0,0,1-.29-.32.33.33,0,0,1,.3-.36l2.64-.18.32,0a9,9,0,0,1,1,0l.12,0a6.25,6.25,0,0,1,1.28.22.31.31,0,0,1,.22.3Zm.68-2a.33.33,0,0,1-.22.31,6.14,6.14,0,0,1-1.28.22h-.42c-.25,0-.5,0-.73,0l-.33,0c-.88,0-1.77-.1-2.64-.17a.32.32,0,0,1-.29-.32.33.33,0,0,1,.29-.36l2.65-.18.36,0a6.6,6.6,0,0,1,1,0l.11,0a6.14,6.14,0,0,1,1.28.22.31.31,0,0,1,.22.3Zm0-2a.33.33,0,0,1-.22.31,6.14,6.14,0,0,1-1.28.22h-.42c-.25,0-.5,0-.73,0l-.33,0c-.88,0-1.77-.1-2.64-.17a.32.32,0,0,1-.29-.32.33.33,0,0,1,.29-.36l2.65-.18.31,0a7.41,7.41,0,0,1,1.05,0l.11,0a6.14,6.14,0,0,1,1.28.22.31.31,0,0,1,.22.3ZM63.17,24a5.49,5.49,0,0,1-1.28.23h-.41c-.24,0-.49,0-.72,0l-.32,0c-.87,0-1.75-.1-2.61-.17a.32.32,0,0,1-.29-.32.33.33,0,0,1,.29-.36l2.62-.18.3,0a6,6,0,0,1,1,0h0l.11,0a5.75,5.75,0,0,1,1.26.22.33.33,0,0,1,.22.3A.34.34,0,0,1,63.17,24Z"/><path class="cls-1" d="M73.55,138.84l-2.91,1.67a3.9,3.9,0,0,1-3,.46,5.11,5.11,0,0,1-1.44-.68l-1.44-.84-2.88-1.67-11.51-6.7-23-13.4L15.8,111l-2.88-1.68-1.44-.84a3.83,3.83,0,0,1-1.19-.92,3.76,3.76,0,0,1-.88-2.79v-3.33l.14-53.26,0-6.66a4.18,4.18,0,0,1,.15-1.46,3.44,3.44,0,0,1,.67-1.23,3.5,3.5,0,0,1,1.13-.88L13,37.11l11.55-6.63,23.1-13.25.85-.49-.66-.66A13.53,13.53,0,0,0,46.66,15l-.42-.33-.44.26L22.85,28,11.38,34.61l-1.44.82a7.05,7.05,0,0,0-1.51,1.14A6.5,6.5,0,0,0,6.7,40a7.79,7.79,0,0,0-.09,1v5.8l0,52.9v5a9.24,9.24,0,0,0,.12,1.83,6.41,6.41,0,0,0,1.82,3.34A6.48,6.48,0,0,0,10,110.85l1.43.82L23,118.23l23,13.1,11.51,6.52,5.75,3.26,1.44.81c.49.26.93.56,1.5.81a5.93,5.93,0,0,0,5.22-.22l1.44-.84L75.63,140l5.69-3.37,11.37-6.76h0c.72-.63,1.42-1.29,2.09-2,.34-.34.67-.69,1-1l.48-.53.24-.27a1.37,1.37,0,0,0,.24-.39Z"/><path class="cls-1" d="M132.22,105.46l-.08-10-.29-19.92-.28-19.92-.07-9.95,0-2.49a21.21,21.21,0,0,0-.09-2.51,5.79,5.79,0,0,0-2.81-4l-17-9.81L94.62,17,77.68,7,73.45,4.52c-.73-.4-1.36-.85-2.19-1.22a5.91,5.91,0,0,0-2.56-.49,6.09,6.09,0,0,0-2.54.65L64,4.68,59.74,7.1l-.65.37.63.45L61,8.84l.27.19.28-.16L64.77,7h0l2-1.16a3.86,3.86,0,0,1,2-.66,3.64,3.64,0,0,1,2,.49l2,1.18,8.1,4.71L97,21l16.19,9.43,8.09,4.71,4,2.36,2,1.17A3.49,3.49,0,0,1,128.69,40a3.94,3.94,0,0,1,.32.89,4.49,4.49,0,0,1,.06,1v2.34L129,49l0,9.37-.09,18.73-.06,18.73v11.63a3.2,3.2,0,0,1-.61,1.65,3.42,3.42,0,0,1-.62.64,4.41,4.41,0,0,1-.39.25l-.5.29-2,1.18-.41.23-.07.49L124,114l-.3,2,1.75-1,1.55-.9h0l2.16-1.27a6.54,6.54,0,0,0,3.05-4.72A26,26,0,0,0,132.22,105.46Z"/><path class="cls-1" d="M39.8,91.18v0l0-.15-.16-.06-.08-.19,0,.14-.65-.25,0,.12c-.15.41-.32.83-.48,1.24-.3.77-.62,1.57-.87,2.37-.1.36-.21.71-.32,1.06a26.32,26.32,0,0,0-.71,2.64,40.12,40.12,0,0,0-1,7.62,37.31,37.31,0,0,0,.46,7.69A30.06,30.06,0,0,0,38,120.8l.13.28,1.2-.59-.13-.28a29.26,29.26,0,0,1-2-7.12,37.38,37.38,0,0,1-.46-7.41,39.1,39.1,0,0,1,.9-7.39,23.94,23.94,0,0,1,.64-2.56q.16-.53.3-1c.23-.77.51-1.54.77-2.29l.39-1.08.11,0Z"/><polygon class="cls-2" points="58.67 126.67 58.67 83.24 71.41 104.95 58.67 126.67"/><polygon class="cls-1" points="71.41 104.95 77.84 94.19 96.67 104.95 71.41 104.95"/><polygon class="cls-3" points="71.41 104.95 96.67 104.95 77.84 94.19 71.41 104.95"/><polygon class="cls-4" points="58.67 83.24 71.41 104.95 77.84 94.19 58.67 83.24"/><polygon class="cls-5" points="71.41 104.95 96.67 104.95 77.84 115.71 71.41 104.95"/><polygon class="cls-6" points="58.67 126.67 71.41 104.95 77.84 115.71 58.67 126.67"/><path class="cls-1" d="M48.67,21.24Q40,26.43,31.33,31.52T13.9,41.64l.23-.4c0,5.25.06,10.5,0,15.75L14.1,72.74,14,88.49c-.07,5.25-.15,10.5-.28,15.75q-.18-7.87-.28-15.75l-.15-15.75L13.19,57c0-5.25,0-10.5,0-15.75V41l.23-.13Q22.2,35.85,31,31T48.67,21.24Z"/><path class="cls-1" d="M68.77,8.93,83,16.9,97.17,25l28.25,16.3.24.15v.28c0,9.77,0,19.55-.12,29.32s-.17,19.55-.37,29.32c-.19-9.77-.29-19.55-.37-29.32s-.07-19.55-.12-29.32l.25.42L96.77,25.66l-14-8.32Z"/><polygon class="cls-1" points="8.98 116.54 12.29 118.47 13.02 117.2 8.41 114.53 4.35 121.53 8.98 124.2 9.62 123.09 6.17 121.1 7.33 119.22 10.44 121.08 11.18 119.86 8.11 118.03 8.98 116.54"/><path class="cls-1" d="M18.07,120a3.37,3.37,0,0,0-2.07-.69,2.29,2.29,0,0,0-1.9,1.21,2,2,0,0,0,0,2.29,6.42,6.42,0,0,0,.75,1,5.38,5.38,0,0,1,.52.64.89.89,0,0,1,0,1.26,1.25,1.25,0,0,1-1.39,0,1.49,1.49,0,0,1-.81-1.28v-.4l-1.61.15,0,.36a2.92,2.92,0,0,0,1,2,3.2,3.2,0,0,0,2,.85h.15a2.37,2.37,0,0,0,1.91-.9,2.48,2.48,0,0,0,.48-1,2,2,0,0,0-.13-1.16,2.43,2.43,0,0,0-.43-.69l-.17-.22a7.11,7.11,0,0,0-.49-.6l-.17-.19c-.24-.25-.76-.9-.39-1.44a1,1,0,0,1,.6-.47.69.69,0,0,1,.25,0h.14a1.12,1.12,0,0,1,.4.1,1.4,1.4,0,0,1,1,1.23l0,.27,1.41-.14,0-.3A2.77,2.77,0,0,0,18.07,120Z"/><path class="cls-1" d="M21,123.5l2.16,1.24-3.19,5.57-.09.22,1.09.62.13-.21c.95-1.52,1.92-3.11,2.86-4.66l.45-.74,2.14,1.26.76-1.29-5.61-3.23Z"/><path class="cls-1" d="M25.9,132.06a.93.93,0,0,0-1.31.37.9.9,0,0,0-.06.72.82.82,0,0,0,.44.52.79.79,0,0,0,.38.09.86.86,0,0,0,.76-.43,1,1,0,0,0,.16-.73A.84.84,0,0,0,25.9,132.06Z"/><path class="cls-1" d="M36,132.83l.26,1.46L37.6,134l-2.85,5-.08.22,1.09.61,2.06-3.32c.61-1,1.19-2,1.76-2.93l.38-.64-1.06-.61Z"/><path class="cls-1" d="M46.41,136.72a3,3,0,0,0-2.33-.82,2.58,2.58,0,0,0-.64,5l-2.71,1.32-.6.29,1.51.92.19-.1c.61-.3,1.25-.64,2-1l.54-.28,0,0a10.44,10.44,0,0,0,1.4-.82,3.17,3.17,0,0,0,1.42-2A2.57,2.57,0,0,0,46.41,136.72Zm-3,1.21a1.24,1.24,0,0,1,.75-.61,1.36,1.36,0,0,1,.29,0,1.48,1.48,0,0,1,.72.2,1.42,1.42,0,0,1,.68.77,1.55,1.55,0,0,1,0,.21v.09a1.37,1.37,0,0,1-.18.71.76.76,0,0,1-.08.11l0,0-.09.1a1.11,1.11,0,0,1-.62.33,1.4,1.4,0,0,1-1-.24h0a1.22,1.22,0,0,1-.61-.76A1.14,1.14,0,0,1,43.4,137.93Z"/><path class="cls-1" d="M53.24,140.71a3.09,3.09,0,0,0-2.34-.82,2.54,2.54,0,0,0-2,1.45A2.51,2.51,0,0,0,49,143.8a2.61,2.61,0,0,0,1.31,1.09c-.9.42-1.79.85-2.72,1.31l-.59.29,1.51.92.19-.09,2-1c.18-.11.37-.21.58-.32a9.38,9.38,0,0,0,1.39-.82,3.2,3.2,0,0,0,1.43-2A2.61,2.61,0,0,0,53.24,140.71Zm-3,1.21a1.22,1.22,0,0,1,.75-.61,1.27,1.27,0,0,1,.28,0,1.45,1.45,0,0,1,.72.2,1.42,1.42,0,0,1,.68.77,1,1,0,0,1,0,.22.25.25,0,0,0,0,.08,1.41,1.41,0,0,1-.19.72l-.07.1,0,0-.09.1a1.06,1.06,0,0,1-.62.33,1.4,1.4,0,0,1-1-.24h0a1.2,1.2,0,0,1-.61-.76A1.15,1.15,0,0,1,50.23,141.92Z"/><path class="cls-1" d="M60.67,146.64l.66-1-3.77-2.29-2.52,4,.57.13a2.57,2.57,0,0,0,.4.07,1.53,1.53,0,0,1,.6.16,1.72,1.72,0,0,1,.79.47,1.29,1.29,0,0,1,.14,1.58,1.26,1.26,0,0,1-1.46.56,1.2,1.2,0,0,1-.86-1.3l0-.36-1.55-.19,0,.37a2.64,2.64,0,0,0,1.52,2.65,2.76,2.76,0,0,0,1.33.33,2.55,2.55,0,0,0,1.7-.61,2.86,2.86,0,0,0,1-2.88,2.74,2.74,0,0,0-1.89-1.83l.8-1.31Zm.28-1Z"/><path class="cls-1" d="M14,92.23h0S14,92.22,14,92.23Z"/><path class="cls-1" d="M14.08,92c-.1-.13-.21-.3-.36-.05,0,0,.12.15.27.23h.09A.17.17,0,0,0,14.08,92Z"/><path class="cls-1" d="M36.56,59.71a.47.47,0,0,0-.12-.67c-.19.23-.49.35-.56.68C36.11,59.9,36.37,60,36.56,59.71Z"/><path class="cls-1" d="M28.36,96.14a1.43,1.43,0,0,0-.13-.28l-.15.15.15.26S28.36,96.17,28.36,96.14Z"/><path class="cls-1" d="M29.46,97.08l.14-.26-.14-.15a1.11,1.11,0,0,0-.13.27S29.41,97,29.46,97.08Z"/><path class="cls-1" d="M42.37,60.25c0-.28-.12-.41-.41-.4C42,60.13,42.09,60.26,42.37,60.25Z"/><path class="cls-1" d="M40.12,60.66l.14-.26-.14-.15a1.11,1.11,0,0,0-.13.27S40.07,60.61,40.12,60.66Z"/><path class="cls-1" d="M5.89,47.54c-.1-.14-.21-.3-.36-.06,0,0,.12.16.27.24h.08A.15.15,0,0,0,5.89,47.54Z"/><path class="cls-1" d="M5.8,47.72Z"/><path class="cls-1" d="M36.56,58s-.09-.09-.13-.14l-.15.26.15.15A1.66,1.66,0,0,0,36.56,58Z"/><path class="cls-1" d="M61.16,36.24A1.66,1.66,0,0,0,61,36c-.05,0-.14.1-.13.13a1,1,0,0,0,.13.27S61.16,36.27,61.16,36.24Z"/><path class="cls-1" d="M71.29,43.26a.25.25,0,0,0-.13.12.84.84,0,0,0-.08.34,1.3,1.3,0,0,0,.16.31c.08-.07.2-.13.23-.21a1.71,1.71,0,0,0,0-.47v-.11S71.39,43.22,71.29,43.26Z"/><path class="cls-1" d="M62.05,36.17a1.31,1.31,0,0,0-.27-.12s-.09.08-.14.12l.27.15Z"/><path class="cls-1" d="M119.15,95.7c.09-.43.8-.09.81-.63-.23,0-.45,0-.67,0s-.34.26-.54.33-.43-.1-.41.25A1.33,1.33,0,0,0,119.15,95.7Z"/><path class="cls-1" d="M120.11,95.08c.12.09.23.21.39.35.17-.32.19-.53,0-.64s-.28,0-.42,0S119.92,94.92,120.11,95.08Z"/><path class="cls-1" d="M98.26,127.89a.39.39,0,0,0,0-.66A.39.39,0,0,0,98.26,127.89Z"/><path class="cls-1" d="M83.13,86.05a.38.38,0,0,0,0,.66A.39.39,0,0,0,83.13,86.05Z"/><path class="cls-1" d="M71.87,131.83c-.17,0-.33,0-.28.21s.42.18.54,0,0-.1,0-.1Z"/><path class="cls-1" d="M103.2,133.58c0,.19.12.23.28.22s.19-.07.28-.12a.12.12,0,0,0,0-.1C103.62,133.41,103.25,133.41,103.2,133.58Z"/><path class="cls-1" d="M88.62,65.92a.15.15,0,0,0,0-.11c-.12-.16-.49-.17-.54,0s.11.23.28.21Z"/><path class="cls-1" d="M64.12,61.6a.41.41,0,0,0-.67,0A.4.4,0,0,0,64.12,61.6Z"/><path class="cls-1" d="M127.76,86c-.06.19.11.23.28.21l.27-.11a.15.15,0,0,0,0-.11C128.17,85.83,127.8,85.82,127.76,86Z"/><path class="cls-1" d="M8.63,51.59a.4.4,0,0,0,.67,0A.41.41,0,0,0,8.63,51.59Z"/><path class="cls-1" d="M113.5,38.2s0-.08,0-.11a.37.37,0,0,0-.55,0,.11.11,0,0,0,0,.11A.37.37,0,0,0,113.5,38.2Z"/><path class="cls-1" d="M39.91,112.63a.4.4,0,0,0,.67,0A.41.41,0,0,0,39.91,112.63Z"/><path class="cls-1" d="M47.71,100.6c-.05.19.11.23.28.22s.18-.07.27-.12a.12.12,0,0,0,0-.1C48.13,100.43,47.76,100.43,47.71,100.6Z"/><path class="cls-1" d="M103.41,111.38s0-.08,0-.11a.37.37,0,0,0-.55,0,.11.11,0,0,0,0,.11A.37.37,0,0,0,103.41,111.38Z"/><path class="cls-1" d="M118.12,69l.27-.12a.15.15,0,0,0,0-.11c-.13-.16-.5-.17-.55,0S118,69,118.12,69Z"/><path class="cls-1" d="M116.53,53.45a1.5,1.5,0,0,0-.11-.22l-.12.12.12.21S116.54,53.48,116.53,53.45Z"/><path class="cls-1" d="M61.1,53.07a.77.77,0,0,0-.23-.1s-.07.06-.11.1l.22.12Z"/><path class="cls-1" d="M92.38,46.18s-.09-.11-.11-.1a.67.67,0,0,0-.23.1l.12.12Z"/><path class="cls-1" d="M59.37,44.91l-.12-.21s-.11.08-.11.11a.91.91,0,0,0,.11.22Z"/><path class="cls-1" d="M23.83,130.3a.84.84,0,0,0,.1.22l.12-.12-.12-.21S23.82,130.27,23.83,130.3Z"/><path class="cls-1" d="M19.17,124.88a1.13,1.13,0,0,0,.22-.11s-.08-.1-.11-.1a2.29,2.29,0,0,0-.23.1S19.14,124.88,19.17,124.88Z"/><path class="cls-1" d="M37.49,120.89a.91.91,0,0,0-.11-.22s-.11.08-.1.11a1.47,1.47,0,0,0,.1.22S37.5,120.92,37.49,120.89Z"/><path class="cls-1" d="M89.69,136.26s-.09-.11-.12-.1a.72.72,0,0,0-.22.1s.08.11.11.1A1.15,1.15,0,0,0,89.69,136.26Z"/><path class="cls-1" d="M25.49,135.88l.12.22s.11-.09.11-.11a.91.91,0,0,0-.11-.22Z"/><path class="cls-1" d="M72.2,135.27l.21.12.12-.12a1.47,1.47,0,0,0-.22-.1S72.23,135.24,72.2,135.27Z"/><path class="cls-1" d="M93.83,134.84s-.07.07-.11.11l.22.11.12-.11A1.2,1.2,0,0,0,93.83,134.84Z"/><path class="cls-1" d="M26.6,134.09s.12-.09.19-.15v-.14c-.05,0-.11,0-.15,0S26.39,134,26.6,134.09Z"/><path class="cls-1" d="M33.07,133.53a2.29,2.29,0,0,0-.23.1s.09.11.11.11a1,1,0,0,0,.23-.11S33.1,133.53,33.07,133.53Z"/><path class="cls-1" d="M26.94,133.79a.7.7,0,0,0,.15-.19s-.07-.07-.1-.1a1,1,0,0,0-.2.16.12.12,0,0,0,0,.13A.12.12,0,0,0,26.94,133.79Z"/><path class="cls-1" d="M61.05,132.7l-.12-.21s-.11.08-.11.1a.91.91,0,0,0,.11.22Z"/><path class="cls-1" d="M43.88,83.65a2.29,2.29,0,0,0-.1-.23s-.12.09-.11.11a.91.91,0,0,0,.11.22S43.89,83.67,43.88,83.65Z"/><path class="cls-1" d="M125,79.37l-.12-.21s-.11.08-.1.11a.84.84,0,0,0,.1.22Z"/><path class="cls-1" d="M75.22,79.32s.09.11.11.11a1.2,1.2,0,0,0,.23-.11l-.12-.11Z"/><path class="cls-1" d="M4.76,78.5l-.12.21.12.12a.91.91,0,0,0,.11-.22S4.8,78.54,4.76,78.5Z"/><path class="cls-1" d="M77.35,78.11a.77.77,0,0,0,.23-.1s-.09-.11-.11-.1a.77.77,0,0,0-.23.1S77.32,78.12,77.35,78.11Z"/><path class="cls-1" d="M18.21,76.21s-.11.08-.1.1a1.47,1.47,0,0,0,.1.22l.12-.11Z"/><path class="cls-1" d="M116,75.34l.12.21s.11-.08.1-.11a1.47,1.47,0,0,0-.1-.22Z"/><path class="cls-1" d="M6,74.67a.91.91,0,0,0,.11.22s.11-.08.1-.11-.07-.14-.1-.22S6,74.65,6,74.67Z"/><path class="cls-1" d="M100.89,73.19a1.6,1.6,0,0,0,.23-.1S101,73,101,73a.77.77,0,0,0-.23.1S100.87,73.2,100.89,73.19Z"/><path class="cls-1" d="M103.19,60.9l.12.21s.11-.08.1-.11a1.47,1.47,0,0,0-.1-.22Z"/><path class="cls-1" d="M58.07,60l.22.12.12-.12a1.15,1.15,0,0,0-.23-.1S58.11,59.92,58.07,60Z"/><path class="cls-1" d="M6.11,59.47s-.12.08-.11.11a1.5,1.5,0,0,0,.11.22s.11-.08.1-.11A1.47,1.47,0,0,0,6.11,59.47Z"/><path class="cls-1" d="M13.06,59.25a.91.91,0,0,0,.11.22s.11-.08.1-.11a.62.62,0,0,0-.1-.22S13.06,59.22,13.06,59.25Z"/><path class="cls-1" d="M65.3,58.48a.84.84,0,0,0-.1.22s.06.08.1.11l.12-.21Z"/><path class="cls-1" d="M58.2,143.9l.12-.21-.12-.12a1.47,1.47,0,0,0-.1.22S58.17,143.86,58.2,143.9Z"/><path class="cls-1" d="M11,56.35a.88.88,0,0,0-.22-.1s-.08.06-.11.1l.21.12Z"/><path class="cls-1" d="M37.33,55.47a1.47,1.47,0,0,0,.22-.1l-.12-.12-.21.12S37.3,55.48,37.33,55.47Z"/><path class="cls-1" d="M104.08,54.77a.62.62,0,0,0-.1-.22s-.11.08-.11.1a.91.91,0,0,0,.11.22S104.09,54.79,104.08,54.77Z"/><path class="cls-1" d="M97.15,70.52s.07.07.1.11l.12-.21-.12-.12A.88.88,0,0,0,97.15,70.52Z"/><path class="cls-1" d="M99.39,70.18,99.27,70s-.11.08-.1.11a.62.62,0,0,0,.1.22Z"/><path class="cls-1" d="M35.26,67.24s.07.07.11.1l.12-.21L35.37,67A.91.91,0,0,0,35.26,67.24Z"/><path class="cls-1" d="M34.86,67.18s-.08-.11-.11-.1a.88.88,0,0,0-.22.1s.08.11.11.1A.62.62,0,0,0,34.86,67.18Z"/><path class="cls-1" d="M105.11,64.51l-.12-.12a.91.91,0,0,0-.11.22s.07.07.11.11Z"/><path class="cls-1" d="M70.51,62.26s-.08-.11-.11-.1a.62.62,0,0,0-.22.1s.08.11.11.1A1.47,1.47,0,0,0,70.51,62.26Z"/><path class="cls-1" d="M50.67,47.66a1,1,0,0,0-.23-.11s-.07.07-.11.11l.22.11Z"/><path class="cls-1" d="M4.53,45.41a1.5,1.5,0,0,0-.11-.22s-.11.08-.1.11a1.47,1.47,0,0,0,.1.22S4.54,45.44,4.53,45.41Z"/><path class="cls-1" d="M13.34,44.05s.08.1.11.1a1.47,1.47,0,0,0,.22-.1l-.12-.12Z"/><path class="cls-1" d="M114.17,40.05s-.06-.07-.1-.11l-.12.21.12.12A.62.62,0,0,0,114.17,40.05Z"/><path class="cls-1" d="M6.78,36.66l.12-.21-.12-.12a1.5,1.5,0,0,0-.11.22S6.74,36.63,6.78,36.66Z"/><path class="cls-1" d="M55.05,149a1.2,1.2,0,0,0,.23.11s.07-.07.11-.11l-.22-.11Z"/><path class="cls-1" d="M6.11,58.32,6,58.53l.12.12a1.47,1.47,0,0,0,.1-.22S6.14,58.36,6.11,58.32Z"/><path class="cls-1" d="M82.56,58.1s-.07-.07-.11-.11l-.12.21.12.12A.91.91,0,0,0,82.56,58.1Z"/><path class="cls-1" d="M38.29,57.12c0,.07.07.14.1.22l.12-.12L38.39,57S38.28,57.09,38.29,57.12Z"/><path class="cls-1" d="M25.4,50l-.12-.21s-.11.08-.11.11a1.5,1.5,0,0,0,.11.22Z"/><path class="cls-1" d="M33.45,21.13a.62.62,0,0,0-.1-.22s-.11.08-.11.11a1.5,1.5,0,0,0,.11.22S33.46,21.16,33.45,21.13Z"/><path class="cls-1" d="M67.42,19.7s-.06-.07-.1-.1l-.12.21.12.12A.77.77,0,0,0,67.42,19.7Z"/><path class="cls-1" d="M84.58,17.85a.91.91,0,0,0-.11-.22l-.12.11.12.22S84.58,17.88,84.58,17.85Z"/><path class="cls-1" d="M57.33,17.19a.62.62,0,0,0-.1-.22s-.11.08-.11.11a.91.91,0,0,0,.11.22S57.34,17.22,57.33,17.19Z"/><path class="cls-1" d="M113.06,33.05l.12-.21-.12-.12a.84.84,0,0,0-.1.22S113,33,113.06,33.05Z"/><path class="cls-1" d="M110.71,33.05l.12-.21-.12-.12a1.5,1.5,0,0,0-.11.22S110.67,33,110.71,33.05Z"/><path class="cls-1" d="M95.4,32.56a.62.62,0,0,0-.22-.1s-.08.06-.11.1l.21.12Z"/><path class="cls-1" d="M104.77,30.87l-.12-.12a.84.84,0,0,0-.1.22s.06.08.1.11Z"/><path class="cls-1" d="M27.08,30.31,27,30.1s-.11.08-.11.11a1.5,1.5,0,0,0,.11.22Z"/><path class="cls-1" d="M69.17,29,69,28.83l-.12.12a.77.77,0,0,0,.23.1S69.13,29,69.17,29Z"/><path class="cls-1" d="M14,28.67l-.12-.21s-.11.08-.1.11a.84.84,0,0,0,.1.22Z"/><path class="cls-1" d="M31.79,28.34l-.12-.21s-.11.08-.11.11a1.5,1.5,0,0,0,.11.22Z"/><path class="cls-1" d="M87.44,28.07a2.29,2.29,0,0,0,.23-.1s-.09-.11-.11-.11a1.2,1.2,0,0,0-.23.11S87.41,28.07,87.44,28.07Z"/><path class="cls-1" d="M30.09,27.91s-.07-.07-.1-.11l-.12.21.12.12A1.47,1.47,0,0,0,30.09,27.91Z"/><path class="cls-1" d="M87.33,27a.94.94,0,0,0-.23-.1s-.07.06-.11.1l.22.12Z"/><path class="cls-1" d="M66.09,26,66,25.83s-.11.08-.1.11a1.47,1.47,0,0,0,.1.22Z"/><path class="cls-1" d="M97.36,24.3s-.07-.07-.11-.11l-.12.21.12.12A.91.91,0,0,0,97.36,24.3Z"/><path class="cls-1" d="M93.32,23.64s-.07-.07-.1-.11l-.12.22.12.11A1.47,1.47,0,0,0,93.32,23.64Z"/><path class="cls-1" d="M29.77,105.79l-.12-.21s-.11.08-.11.1a.91.91,0,0,0,.11.22Z"/><path class="cls-1" d="M31.5,105.41s-.08-.11-.11-.1a2.29,2.29,0,0,0-.23.1s.09.11.11.1A.77.77,0,0,0,31.5,105.41Z"/><path class="cls-1" d="M52.8,103s-.07.07-.11.1l.21.12.12-.12A1.47,1.47,0,0,0,52.8,103Z"/><path class="cls-1" d="M40.24,99.83l.22.12.12-.12a1.6,1.6,0,0,0-.23-.1S40.28,99.8,40.24,99.83Z"/><path class="cls-1" d="M85,118.21l-.22-.12-.12.12a.67.67,0,0,0,.23.1S84.94,118.25,85,118.21Z"/><path class="cls-1" d="M83.63,118.21l-.12-.12-.22.12s.09.11.12.1A.72.72,0,0,0,83.63,118.21Z"/><path class="cls-1" d="M104.55,113.56a.62.62,0,0,0,.1.22l.12-.12-.12-.21S104.54,113.53,104.55,113.56Z"/><path class="cls-1" d="M111,113.39a1.6,1.6,0,0,0,.23-.1l-.12-.12-.22.12S111,113.4,111,113.39Z"/><path class="cls-1" d="M6.61,87.69a.94.94,0,0,0-.23-.1s-.07.06-.11.1l.22.12Z"/><path class="cls-1" d="M14.57,86a.62.62,0,0,0-.22.1s.08.11.11.1a.62.62,0,0,0,.22-.1S14.6,85.94,14.57,86Z"/><path class="cls-1" d="M19.61,82.89l.12-.12a.77.77,0,0,0-.23-.1s-.07.06-.11.1Z"/><path class="cls-1" d="M22.86,81.89a1,1,0,0,0,.23-.11L23,81.67l-.22.11S22.84,81.89,22.86,81.89Z"/><path class="cls-1" d="M131.5,80.57a.77.77,0,0,0,.23-.1l-.12-.12-.22.12S131.47,80.58,131.5,80.57Z"/><path class="cls-1" d="M63.4,79.86l-.12-.21s-.11.08-.1.11a1.47,1.47,0,0,0,.1.22Z"/><path class="cls-1" d="M62.84,78.12a.91.91,0,0,0,.11.22l.12-.12L63,78S62.83,78.09,62.84,78.12Z"/><path class="cls-1" d="M24.88,71.71a.77.77,0,0,0,.23-.1s-.08-.11-.11-.1a1.15,1.15,0,0,0-.23.1S24.86,71.72,24.88,71.71Z"/><path class="cls-1" d="M22.53,70.84l0-.07s-.14.1-.13.14a1.11,1.11,0,0,0,.13.27l.08-.08,0,0,.12-.12-.12-.21Z"/><path class="cls-1" d="M34.64,99.61a1.47,1.47,0,0,0,.22-.1l-.12-.12-.21.12S34.61,99.61,34.64,99.61Z"/><path class="cls-1" d="M114.91,53.55s-.11.08-.1.11a.62.62,0,0,0,.1.22l.12-.12Z"/><path class="cls-1" d="M23.38,95.61l-.12-.21s-.11.08-.11.11a.91.91,0,0,0,.11.22Z"/><path class="cls-1" d="M121.19,93.5a.77.77,0,0,0-.23.1s.09.11.11.1a1.6,1.6,0,0,0,.23-.1S121.22,93.49,121.19,93.5Z"/><path class="cls-1" d="M112.67,92.06a1.47,1.47,0,0,0,.22-.1s-.08-.11-.11-.11a.91.91,0,0,0-.22.11S112.64,92.07,112.67,92.06Z"/><path class="cls-1" d="M96.36,135.81l-.12-.21s-.11.08-.1.11a1.47,1.47,0,0,0,.1.22Z"/><path class="cls-1" d="M34.59,131.44a2.29,2.29,0,0,0,.1.23l.12-.12-.12-.21S34.58,131.42,34.59,131.44Z"/><path class="cls-1" d="M42.37,127a2.29,2.29,0,0,0,.23-.1l-.12-.12-.22.12S42.34,127,42.37,127Z"/><path class="cls-1" d="M18.16,124.06a.91.91,0,0,0,.22-.11l-.12-.11-.21.11S18.13,124.06,18.16,124.06Z"/><path class="cls-1" d="M129.44,108.8a.62.62,0,0,0,.1.22l.12-.11-.12-.22S129.43,108.77,129.44,108.8Z"/><path class="cls-1" d="M108.64,66.07l-.12-.21s-.11.08-.1.11a.84.84,0,0,0,.1.22Z"/><path class="cls-1" d="M114.81,57.22s.06.07.1.11l.12-.22-.12-.11A.62.62,0,0,0,114.81,57.22Z"/><path class="cls-1" d="M10.14,98.52l-.12.21.12.12a.91.91,0,0,0,.11-.22S10.18,98.56,10.14,98.52Z"/><path class="cls-1" d="M22,96.44a1.5,1.5,0,0,0-.11-.22s-.11.08-.1.11a1.47,1.47,0,0,0,.1.22S22,96.47,22,96.44Z"/><path class="cls-1" d="M13.27,120.4a.62.62,0,0,0-.1-.22s-.11.08-.11.11a1.5,1.5,0,0,0,.11.22S13.28,120.43,13.27,120.4Z"/><path class="cls-1" d="M36.5,117.34l-.12-.11a.91.91,0,0,0-.11.22s.07.07.11.1Z"/><path class="cls-1" d="M36.16,116.78l-.12-.21s-.11.08-.11.11a1.5,1.5,0,0,0,.11.22Z"/><path class="cls-1" d="M110.94,115.36a.77.77,0,0,0,.1.23s.11-.09.11-.11a.91.91,0,0,0-.11-.22S110.93,115.34,110.94,115.36Z"/><path class="cls-1" d="M129,111.48l-.22-.11-.12.11a1,1,0,0,0,.23.11S129,111.52,129,111.48Z"/><path class="cls-1" d="M47.26,111.44l-.12-.12a.91.91,0,0,0-.11.22s.07.07.11.11Z"/><path class="cls-1" d="M28.84,15.33h-.41v.41C28.72,15.75,28.85,15.61,28.84,15.33Z"/><path class="cls-1" d="M70.51,38.85s0,0,0,0Z"/><path class="cls-1" d="M71.48,43.24v.11C71.51,43.3,71.51,43.26,71.48,43.24Z"/><path class="cls-1" d="M108.82,127.53s-.14.1-.13.13.12.27.15.26c.65-.15.55.39.69.72.44.21.92.05,1.38.1a2.46,2.46,0,0,0,1.27-.36,4.58,4.58,0,0,1,1.62,0,2.47,2.47,0,0,1,1.35-1c-.13-.36-.67,0-.76-.43.26-.46.93.17,1.15-.42a2.46,2.46,0,0,0-2,.26,3.73,3.73,0,0,0-1.16.59c-.42.43-1.08,0-1.44.53a.7.7,0,0,1-.9,0C109.68,127.31,109.22,127.62,108.82,127.53Zm4.92-.41.14.26-.14.15a1,1,0,0,1-.13-.28S113.69,127.17,113.74,127.12Z"/><path class="cls-1" d="M5.8,47.72h0s0,0,.07,0Z"/><path class="cls-1" d="M14.06,92.22h0Z"/><path class="cls-1" d="M92,68.31c-.24.66-.9.94-1.24,1.48v1l1.11-.13a2.5,2.5,0,0,1,.7-1.12,4.85,4.85,0,0,0,.58-1.08,2.74,2.74,0,0,0-.31-.29C92.4,67.83,92.18,67.82,92,68.31Z"/><path class="cls-1" d="M29,41.4c.48-.33.54-.29,1.23,0,.14.06.22.19.29.07.27-.44.71-.26,1.09-.31.08,0,.14-.16.18-.25s-.08-.14-.13-.14c-.47,0-.95.06-1.25-.41H28.82l-1.12,1.1C28.31,41.57,28.65,41.67,29,41.4Z"/><path class="cls-1" d="M8.1,44.12c.21-.1.53.05.62-.27l-.23-.28c0-.74.75-.58,1.09-1a3.06,3.06,0,0,0-1.44-.15c-.6.29-.53,1-1,1.39a1.71,1.71,0,0,0,.11.14C7.61,44.35,7.61,44.35,8.1,44.12Z"/><path class="cls-1" d="M61.63,15.55c-.08,0-.23.09-.31.18s-.47.28-.42.61c.31,0,.63,0,1,0a.32.32,0,0,1,.28.37l-1.21.64c.15.25.36.2.55.2.61,0,.62,0,.66-.81h0c.5-.09.68-.58,1-.83.15-.11.19-.19.2-.18l-.63-.58C62.2,15,62.09,15.64,61.63,15.55Z"/><path class="cls-1" d="M55.94,151.94c.24-.09.4-.44.78-.36a2.21,2.21,0,0,0,.81,0c.18,0,.33-.19.08-.38a.4.4,0,0,1-.16-.19l.17.09.12-.12a1.47,1.47,0,0,0-.22-.1s0,0-.05,0a.42.42,0,0,1,.11-.14c.08-.05.09-.18.13-.27a2.42,2.42,0,0,0-.35-.12c-.37-.06-.45.5-.85.4-.56-.14-.84.28-1.18.62Z"/><path class="cls-1" d="M49.11,147c.09-.5.78-.08.89-.54-.07-.2-.53-.27-.16-.59a.69.69,0,0,0,.2-.31.37.37,0,0,0-.23-.48c-.17-.05-.42-.08-.53.14s0,.63-.3.63c-.5,0-.67.39-1,.63l.83.41Z"/><path class="cls-1" d="M124.2,48.1a.49.49,0,0,0,.54-.14c.26-.3.56-.56.84-.84-.44-.55-.47-.57-.1-1.09.19-.26.07-.51.13-.75.28,0,.41-.13.4-.41a.35.35,0,0,0-.41.41c-.4,0-.5.39-.83.59v1.28a1.16,1.16,0,0,1-.41.14.34.34,0,0,0-.39.33A.39.39,0,0,0,124.2,48.1Z"/><path class="cls-1" d="M98.69,123.45c-.24.1-.18.36-.13.53a.35.35,0,0,0,.48.2,5.88,5.88,0,0,1,2.58-.94A3.26,3.26,0,0,0,98.69,123.45Z"/><path class="cls-1" d="M63.59,31.62a.27.27,0,0,1,.14.14c.1.17.21.2.29,0s.12-.27.07-.36c-.17-.35-.38-.7-.83-.73s-.37-.28-.4-.54c0-.09-.15-.16-.23-.23l-.58.57A5.94,5.94,0,0,0,63.59,31.62Z"/><path class="cls-1" d="M77.63,46.9c.33,0,.41.27.65.41.5-.65-.17-.87-.46-1.22-.45,0-.92-.12-1.36.12A1,1,0,0,0,77.63,46.9Z"/><path class="cls-1" d="M6.26,71.79c.89.57,1.4-.21,2.05-.37-.25-.39-.74-.33-.92-.47Z"/><path class="cls-1" d="M15.05,39.16h2.3c0-.06-.07-.27-.12-.27-.58-.06-1.16-.09-1.73-.12l-.45-.38A.57.57,0,0,0,15.05,39.16Z"/><path class="cls-1" d="M114.25,66.22c.26-.53.26-.54.14-.67-.31-.32-.63-.63-1.1-1.09C113.12,65.49,113.91,65.73,114.25,66.22Z"/><path class="cls-1" d="M9.41,52.86l-.31-.57-1.23.91A11.23,11.23,0,0,0,9.41,52.86Z"/><path class="cls-1" d="M63,38.52s0,.11,0,.14l1,1c.29-.28.31-.55,0-.81S63.42,38.14,63,38.52Z"/><path class="cls-1" d="M9.63,52c.3.25.64.09,1,.11.06,0,.21-.19.2-.28a1,1,0,0,0-.2-.5.37.37,0,0,0-.37,0C10,51.55,9.7,51.69,9.63,52Z"/><path class="cls-1" d="M12.3,35.5a.24.24,0,0,0,.14-.14c.08-.2,0-.25-.2-.2a.7.7,0,0,1-.7-.28c-.22-.23-.47-.18-.7,0A1.11,1.11,0,0,0,12.3,35.5Z"/><path class="cls-1" d="M116.59,68.13a1.15,1.15,0,0,0,1.18-.06l-.64-.63C117,67.69,116.63,67.8,116.59,68.13Z"/><path class="cls-1" d="M108.25,27c.12-.54.12-.54-.55-1.08C107.58,26.46,107.58,26.46,108.25,27Z"/><path class="cls-1" d="M13.2,35c-.59-.69-.59-.69-1.14-.49C12.6,35.18,12.6,35.18,13.2,35Z"/><path class="cls-1" d="M42.37,60.25h.82a1,1,0,0,0-.73-.79.35.35,0,0,0-.5.39C42.25,59.84,42.38,60,42.37,60.25Z"/><path class="cls-1" d="M24.61,93.91c-.67.54-.67.54-.55,1.07C24.73,94.44,24.73,94.44,24.61,93.91Z"/><path class="cls-1" d="M73.31,43.26a5.77,5.77,0,0,1,.47.44c.21-.4.24-.66,0-.8a.86.86,0,0,0-.52,0C73.05,43,73.08,43.06,73.31,43.26Z"/><path class="cls-1" d="M6.94,49.35c-.06,0-.18.21-.16.24.17.19.36.37.55.55,0,0,.12-.08.13-.13a1.18,1.18,0,0,0,0-.53C7.37,49.25,7.12,49.33,6.94,49.35Z"/><path class="cls-1" d="M48.26,53.3a.47.47,0,0,0,.67-.13c-.23-.17-.35-.48-.69-.54C48.06,52.86,48,53.12,48.26,53.3Z"/><path class="cls-1" d="M25.44,55.85c.18-.23.24-.49,0-.67a.47.47,0,0,0-.67.13C25,55.48,25.1,55.79,25.44,55.85Z"/><path class="cls-1" d="M115.3,67.44c-.28.08-.65-.2-.82.3.31,0,.31.49.77.43Z"/><path class="cls-1" d="M25.92,96.82c-.72-.2-.72-.2-.77.66A1.05,1.05,0,0,0,25.92,96.82Z"/><path class="cls-1" d="M12.92,50.82c.24.18.5.23.68,0a.47.47,0,0,0-.16-.69C13.35,50.41,12.94,50.46,12.92,50.82Z"/><path class="cls-1" d="M35.47,86.68c.07.33.37.46.56.68a.46.46,0,0,0,.12-.66C36,86.45,35.7,86.5,35.47,86.68Z"/><path class="cls-1" d="M44.91,56.07s.08.12.13.13a2.67,2.67,0,0,0,.4,0,1,1,0,0,0,.39,0c.08,0,.13-.16.16-.25s-.08-.13-.13-.13a4.28,4.28,0,0,0-.8,0C45,55.82,44.94,56,44.91,56.07Z"/><path class="cls-1" d="M53.92,103.68c.06.33.37.45.56.67a.46.46,0,0,0,.12-.66C54.41,103.45,54.15,103.49,53.92,103.68Z"/><path class="cls-1" d="M6.53,45.68c.29.11.58,0,.58-.3A2.1,2.1,0,0,0,7,44.84c-.23.23-.42.4-.59.6A.34.34,0,0,0,6.53,45.68Z"/><path class="cls-1" d="M87.09,18c0,.07.16.12.26.15s.13-.08.13-.13a6.94,6.94,0,0,0,0-.79c0-.06-.17-.12-.26-.15s-.13.08-.14.13a2.67,2.67,0,0,0,0,.4A1.27,1.27,0,0,0,87.09,18Z"/><path class="cls-1" d="M60.75,58.9c0-.1-.09-.25-.15-.26a7.12,7.12,0,0,0-.8,0s-.14.1-.13.13.08.23.15.26a1.33,1.33,0,0,0,.4,0,2.67,2.67,0,0,0,.4,0C60.67,59,60.76,58.93,60.75,58.9Z"/><path class="cls-1" d="M91.84,71.26a.46.46,0,0,0-.67.11c.23.19.35.49.69.55C92,71.69,92.09,71.44,91.84,71.26Z"/><path class="cls-1" d="M121.72,112.05a.27.27,0,0,0-.13.13.84.84,0,0,0-.08.34,1.53,1.53,0,0,0,.16.31c.08-.07.2-.13.23-.22a1.13,1.13,0,0,0,0-.37C122,112.05,121.91,112,121.72,112.05Z"/><path class="cls-1" d="M37.83,52.39s0-.12-.07-.12-.35-.07-.52-.12-.26,0-.19.19a.28.28,0,0,0,.12.14C37.45,52.62,37.78,52.57,37.83,52.39Z"/><path class="cls-1" d="M68.8,39.62c-.38-.06-.14.24-.18.37a.28.28,0,0,0,.24.38s.11-.19.16-.29,0-.14,0-.19S68.89,39.64,68.8,39.62Z"/><path class="cls-1" d="M17.37,39.39a.28.28,0,0,0,.12.14c.28.14.61.09.66-.09s0-.12-.07-.12-.35-.07-.52-.12S17.3,39.21,17.37,39.39Z"/><path class="cls-1" d="M39.52,55l.33-.14a.2.2,0,0,0,0-.13c-.16-.21-.61-.21-.67,0S39.31,55,39.52,55Z"/><path class="cls-1" d="M104.69,109.83a.49.49,0,0,0-.82,0A.5.5,0,0,0,104.69,109.83Z"/><path class="cls-1" d="M12.44,91c.21,0,.41,0,.61,0,0,0,.14-.09.13-.12s-.07-.25-.13-.26a3.09,3.09,0,0,0-.61,0Z"/><path class="cls-1" d="M65.74,34.15a.5.5,0,0,0,.82,0A.5.5,0,0,0,65.74,34.15Z"/><path class="cls-1" d="M115.67,67.44a.29.29,0,0,0,.39-.24s-.2-.11-.3-.16a.6.6,0,0,0-.19,0c-.1.06-.26.13-.27.22C115.24,67.63,115.54,67.4,115.67,67.44Z"/><path class="cls-1" d="M15.32,34.15a.5.5,0,0,0-.83,0A.5.5,0,0,0,15.32,34.15Z"/><path class="cls-1" d="M13.69,34.35l.33-.14a.2.2,0,0,0,0-.13c-.16-.21-.61-.21-.67,0S13.48,34.37,13.69,34.35Z"/><path class="cls-1" d="M12,91.27a2.51,2.51,0,0,0,0,.55.32.32,0,0,0,.4-.27,2,2,0,0,0,0-.54A.33.33,0,0,0,12,91.27Z"/><path class="cls-1" d="M115.29,68.86a.5.5,0,0,0,.82,0A.5.5,0,0,0,115.29,68.86Z"/><path class="cls-1" d="M47.09,56.61a.48.48,0,0,0,0,.81A.49.49,0,0,0,47.09,56.61Z"/><path class="cls-1" d="M9.93,36.14S9.74,36,9.64,36a.6.6,0,0,0-.19,0c-.1.06-.26.13-.27.22-.06.37.24.14.37.18A.28.28,0,0,0,9.93,36.14Z"/><path class="cls-1" d="M89.67,12.86a.2.2,0,0,0,.13,0c.06-.11.1-.22.15-.33s-.14-.43-.27-.35A.43.43,0,0,0,89.67,12.86Z"/><path class="cls-1" d="M74.23,77.33a.73.73,0,0,0-.35-.07.84.84,0,0,0-.31.16c.07.07.13.19.21.22a1.21,1.21,0,0,0,.38,0c.19.07.26,0,.19-.18A.24.24,0,0,0,74.23,77.33Z"/><path class="cls-1" d="M13.11,45.27a1.14,1.14,0,0,0,.37,0c.19.06.26,0,.19-.19a.25.25,0,0,0-.12-.13.89.89,0,0,0-.35-.08,1,1,0,0,0-.31.16C13,45.12,13,45.24,13.11,45.27Z"/><path class="cls-1" d="M112.24,121.72a.49.49,0,0,0,.65-.18s0-.12,0-.18a3.62,3.62,0,0,0-.57,0c-.08,0-.15.14-.2.23S112.19,121.71,112.24,121.72Z"/><path class="cls-1" d="M113.45,121.35a.32.32,0,0,0,.26-.4,2.52,2.52,0,0,0-.55,0,.34.34,0,0,0-.27.4A2.61,2.61,0,0,0,113.45,121.35Z"/><path class="cls-1" d="M103.4,46.23a.45.45,0,0,0-.68,0,.15.15,0,0,0,0,.13.45.45,0,0,0,.68,0S103.4,46.27,103.4,46.23Z"/><path class="cls-1" d="M75.79,46.9a.49.49,0,0,0,0-.81A.48.48,0,0,0,75.79,46.9Z"/><path class="cls-1" d="M36.06,51.74a1.21,1.21,0,0,0,.38,0c.19.07.26,0,.19-.18a.24.24,0,0,0-.12-.14.73.73,0,0,0-.35-.07.84.84,0,0,0-.31.16C35.92,51.59,36,51.71,36.06,51.74Z"/><path class="cls-1" d="M6.68,113.66a.27.27,0,0,0,.38-.23s-.19-.11-.29-.17-.14,0-.19,0-.26.13-.27.21C6.25,113.86,6.55,113.62,6.68,113.66Z"/><path class="cls-1" d="M109.21,44.47c.11,0,.23-.09.34-.15a.2.2,0,0,0,0-.13c-.16-.2-.61-.2-.67,0S109,44.49,109.21,44.47Z"/><path class="cls-1" d="M74.34,44.63a1.2,1.2,0,0,0,0-.38c.07-.19,0-.25-.19-.18a.25.25,0,0,0-.13.12.84.84,0,0,0-.08.34,1.3,1.3,0,0,0,.16.31C74.19,44.77,74.31,44.71,74.34,44.63Z"/><path class="cls-1" d="M104.69,24.44a.5.5,0,0,0-.82,0A.5.5,0,0,0,104.69,24.44Z"/><path class="cls-1" d="M115.9,60.16a.48.48,0,0,0,0-.81A.49.49,0,0,0,115.9,60.16Z"/><path class="cls-1" d="M13.51,93.85c-.08,0-.15.14-.2.23s.07.11.13.13a.5.5,0,0,0,.64-.19.24.24,0,0,0,0-.17A2.71,2.71,0,0,0,13.51,93.85Z"/><path class="cls-1" d="M104.33,135.36s.07.11.12.12a.49.49,0,0,0,.65-.18.24.24,0,0,0,0-.17,2.18,2.18,0,0,0-.57,0C104.45,135.14,104.38,135.27,104.33,135.36Z"/><path class="cls-1" d="M43.19,16.34a.5.5,0,0,0-.82,0A.5.5,0,0,0,43.19,16.34Z"/><path class="cls-1" d="M26,16.7a1.14,1.14,0,0,0,0-.37c.07-.19,0-.26-.19-.19a.24.24,0,0,0-.13.13.81.81,0,0,0-.08.34,1.84,1.84,0,0,0,.16.31C25.81,16.85,25.93,16.79,26,16.7Z"/><path class="cls-1" d="M28.42,16.3a1.19,1.19,0,0,0,0-.38c.07-.18,0-.25-.19-.18a.25.25,0,0,0-.13.12.84.84,0,0,0-.08.34,1.3,1.3,0,0,0,.16.31C28.27,16.44,28.39,16.38,28.42,16.3Z"/><path class="cls-1" d="M54.2,101.8s0-.11,0-.14a.45.45,0,0,0-.68,0,.15.15,0,0,0,0,.13A.45.45,0,0,0,54.2,101.8Z"/><path class="cls-1" d="M42.79,18.35a.32.32,0,0,0,.12.14c.28.13.61.09.66-.09s0-.12-.07-.13-.35-.06-.52-.11S42.72,18.17,42.79,18.35Z"/><path class="cls-1" d="M42.44,107.74a.15.15,0,0,0,0,.13.45.45,0,0,0,.68,0c0-.05,0-.11,0-.14A.45.45,0,0,0,42.44,107.74Z"/><path class="cls-1" d="M94,66.93a.5.5,0,0,0-.82,0A.5.5,0,0,0,94,66.93Z"/><path class="cls-1" d="M102.64,107.4a.5.5,0,0,0,.82,0A.5.5,0,0,0,102.64,107.4Z"/><path class="cls-1" d="M41.62,58.49a.45.45,0,0,0,.68,0s0-.09,0-.13a.45.45,0,0,0-.68,0A.15.15,0,0,0,41.62,58.49Z"/><path class="cls-1" d="M126.09,107.34c-.06.22.14.28.34.26l.34-.14a.2.2,0,0,0,0-.13C126.6,107.12,126.15,107.12,126.09,107.34Z"/><path class="cls-1" d="M23.93,72.8a.17.17,0,0,0,0,.17.75.75,0,0,0,.24.19s.08-.08.13-.13a1.1,1.1,0,0,0-.2-.23A.17.17,0,0,0,23.93,72.8Z"/><path class="cls-1" d="M5.47,70.57a2.24,2.24,0,0,0-.27-.13s-.09.09-.14.13l.27.14Z"/><path class="cls-1" d="M8.34,69c-.1-.14-.21-.3-.36-.06,0,0,.12.15.18.23s.15,0,.18,0A.17.17,0,0,0,8.34,69Z"/><path class="cls-1" d="M8.59,69.51s.08-.07.13-.12a1.1,1.1,0,0,0-.2-.23.12.12,0,0,0-.17.17A.61.61,0,0,0,8.59,69.51Z"/><path class="cls-1" d="M100.59,68.14a1.59,1.59,0,0,0-.27-.12s-.09.08-.14.12l.27.15Z"/><path class="cls-1" d="M23.92,72.79a.17.17,0,0,0,0-.17c-.1-.13-.21-.3-.36-.06,0,0,.12.16.18.24S23.89,72.82,23.92,72.79Z"/><path class="cls-1" d="M24.27,71l-.14-.26c-.05,0-.14.1-.13.14a1.11,1.11,0,0,0,.13.27Z"/><path class="cls-1" d="M29.53,93.51a1.17,1.17,0,0,0-.28.13c.05,0,.11.13.14.12a1.31,1.31,0,0,0,.27-.12S29.56,93.5,29.53,93.51Z"/><path class="cls-1" d="M9.16,91.61l.27.15.14-.15a1.31,1.31,0,0,0-.27-.12S9.21,91.57,9.16,91.61Z"/><path class="cls-1" d="M131.21,91.49a1.39,1.39,0,0,0-.28.12s.1.14.14.13a1.11,1.11,0,0,0,.27-.13S131.24,91.48,131.21,91.49Z"/><path class="cls-1" d="M12,91.82a.19.19,0,0,0-.18,0c-.13.1-.3.21,0,.35,0,0,.15-.11.23-.17S12.06,91.85,12,91.82Z"/><path class="cls-1" d="M118.16,54.29l.26.15.15-.15a1.39,1.39,0,0,0-.28-.12S118.2,54.25,118.16,54.29Z"/><path class="cls-1" d="M114.06,55.1l.14.15.27-.15s-.1-.13-.14-.13S114.15,55.06,114.06,55.1Z"/><path class="cls-1" d="M25,97.49c-.13.09-.3.21,0,.35,0,0,.15-.11.23-.18s0-.14,0-.17A.19.19,0,0,0,25,97.49Z"/><path class="cls-1" d="M14.08,84.73s-.1-.13-.13-.12a1.69,1.69,0,0,0-.28.12c.05,0,.11.14.14.13A1,1,0,0,0,14.08,84.73Z"/><path class="cls-1" d="M74.6,78s.08-.07.13-.12a1.1,1.1,0,0,0-.2-.23.12.12,0,0,0-.17.17A.61.61,0,0,0,74.6,78Z"/><path class="cls-1" d="M122.66,77.92c0-.09-.09-.18-.13-.27s-.14.1-.13.14a1.11,1.11,0,0,0,.13.27S122.66,78,122.66,77.92Z"/><path class="cls-1" d="M42.45,81a1,1,0,0,0,.13.27l.14-.14-.14-.26S42.44,81,42.45,81Z"/><path class="cls-1" d="M22.9,91s-.14.1-.13.13a1,1,0,0,0,.13.27l.15-.14Z"/><path class="cls-1" d="M132.16,88c.05,0,.1.14.14.13a1.11,1.11,0,0,0,.27-.13s-.1-.13-.13-.12A1.39,1.39,0,0,0,132.16,88Z"/><path class="cls-1" d="M8.75,36.2c-.1-.14-.21-.3-.36-.06,0,0,.12.15.18.23h.18C8.75,36.31,8.78,36.24,8.75,36.2Z"/><path class="cls-1" d="M25.7,36.3a1,1,0,0,0,.27-.13s-.1-.13-.13-.12a1.69,1.69,0,0,0-.28.12C25.61,36.22,25.67,36.31,25.7,36.3Z"/><path class="cls-1" d="M8.89,36.7c.25,0,.29-.13.27-.33H8.75C8.8,36.49,8.83,36.68,8.89,36.7Z"/><path class="cls-1" d="M67.32,31l-.14-.26c-.05,0-.14.1-.13.13a1,1,0,0,0,.13.27Z"/><path class="cls-1" d="M120.33,31.37l.15.15c0-.09.1-.18.13-.27s-.09-.09-.13-.14Z"/><path class="cls-1" d="M69.77,39.88a1.66,1.66,0,0,0-.13-.27l-.15.15.15.26C69.68,40,69.77,39.92,69.77,39.88Z"/><path class="cls-1" d="M51.53,41.16A2.24,2.24,0,0,0,51.8,41l-.14-.15-.27.15S51.49,41.16,51.53,41.16Z"/><path class="cls-1" d="M67.87,41a1.11,1.11,0,0,0,.13.27s.13-.1.13-.13a1.34,1.34,0,0,0-.13-.27S67.86,40.93,67.87,41Z"/><path class="cls-1" d="M5.9,48.53a.17.17,0,0,0,0,.17.61.61,0,0,0,.24.18s.08-.07.13-.12a1.5,1.5,0,0,0-.2-.23A.17.17,0,0,0,5.9,48.53Z"/><path class="cls-1" d="M88.06,42.44a.75.75,0,0,0,.19-.24s-.08-.08-.13-.13a1.5,1.5,0,0,0-.23.2.12.12,0,1,0,.17.17Z"/><path class="cls-1" d="M87.47,42.85c.29,0,.42-.12.41-.41A.35.35,0,0,0,87.47,42.85Z"/><path class="cls-1" d="M5.83,46.36l-.14-.26c-.05,0-.14.1-.13.13a1.11,1.11,0,0,0,.13.27Z"/><path class="cls-1" d="M69.57,20.11a1.11,1.11,0,0,0,.27-.13l-.14-.14-.27.14C69.48,20,69.53,20.12,69.57,20.11Z"/><path class="cls-1" d="M47.29,21.6s-.1-.13-.13-.12a1.69,1.69,0,0,0-.28.12l.15.15Z"/><path class="cls-1" d="M98.13,23.63c0-.05-.1-.14-.13-.13a1,1,0,0,0-.28.13l.15.14Z"/><path class="cls-1" d="M26.15,16.14a1.06,1.06,0,0,0,.19-.24s-.08-.08-.13-.13A1.45,1.45,0,0,0,26,16a.17.17,0,0,0,0,.17A.2.2,0,0,0,26.15,16.14Z"/><path class="cls-1" d="M42.37,17.76c0-.06,0-.14,0-.18s-.21-.3-.36,0c0,0,.12.15.18.23Z"/><path class="cls-1" d="M42.78,18.16c0-.28-.12-.41-.41-.4C42.36,18,42.5,18.17,42.78,18.16Z"/><path class="cls-1" d="M45,18.49a1.31,1.31,0,0,0,.27-.12c0-.05-.1-.14-.13-.13a1.17,1.17,0,0,0-.28.13C44.88,18.41,44.93,18.5,45,18.49Z"/><path class="cls-1" d="M88.84,18.49a1.59,1.59,0,0,0,.27-.12L89,18.22l-.27.15S88.8,18.5,88.84,18.49Z"/><path class="cls-1" d="M60.82,29.89a.17.17,0,0,0,0-.17c-.1-.13-.21-.3-.36,0,0,0,.12.15.18.23S60.79,29.92,60.82,29.89Z"/><path class="cls-1" d="M61.23,30.3c0-.28-.12-.41-.41-.4C60.81,30.18,61,30.31,61.23,30.3Z"/><path class="cls-1" d="M104.9,30.3,105,30l-.14-.14a1.11,1.11,0,0,0-.13.27S104.85,30.26,104.9,30.3Z"/><path class="cls-1" d="M61.24,30.48a.61.61,0,0,0,.24.18s.08-.07.13-.12a1.1,1.1,0,0,0-.2-.23.12.12,0,0,0-.17.17Z"/><path class="cls-1" d="M63.9,27.88l.14-.26-.14-.15a1.11,1.11,0,0,0-.13.27S63.85,27.83,63.9,27.88Z"/><path class="cls-1" d="M57.81,58.69l-.27.14c.05.05.1.14.14.13a1,1,0,0,0,.27-.13Z"/><path class="cls-1" d="M80.71,55l.14-.26-.14-.14a1,1,0,0,0-.13.27S80.66,55,80.71,55Z"/><path class="cls-1" d="M43.24,55.16s.12.16.18.23h.18c0-.06,0-.13,0-.17S43.39,54.92,43.24,55.16Z"/><path class="cls-1" d="M45,55.32a1,1,0,0,0,.27-.13s-.1-.13-.13-.12a1.69,1.69,0,0,0-.28.12C44.88,55.24,44.93,55.33,45,55.32Z"/><path class="cls-1" d="M43.61,55.57a.75.75,0,0,0,.24.19s.08-.08.13-.13a1.1,1.1,0,0,0-.2-.23.12.12,0,0,0-.17.17Z"/><path class="cls-1" d="M70.33,56.88s.08.09.13.13l.14-.26-.14-.14A1.11,1.11,0,0,0,70.33,56.88Z"/><path class="cls-1" d="M93.15,65,93,64.7c-.05,0-.14.1-.13.14a1.11,1.11,0,0,0,.13.27Z"/><path class="cls-1" d="M43.6,60.66c0-.28-.12-.42-.41-.41A.35.35,0,0,0,43.6,60.66Z"/><path class="cls-1" d="M41,63.16a1.17,1.17,0,0,0-.28.13l.15.14.26-.14S41,63.15,41,63.16Z"/><path class="cls-1" d="M126.43,45.05a.61.61,0,0,0,.24.18s.08-.07.13-.12a1.1,1.1,0,0,0-.2-.23.12.12,0,0,0-.17.17Z"/><path class="cls-1" d="M76,45.48l-.14-.14-.27.14c0,.05.1.13.14.13A1.11,1.11,0,0,0,76,45.48Z"/><path class="cls-1" d="M119.8,42.71l-.14-.27c0,.05-.14.1-.13.14a1.11,1.11,0,0,0,.13.27Z"/><path class="cls-1" d="M128,42.71l-.14-.27c0,.05-.14.1-.13.14a1.11,1.11,0,0,0,.13.27Z"/><path class="cls-1" d="M87.29,42.85c-.13.1-.3.21-.05.36,0,0,.15-.12.23-.18s0-.14,0-.17A.22.22,0,0,0,87.29,42.85Z"/><path class="cls-1" d="M58.85,43.39a1.11,1.11,0,0,0,.13.27l.14-.14L59,43.25S58.84,43.35,58.85,43.39Z"/><path class="cls-1" d="M73.12,43.43c0-.06,0-.14,0-.17a.19.19,0,0,0-.18,0c-.13.09-.3.21,0,.35C72.92,43.63,73,43.5,73.12,43.43Z"/><path class="cls-1" d="M31.89,50.49s.15-.11.23-.18,0-.14,0-.17a.19.19,0,0,0-.18,0C31.81,50.23,31.64,50.35,31.89,50.49Z"/><path class="cls-1" d="M36.63,51.75a.35.35,0,0,0,.41.41C37.05,51.88,36.92,51.74,36.63,51.75Z"/><path class="cls-1" d="M12,52.36l-.14-.14-.27.14c.05,0,.11.13.14.13A1.34,1.34,0,0,0,12,52.36Z"/><path class="cls-1" d="M32.3,50.13a.75.75,0,0,0,.19-.24s-.08-.08-.13-.13a1.5,1.5,0,0,0-.23.2.12.12,0,0,0,.17.17Z"/><path class="cls-1" d="M42.78,49.93l.27.15.14-.15a1.31,1.31,0,0,0-.27-.12S42.83,49.89,42.78,49.93Z"/><path class="cls-1" d="M56,108.68s.08.09.13.13l.14-.26-.14-.14A1.11,1.11,0,0,0,56,108.68Z"/><path class="cls-1" d="M29.33,110.7s.08.09.13.14l.14-.26-.14-.15A1.11,1.11,0,0,0,29.33,110.7Z"/><path class="cls-1" d="M4.25,114.88a.17.17,0,0,0,.17,0,.75.75,0,0,0,.19-.24s-.08-.08-.13-.13a1.5,1.5,0,0,0-.23.2A.17.17,0,0,0,4.25,114.88Z"/><path class="cls-1" d="M29.33,116.37s.08.09.13.13l.14-.26-.14-.14A1,1,0,0,0,29.33,116.37Z"/><path class="cls-1" d="M90.59,11.72c-.14.1-.31.21-.06.36,0,0,.16-.12.24-.18s0-.14,0-.17A.2.2,0,0,0,90.59,11.72Z"/><path class="cls-1" d="M6.06,114s.15-.12.23-.18,0-.14,0-.17a.22.22,0,0,0-.18,0C6,113.77,5.81,113.88,6.06,114Z"/><path class="cls-1" d="M119,113.94c0-.09-.09-.18-.13-.27s-.14.1-.13.13a1,1,0,0,0,.13.27S119,114,119,113.94Z"/><path class="cls-1" d="M28.08,103.29l.15.26s.13-.1.13-.13a1.34,1.34,0,0,0-.13-.27Z"/><path class="cls-1" d="M25,99.1s.13-.1.13-.13A1.34,1.34,0,0,0,25,98.7l-.15.14Z"/><path class="cls-1" d="M25.92,99l-.15-.26c-.05,0-.14.1-.13.13a1.11,1.11,0,0,0,.13.27Z"/><path class="cls-1" d="M115.56,58.21a1.11,1.11,0,0,0-.27.13l.14.14.27-.14C115.65,58.29,115.6,58.2,115.56,58.21Z"/><path class="cls-1" d="M104.14,107.14l.14-.15a1.59,1.59,0,0,0-.27-.12s-.09.08-.14.12Z"/><path class="cls-1" d="M122.66,107.06c0-.09-.09-.18-.13-.27s-.14.1-.13.13a1,1,0,0,0,.13.27S122.66,107.1,122.66,107.06Z"/><path class="cls-1" d="M105,107.46l-.14-.27c-.05,0-.14.1-.13.14a1.11,1.11,0,0,0,.13.27Z"/><path class="cls-1" d="M128.06,107.4a1.11,1.11,0,0,0-.27-.13s-.09.08-.14.13l.27.14Z"/><path class="cls-1" d="M122,107.73a1,1,0,0,0,.13.27l.14-.14-.14-.26C122.07,107.64,122,107.7,122,107.73Z"/><path class="cls-1" d="M43.81,108.41s.13-.1.13-.13a1.43,1.43,0,0,0-.13-.28l-.15.15Z"/><path class="cls-1" d="M113.44,62.59l.15-.26-.15-.15a1.66,1.66,0,0,0-.13.27S113.4,62.54,113.44,62.59Z"/><path class="cls-1" d="M125.2,104.76a.17.17,0,0,0,.17,0,.75.75,0,0,0,.19-.24s-.08-.08-.13-.12a1.06,1.06,0,0,0-.23.19A.17.17,0,0,0,125.2,104.76Z"/><path class="cls-1" d="M124.78,105.17c.29,0,.42-.12.41-.4C124.91,104.76,124.77,104.89,124.78,105.17Z"/><path class="cls-1" d="M124.37,105.58c.29,0,.42-.13.41-.41A.35.35,0,0,0,124.37,105.58Z"/><path class="cls-1" d="M124.14,105.93s.15-.11.23-.17,0-.15,0-.18a.19.19,0,0,0-.18,0C124.06,105.67,123.89,105.79,124.14,105.93Z"/><path class="cls-1" d="M97.08,124.19a.88.88,0,0,0,.19-.24s-.08-.08-.13-.13a1.1,1.1,0,0,0-.23.2.12.12,0,0,0,.17.17Z"/><path class="cls-1" d="M96.67,124.55s.15-.12.23-.18v-.18c-.06,0-.14,0-.18,0S96.42,124.41,96.67,124.55Z"/><path class="cls-1" d="M119.22,127a.75.75,0,0,0,.19-.24s-.08-.08-.13-.13a1.5,1.5,0,0,0-.23.2.12.12,0,1,0,.17.17Z"/><path class="cls-1" d="M91,12.53s-.13.1-.13.13a2.24,2.24,0,0,0,.13.27l.15-.14Z"/><path class="cls-1" d="M113.89,121a.75.75,0,0,0,.19-.24s-.08-.08-.13-.13a1.5,1.5,0,0,0-.23.2.12.12,0,0,0,.17.17Z"/><path class="cls-1" d="M105.28,135.11a.75.75,0,0,0,.19-.24s-.08-.08-.13-.12a1.06,1.06,0,0,0-.23.19.12.12,0,1,0,.17.17Z"/><path class="cls-1" d="M119,127a.35.35,0,0,0-.41.41C118.92,127.44,119.05,127.3,119,127Z"/><path class="cls-1" d="M85.22,143.53c.13.11.46.05.5-.11s0-.21,0-.29c.28-.52.29-.52.29-.77v-1.91c.08-.08.15-.14.22-.22a.56.56,0,0,1,.5-.24c.06,0,.16-.12.18-.19a.64.64,0,0,1,.14-.39c.18-.19.16-.29,0-.3a.51.51,0,0,0-.3,0c-.12.07-.21.23-.33.28s-.29,0-.4.13-.4.3-.33.6l-.3.33v.88l-.31.32c0,.59,0,1.18,0,1.77C85.13,143.46,85.19,143.5,85.22,143.53Z"/><path class="cls-1" d="M66.36,136.12h-1.2l-.33.32a.34.34,0,0,0,0,.51c.18.15.29.4.6.37.07,0,.15.1.23.15.29.2.33.21.62-.05a.49.49,0,0,1,.25-.12c.32-.06.31-.07.33-.35a.65.65,0,0,0-.26-.64A2,2,0,0,1,66.36,136.12Z"/><path class="cls-1" d="M37.05,25.69c.2.12.08.37.21.5.3.32.62.63.94.93.06.05.18,0,.27.06h.15c.36,0,.38,0,.39-.45l-1.38-1.34a3.16,3.16,0,0,1-.43,0,.25.25,0,0,0-.26.1C36.9,25.55,36.94,25.63,37.05,25.69Z"/><path class="cls-1" d="M98.82,81.5h1.34c.18,0,.31-.26.23-.44a.27.27,0,0,0-.1-.11c-.29-.14-.71.1-.92-.3,0-.05-.12,0-.2.11a.8.8,0,0,1-.24.14s-.1,0-.14,0-.22.13-.22.32S98.66,81.5,98.82,81.5Z"/><path class="cls-1" d="M34.05,117.66a.35.35,0,0,0-.27,0c-.08,0-.2.1-.21.16,0,.24,0,.49,0,.73s.09.29.24.29a3.23,3.23,0,0,0,.44,0c.14,0,.23-.12.23-.29V118A3.89,3.89,0,0,0,34.05,117.66Z"/><path class="cls-1" d="M72.9,47c-.05.05,0,.18,0,.27s.17.2.33.2.21,0,.24-.13a.84.84,0,0,1,.2-.51,9.9,9.9,0,0,0,.73-.72s0-.13,0-.13h-.47C73.58,46.31,73.23,46.65,72.9,47Z"/><path class="cls-1" d="M126.7,42.7a.22.22,0,0,0,.25-.1c.09-.16,0-.36.19-.5s.14-.18,0-.3l-.3-.29-.45.44v.53C126.4,42.61,126.53,42.68,126.7,42.7Z"/><path class="cls-1" d="M69.45,58.83c-.19,0-.28.26-.19.44a.19.19,0,0,0,.1.1c.32.06.66.14.9-.21a1.75,1.75,0,0,1,.19-.2L70,58.5A.62.62,0,0,1,69.45,58.83Z"/><path class="cls-1" d="M108.06,48.67h.79s0,.07,0,.13a.35.35,0,0,0,.18.13s.09-.07.08-.08a.35.35,0,0,0-.13-.18c-.06,0-.11,0-.13,0s0-.11,0-.14-.25-.34-.42-.4-.46-.11-.61-.32c0,0-.09,0-.14,0a.27.27,0,0,0-.26.08c-.08.07,0,.12,0,.21S107.88,48.48,108.06,48.67Z"/><path class="cls-1" d="M81.43,60.85c.07,0,.13,0,.21-.09s.22-.2.3-.32a.45.45,0,0,0,0-.28c0-.11-.22-.19-.38-.15a.38.38,0,0,0-.21.16.66.66,0,0,0,0,.28.75.75,0,0,1,0,.15A.21.21,0,0,0,81.43,60.85Z"/><path class="cls-1" d="M121.42,93.42c0,.06-.13.14-.12.2s.12.13.23.12h.29c.25,0,.33-.07.34-.31v-.28h-.44Z"/><path class="cls-1" d="M13.3,52.25a.27.27,0,0,0-.3.23c0,.16.05.35.16.36s.28.06.4-.09.21-.2.3-.31,0-.07,0-.1-.07-.08-.11-.09Z"/><path class="cls-1" d="M73.54,57.93a1.09,1.09,0,0,0-.44,0c-.08,0-.15.09-.23.14l.42.41a.19.19,0,0,0,.13,0,1.28,1.28,0,0,0,.27,0,.42.42,0,0,0,.08-.39A.37.37,0,0,0,73.54,57.93Z"/><path class="cls-1" d="M114.64,71.19a.21.21,0,0,0,.09-.25v-.29c0-.22-.14-.32-.38-.29s-.33.3-.22.44.21.2.3.31S114.57,71.24,114.64,71.19Z"/><path class="cls-1" d="M109.46,82.62c0,.16.05.36.15.36s.29.06.41-.09.2-.2.3-.31,0-.06,0-.1-.07-.08-.11-.08h-.44C109.58,82.39,109.48,82.47,109.46,82.62Z"/><path class="cls-1" d="M9.56,81.17c-.29.28-.19.56-.13.83,0,.1.14.1.25.1s.2,0,.25-.11a.37.37,0,0,0,0-.39C9.82,81.45,9.68,81.31,9.56,81.17Z"/><path class="cls-1" d="M83.84,79.71c.18,0,.32-.32.22-.45s-.22-.2-.31-.31-.14-.13-.21-.08a.23.23,0,0,0-.08.26,1.41,1.41,0,0,1,0,.29C83.42,79.62,83.6,79.74,83.84,79.71Z"/><path class="cls-1" d="M88,63.81c0,.24.07.38.3.38h.29a.23.23,0,0,0,.26-.09c0-.07,0-.13-.09-.21s-.2-.21-.31-.3A.33.33,0,0,0,88,63.81Z"/><path class="cls-1" d="M26.91,110.9c-.1-.11-.2-.21-.31-.31s-.28-.19-.6,0l.31.3C26.52,111.1,26.59,111.1,26.91,110.9Z"/><path class="cls-1" d="M87.38,128.06c.23,0,.34-.13.31-.37s-.12-.23-.3-.23-.34.13-.31.37A.27.27,0,0,0,87.38,128.06Z"/><path class="cls-1" d="M84,20.67c0,.23.13.33.37.3a.26.26,0,0,0,.23-.29c0-.23-.13-.33-.37-.3S84,20.5,84,20.67Z"/><path class="cls-1" d="M112.62,112.53c.11.09.21.2.33.32.1-.1.19-.22.29-.31s.14-.14.1-.2a.21.21,0,0,0-.25-.1,1.4,1.4,0,0,1-.29,0,.22.22,0,0,0-.25.09C112.49,112.4,112.52,112.45,112.62,112.53Z"/><path class="cls-1" d="M38.4,130.67c0-.15-.12-.23-.3-.23s-.33.13-.3.37.12.23.3.23S38.43,130.91,38.4,130.67Z"/><path class="cls-1" d="M124.68,61.55a.23.23,0,0,0-.11.25.88.88,0,0,1,0,.28.24.24,0,0,0,.09.26c.07,0,.12,0,.2-.08s.21-.21.33-.33c-.11-.09-.22-.18-.32-.28S124.74,61.52,124.68,61.55Z"/><path class="cls-1" d="M104.92,75.6a.36.36,0,0,0-.15-.37.32.32,0,0,0-.45.37c0,.15.13.23.31.23S104.91,75.75,104.92,75.6Z"/><path class="cls-1" d="M110.07,49.86h.29a.22.22,0,0,0,.25-.09c0-.07,0-.13-.09-.21a2.83,2.83,0,0,1-.3-.3c-.11.11-.2.21-.31.3s-.14.14-.09.21A.22.22,0,0,0,110.07,49.86Z"/><path class="cls-1" d="M119.44,94c.18,0,.28-.08.3-.23a.34.34,0,0,0-.16-.36c-.27-.11-.49.07-.44.37C119.16,94,119.26,94,119.44,94Z"/><path class="cls-1" d="M102.88,104.18a.31.31,0,0,0,0-.6.34.34,0,0,0-.37.16C102.4,104,102.58,104.22,102.88,104.18Z"/><path class="cls-1" d="M112,97.91s.08-.06.1-.1a.12.12,0,0,0,0-.1c-.11-.14-.24-.28-.36-.42a.37.37,0,0,0-.12.53C111.73,98,111.89,97.9,112,97.91Z"/><path class="cls-1" d="M106.13,47v.14c0,.23.1.31.33.32a.23.23,0,0,0,.24-.12.1.1,0,0,0,0-.09l-.3-.3c-.07-.09-.14-.13-.24-.09S106.13,47,106.13,47Z"/><path class="cls-1" d="M105.89,46.79a.19.19,0,0,0,.24.08s0-.09,0-.13c0-.43-.1-.52-.46-.44,0,0-.1.08-.1.09s.14.2.16.24Z"/><path class="cls-1" d="M74.72,45.38c-.24,0-.33.08-.34.32v.14s0,.13,0,.14a.19.19,0,0,0,.24-.09l.3-.3a.1.1,0,0,0,0-.09A.22.22,0,0,0,74.72,45.38Z"/><path class="cls-1" d="M49.12,92.26s-.1.08-.09.09.13.21.15.24.14.12.16.16a.19.19,0,0,0,.25.08s0-.08,0-.13C49.58,92.28,49.48,92.18,49.12,92.26Z"/><path class="cls-1" d="M32.35,57.92c-.17,0-.28.08-.3.22a.39.39,0,0,0,.18.39,2.7,2.7,0,0,1,.28-.31c.09-.08.13-.14.09-.2A.21.21,0,0,0,32.35,57.92Z"/><path class="cls-1" d="M123,93s-.06-.09-.1-.09a2.65,2.65,0,0,0-.56,0c-.08,0-.16.09-.22.15s-.13.14.29.14a2.06,2.06,0,0,0,.43,0C122.94,93.12,123,93,123,93Z"/><path class="cls-1" d="M78.16,80.31s-.07.06-.1.1a.1.1,0,0,0,0,.09l.36.43c.22-.18.24-.35.13-.53S78.3,80.31,78.16,80.31Z"/><path class="cls-1" d="M82.55,136.94a.36.36,0,0,0,.16.37l.19-.2L83,137q.15-.1.09-.21c-.06-.09-.14-.1-.26-.09S82.56,136.79,82.55,136.94Z"/><path class="cls-1" d="M94.79,30.75c.11,0,.15-.13.1-.18s-.25-.28-.39-.43c-.06.1-.14.18-.15.26C94.3,30.69,94.48,30.83,94.79,30.75Z"/><path class="cls-1" d="M106.11,89.13a.73.73,0,0,0,0-.09c-.11-.13-.26-.06-.39-.08s-.19,0-.14.14a.22.22,0,0,0,.09.1C105.81,89.3,106.08,89.26,106.11,89.13Z"/><path class="cls-1" d="M115.75,88.86s0-.06,0-.1-.06-.09-.1-.09a1,1,0,0,0-.29,0s-.08.06-.11.1a.16.16,0,0,0,0,.1C115.32,89,115.65,89,115.75,88.86Z"/><path class="cls-1" d="M105,88.78c0,.09.12.17.3.18h.14c.14,0,.19,0,.14-.14a.43.43,0,0,0-.09-.1.34.34,0,0,0-.12-.06C105.17,88.63,105,88.7,105,88.78Z"/><path class="cls-1" d="M100.38,88.66a.2.2,0,0,0-.25.1c0,.1.08.2.26.2a.75.75,0,0,0,.15,0,.24.24,0,0,0,.1-.1c0-.07,0-.14-.11-.2S100.43,88.67,100.38,88.66Z"/><path class="cls-1" d="M122.16,78.59s0-.11,0-.15-.1-.15-.15-.23c-.05.08-.11.15-.15.23a.17.17,0,0,0,0,.14,1.82,1.82,0,0,0,.15.23Z"/><path class="cls-1" d="M114.05,84a.12.12,0,0,0,0,.1.33.33,0,0,0,.5,0,.17.17,0,0,0,0-.1C114.44,83.83,114.11,83.84,114.05,84Z"/><path class="cls-1" d="M126,113.93s0-.08,0-.1-.43-.15-.49,0a.12.12,0,0,0,0,.1A.33.33,0,0,0,126,113.93Z"/><path class="cls-1" d="M117.63,94.63a.65.65,0,0,0,.14,0,.35.35,0,0,0,.11-.1c0-.07,0-.14-.12-.2s-.1,0-.14,0a.2.2,0,0,0-.25.1C117.32,94.54,117.44,94.63,117.63,94.63Z"/><path class="cls-1" d="M116.42,94.18c0,.08.21.17.37.15a.26.26,0,0,0,.12,0,.5.5,0,0,0,.11-.1l-.11-.1a.17.17,0,0,0-.12,0,1.26,1.26,0,0,0-.27,0A.19.19,0,0,0,116.42,94.18Z"/><path class="cls-1" d="M130,92.74s0-.08,0-.1-.43-.15-.49,0a.12.12,0,0,0,0,.1C129.57,92.89,129.9,92.89,130,92.74Z"/><path class="cls-1" d="M106.67,59c.1.05.19-.07.2-.26a.33.33,0,0,0,0-.14.24.24,0,0,0-.1-.1c-.07,0-.14,0-.19.11s0,.1,0,.14A.19.19,0,0,0,106.67,59Z"/><path class="cls-1" d="M111.82,99.91a.17.17,0,0,0,0-.1s-.06-.1-.1-.1a.71.71,0,0,0-.29,0s-.08.05-.11.09a.16.16,0,0,0,0,.1C111.39,100.05,111.72,100.05,111.82,99.91Z"/><path class="cls-1" d="M129.66,98.61a.33.33,0,0,0-.5,0,.11.11,0,0,0,0,.1.34.34,0,0,0,.5,0S129.68,98.63,129.66,98.61Z"/><path class="cls-1" d="M104.39,98.21h-.14a1.82,1.82,0,0,0-.23.15,1.82,1.82,0,0,0,.23.15.17.17,0,0,0,.14,0,1.82,1.82,0,0,0,.23-.15Z"/><path class="cls-1" d="M7.86,50.32c-.05-.11-.13-.15-.2-.11a.24.24,0,0,0-.1.1.65.65,0,0,0,0,.14c0,.19.1.31.2.26a.19.19,0,0,0,.1-.25S7.88,50.36,7.86,50.32Z"/><path class="cls-1" d="M86.27,53.39h.11s.09-.07.09-.11a.66.66,0,0,0,0-.28s0-.08-.09-.11a.12.12,0,0,0-.1,0C86.13,53,86.12,53.29,86.27,53.39Z"/><path class="cls-1" d="M22.63,50.65a.17.17,0,0,0,0-.1c-.1-.14-.43-.14-.5,0a.11.11,0,0,0,0,.1A.33.33,0,0,0,22.63,50.65Z"/><path class="cls-1" d="M29.28,73.14a1.1,1.1,0,0,0,.26-.06.15.15,0,0,0,.09-.1c0-.07,0-.11,0-.13s.06,0,.13,0a.35.35,0,0,0,.13-.18s-.07-.09-.08-.08a.35.35,0,0,0-.18.13c0,.06,0,.11,0,.13s-.07,0-.14,0a.88.88,0,0,0-.28,0c-.06,0-.16.12-.15.16A.2.2,0,0,0,29.28,73.14Z"/><path class="cls-1" d="M124.38,58.17c.1,0,.2-.07.2-.26a.33.33,0,0,0,0-.14.19.19,0,0,0-.1-.1c-.06,0-.14,0-.19.11s0,.1,0,.14S124.27,58.12,124.38,58.17Z"/><path class="cls-1" d="M99.13,131.24s0-.08,0-.1-.43-.15-.5,0a.16.16,0,0,0,0,.1A.33.33,0,0,0,99.13,131.24Z"/><path class="cls-1" d="M5.07,118.2a.66.66,0,0,0,.27,0l.1-.1s-.06-.09-.1-.1a.53.53,0,0,0-.27,0c-.08,0-.15.09-.23.14A1,1,0,0,0,5.07,118.2Z"/><path class="cls-1" d="M87.44,115.32c0,.07,0,.14.1.2l.1-.1c0-.06,0-.13-.11-.19S87.46,115.29,87.44,115.32Z"/><path class="cls-1" d="M124.38,58.57s-.11.08-.1.09.13.14.2.1.1-.08.09-.09S124.44,58.53,124.38,58.57Z"/><path class="cls-1" d="M86.43,115s-.09-.11-.1-.1-.14.13-.1.19.08.1.1.1S86.47,115.09,86.43,115Z"/><path class="cls-1" d="M105,54.54s.08.1.09.09.14-.13.11-.19a.88.88,0,0,0-.1-.1C105,54.4,104.94,54.47,105,54.54Z"/><path class="cls-1" d="M69.69,66.27c.11-.06.14-.13.11-.19l-.1-.1c-.11.06-.14.13-.1.2S69.68,66.28,69.69,66.27Z"/><path class="cls-1" d="M94.19,137l.1-.1c0-.06,0-.13-.1-.2l-.1.1C94.05,136.88,94.09,137,94.19,137Z"/><path class="cls-1" d="M62.59,65.83s-.06-.07-.1-.1-.14,0-.2.1.07.06.1.1S62.53,65.93,62.59,65.83Z"/><path class="cls-1" d="M43.14,60.85s.1-.08.09-.09-.13-.14-.19-.1a.3.3,0,0,0-.1.09C43,60.86,43.07,60.89,43.14,60.85Z"/><path class="cls-1" d="M95.3,60.41c0,.06,0,.13.1.19s.07-.06.1-.09,0-.14-.1-.2S95.32,60.37,95.3,60.41Z"/><path class="cls-1" d="M80,63c.1-.06.14-.13.1-.19s-.09-.11-.1-.1-.14.13-.1.19S80,63,80,63Z"/><path class="cls-1" d="M102.05,43.29s.07-.06.1-.09,0-.14-.1-.2l-.1.1C101.91,43.16,102,43.23,102.05,43.29Z"/><path class="cls-1" d="M103.31,44.74l.1-.1c-.06-.1-.14-.14-.2-.1s-.1.08-.09.1S103.24,44.77,103.31,44.74Z"/><path class="cls-1" d="M102.81,44a.44.44,0,0,0,.18.14.38.38,0,0,0,.09-.09c0-.06-.08-.14-.14-.17S102.75,43.9,102.81,44Z"/><path class="cls-1" d="M102.67,43.89s.13,0,.13,0a.19.19,0,0,0-.07-.23c-.08-.06-.14,0-.19.06s0,.06,0,.09A.35.35,0,0,0,102.67,43.89Z"/><path class="cls-1" d="M8.76,50.91c0-.11-.12-.14-.19-.1l-.1.09c.06.11.13.14.2.1S8.77,50.92,8.76,50.91Z"/><path class="cls-1" d="M82.7,53.74l.1-.1c0-.06,0-.13-.1-.19s-.07,0-.1.09S82.6,53.68,82.7,53.74Z"/><path class="cls-1" d="M57,53.45c-.1.06-.14.13-.1.19s.08.1.1.1.13-.13.1-.2S57,53.44,57,53.45Z"/><path class="cls-1" d="M88.44,53.14c.11-.06.14-.13.1-.19s-.08-.11-.09-.1-.14.13-.11.19S88.43,53.15,88.44,53.14Z"/><path class="cls-1" d="M121.73,47.73c.27,0,.54,0,.8,0a1.23,1.23,0,0,0,1.11-.24c-2-.2-2-.2-2.48.13a1.31,1.31,0,0,0,.5.15A.08.08,0,0,0,121.73,47.73Z"/><path class="cls-1" d="M57,47.72c.06,0,.14,0,.19-.1s-.06-.06-.09-.1-.14,0-.2.11A.3.3,0,0,0,57,47.72Z"/><path class="cls-1" d="M103.31,94.58l.1-.1c-.06-.1-.13-.13-.2-.1s-.1.09-.09.1S103.25,94.62,103.31,94.58Z"/><path class="cls-1" d="M19.3,121.09c0-.06,0-.13-.1-.19s-.07.06-.1.09,0,.14.1.2S19.27,121.13,19.3,121.09Z"/><path class="cls-1" d="M92.43,93.78c-.07,0-.14,0-.2.11s.06.07.1.09.13,0,.19-.1S92.46,93.82,92.43,93.78Z"/><path class="cls-1" d="M38.7,93.88s-.06-.06-.1-.1-.13,0-.19.11.05.07.09.09S38.64,94,38.7,93.88Z"/><path class="cls-1" d="M130.07,96.52c0,.06,0,.14.11.19s.06-.06.09-.09,0-.14-.1-.19S130.1,96.48,130.07,96.52Z"/><path class="cls-1" d="M115.35,96.71c.11,0,.14-.12.11-.19s-.09-.1-.1-.09-.14.13-.1.19S115.34,96.72,115.35,96.71Z"/><path class="cls-1" d="M117.78,96.13c-.11.05-.14.12-.11.19l.1.1c.11-.06.14-.14.1-.2S117.79,96.12,117.78,96.13Z"/><path class="cls-1" d="M123.83,95.52s.06-.06.09-.09,0-.14-.1-.2l-.1.1C123.68,95.39,123.72,95.46,123.83,95.52Z"/><path class="cls-1" d="M120.75,94.68s-.1.08-.1.1.13.13.2.1.1-.09.09-.1S120.81,94.64,120.75,94.68Z"/><path class="cls-1" d="M64.93,126.2a.39.39,0,0,0,.08-.1.28.28,0,0,0,0-.13.2.2,0,0,0-.24.08c-.06.07,0,.13.06.19S64.9,126.22,64.93,126.2Z"/><path class="cls-1" d="M115.81,90.58c0,.06.12.1.18.14a.38.38,0,0,0,.09-.09c0-.06-.08-.14-.14-.17s-.11,0-.13,0c0-.24-.06-.26-.3-.3,0,.24.06.26.3.3C115.78,90.47,115.78,90.52,115.81,90.58Z"/><path class="cls-1" d="M115.24,90s0,.06,0,.09.06.07.1.08.13,0,.13,0a.19.19,0,0,0-.07-.23C115.35,89.86,115.29,89.87,115.24,90Z"/><path class="cls-1" d="M108.55,89.41c-.06-.1-.13-.14-.2-.1s-.1.08-.09.09.12.14.19.11A.88.88,0,0,0,108.55,89.41Z"/><path class="cls-1" d="M49.59,92.84v.3a.2.2,0,0,0,.25-.1C49.89,92.93,49.81,92.87,49.59,92.84Z"/><path class="cls-1" d="M112.61,69.46c.24,0,.26-.06.3-.29,0,0,.07,0,.14,0a.35.35,0,0,0,.13-.18s-.07-.09-.08-.08a.35.35,0,0,0-.18.13c0,.07,0,.11,0,.13C112.67,69.2,112.65,69.23,112.61,69.46Z"/><path class="cls-1" d="M112.53,69.69a.27.27,0,0,0,.08-.1s0-.12,0-.12a.2.2,0,0,0-.24.07c-.06.07-.05.13.06.19S112.5,69.71,112.53,69.69Z"/><path class="cls-1" d="M100.54,92.25c-.1,0-.13.12-.1.19s.08.1.1.1.14-.13.1-.2S100.55,92.24,100.54,92.25Z"/><path class="cls-1" d="M11.34,124.78c-.1.06-.14.13-.1.19a.45.45,0,0,0,.1.1c.1-.06.13-.13.1-.2S11.35,124.77,11.34,124.78Z"/><path class="cls-1" d="M117.7,61c0-.07,0-.14-.1-.2l-.1.1c0,.06,0,.13.1.19S117.67,61,117.7,61Z"/><path class="cls-1" d="M104.37,101.59c0,.07,0,.14.1.2s.07-.06.1-.1,0-.13-.1-.19S104.4,101.56,104.37,101.59Z"/><path class="cls-1" d="M87.21,13.22s-.06.06-.1.09,0,.14.11.2a.3.3,0,0,0,.09-.1C87.35,13.35,87.32,13.28,87.21,13.22Z"/><path class="cls-1" d="M104.78,119.11c-.11.06-.14.13-.11.19l.1.1c.11-.06.14-.13.1-.2S104.79,119.1,104.78,119.11Z"/><path class="cls-1" d="M98.43,75.22s.07,0,.09-.09,0-.13-.1-.2a.94.94,0,0,0-.1.1C98.28,75.09,98.32,75.17,98.43,75.22Z"/><path class="cls-1" d="M96,75.22c.11,0,.14-.12.1-.19s-.08-.1-.09-.09-.14.13-.11.19S96,75.23,96,75.22Z"/><path class="cls-1" d="M61.89,74.28s.1-.08.09-.09-.13-.14-.19-.1-.11.08-.1.09S61.82,74.32,61.89,74.28Z"/><path class="cls-1" d="M124.88,79c-.06-.1-.13-.13-.2-.1l-.1.1c.06.1.14.14.2.1S124.88,79,124.88,79Z"/><path class="cls-1" d="M129.27,78.22c-.11.06-.14.13-.11.19l.1.1c.11-.06.14-.13.1-.19S129.28,78.21,129.27,78.22Z"/><path class="cls-1" d="M128.46,77.82c0-.07,0-.14-.11-.2a.3.3,0,0,0-.09.1c0,.06,0,.13.1.19S128.43,77.85,128.46,77.82Z"/><path class="cls-1" d="M127.45,77.61c.1,0,.14-.13.1-.19s-.08-.1-.1-.1-.13.13-.1.2S127.44,77.62,127.45,77.61Z"/><path class="cls-1" d="M87.79,76.18l-.1.09c.06.11.14.14.2.1a.3.3,0,0,0,.1-.09C87.93,76.17,87.86,76.14,87.79,76.18Z"/><path class="cls-1" d="M87.59,134.67c-.07,0-.14,0-.2.11a.3.3,0,0,0,.1.09c.06,0,.14,0,.19-.1S87.62,134.71,87.59,134.67Z"/><path class="cls-1" d="M5,71.36s-.07,0-.1.09,0,.14.1.19.07-.06.1-.09S5.09,71.41,5,71.36Z"/><path class="cls-1" d="M42.18,87.47l-.1.1c0,.06,0,.13.1.19s.08-.06.1-.1S42.28,87.53,42.18,87.47Z"/><path class="cls-1" d="M55.64,85.23l.1.1c.06,0,.14,0,.19-.1s-.06-.07-.09-.1S55.7,85.13,55.64,85.23Z"/><path class="cls-1" d="M57.91,81.19s.07,0,.09-.09,0-.14-.1-.19-.06.06-.1.09S57.8,81.14,57.91,81.19Z"/><path class="cls-1" d="M42.48,80.61s-.07,0-.09.09,0,.14.1.2a1.11,1.11,0,0,0,.09-.1C42.62,80.73,42.59,80.66,42.48,80.61Z"/><path class="cls-1" d="M15.93,80.25s.1-.08.09-.09-.13-.14-.19-.1-.11.08-.1.09S15.86,80.29,15.93,80.25Z"/><path class="cls-1" d="M45.21,131.63s.07,0,.09-.09,0-.14-.1-.19-.06.06-.1.09S45.1,131.58,45.21,131.63Z"/><path class="cls-1" d="M17.38,82.4s-.07,0-.09.09,0,.14.1.2l.1-.1C17.52,82.53,17.49,82.46,17.38,82.4Z"/><path class="cls-1" d="M82.1,81.49s.07,0,.09-.09,0-.14-.1-.2-.06.07-.1.1S82,81.44,82.1,81.49Z"/></g></svg>