<svg id="Layer_1" data-name="Layer 1" xmlns="http://www.w3.org/2000/svg" xmlns:xlink="http://www.w3.org/1999/xlink" viewBox="0 0 127.97 149.8"><defs><style>.cls-1{fill:#fff;}.cls-2{fill:url(#linear-gradient);}.cls-3{fill:url(#linear-gradient-2);}.cls-4{fill:url(#linear-gradient-3);}.cls-5{fill:#221f20;}.cls-6{fill:url(#linear-gradient-4);}</style><linearGradient id="linear-gradient" x1="57.76" y1="81.03" x2="71.96" y2="97.96" gradientUnits="userSpaceOnUse"><stop offset="0.2" stop-color="#370517"/><stop offset="0.36" stop-color="#4f0c29"/><stop offset="0.87" stop-color="#9e2164"/></linearGradient><linearGradient id="linear-gradient-2" x1="68.36" y1="96.09" x2="90.78" y2="96.09" gradientUnits="userSpaceOnUse"><stop offset="0.2" stop-color="#4f2e12"/><stop offset="0.25" stop-color="#5d3716"/><stop offset="0.46" stop-color="#945d26"/><stop offset="0.64" stop-color="#bb7932"/><stop offset="0.79" stop-color="#d48a39"/><stop offset="0.87" stop-color="#dd903c"/></linearGradient><linearGradient id="linear-gradient-3" x1="68.36" y1="-9056.14" x2="90.78" y2="-9056.14" gradientTransform="matrix(1, 0, 0, -1, 0, -8948.62)" gradientUnits="userSpaceOnUse"><stop offset="0.2" stop-color="#143717"/><stop offset="0.25" stop-color="#183f1c"/><stop offset="0.53" stop-color="#2d6734"/><stop offset="0.74" stop-color="#397f43"/><stop offset="0.87" stop-color="#3e8849"/></linearGradient><linearGradient id="linear-gradient-4" x1="57.76" y1="-9041.28" x2="71.96" y2="-9024.35" gradientTransform="matrix(1, 0, 0, -1, 0, -8918.66)" gradientUnits="userSpaceOnUse"><stop offset="0.2" stop-color="#240323"/><stop offset="0.37" stop-color="#330733"/><stop offset="0.68" stop-color="#4a0e4b"/><stop offset="0.87" stop-color="#531054"/></linearGradient></defs><polygon class="cls-1" points="4.37 117.21 5.42 115.36 9.22 117.5 9.96 116.19 4.96 113.37 4.78 113.27 0.48 120.9 0.37 121.09 5.56 124.01 5.74 124.11 6.48 122.8 2.49 120.55 3.63 118.52 6.98 120.42 7.17 120.52 7.91 119.2 4.37 117.21"/><path class="cls-1" d="M16.14,120.64a2.45,2.45,0,0,0-.65-1.35,4.51,4.51,0,0,0-1.12-.86A3.42,3.42,0,0,0,13,118a2.9,2.9,0,0,0-1.15.07,2.48,2.48,0,0,0-.9.46,2.42,2.42,0,0,0-.58.68,2.59,2.59,0,0,0-.41,1.42,2.94,2.94,0,0,0,.32,1.15,4.45,4.45,0,0,0,.7.93c.25.27.49.53.71.79a2.65,2.65,0,0,1,.43.7.7.7,0,0,1-.09.63.88.88,0,0,1-.36.38,1.25,1.25,0,0,1-.49.17,1.94,1.94,0,0,1-.54,0,2.07,2.07,0,0,1-.51-.19,2.46,2.46,0,0,1-.7-.63,1.84,1.84,0,0,1-.32-.89v-.24l-1.66.33,0,.19a2.83,2.83,0,0,0,.63,1.47,4.66,4.66,0,0,0,1.27,1.06,3.8,3.8,0,0,0,1.17.44,3.05,3.05,0,0,0,.6.06,3.41,3.41,0,0,0,.55,0,2.6,2.6,0,0,0,1-.45,2.82,2.82,0,0,0,.82-.92,2.34,2.34,0,0,0,.35-1.34,2.72,2.72,0,0,0-.37-1.08,4,4,0,0,0-.72-.89,8,8,0,0,1-.7-.77,2.11,2.11,0,0,1-.41-.72.86.86,0,0,1,.12-.71,1,1,0,0,1,.59-.47,1.25,1.25,0,0,1,.52,0,1.92,1.92,0,0,1,.69.26,1.69,1.69,0,0,1,.62.56,1.32,1.32,0,0,1,.23.67l0,.25,1.67-.39Z"/><polygon class="cls-1" points="17.68 120.54 16.94 121.85 19.34 123.21 15.78 129.53 15.67 129.71 17.05 130.49 20.72 123.98 23.12 125.33 23.86 124.02 17.86 120.64 17.68 120.54"/><path class="cls-1" d="M21.37,130.69h0a1,1,0,0,0-.76-.09,1,1,0,0,0-.61.48,1,1,0,0,0-.09.76,1,1,0,0,0,.95.74,1,1,0,0,0,.9-.51,1,1,0,0,0,.09-.77A1,1,0,0,0,21.37,130.69Z"/><polygon class="cls-1" points="34.88 130.24 33.8 129.63 33.74 129.74 33.74 129.74 33.74 129.74 33.78 129.62 33.74 129.59 30.62 130.15 30.41 130.19 30.68 131.65 32.51 131.22 29.2 137.1 29.1 137.28 30.47 138.05 34.78 130.42 34.88 130.24"/><path class="cls-1" d="M41.71,137.33a2.86,2.86,0,0,0,.38-1.2h0A3,3,0,0,0,42,135a3.09,3.09,0,0,0-.58-1,3.71,3.71,0,0,0-2.1-1.19,3,3,0,0,0-1.16,0,3,3,0,0,0-1.08.51,3.42,3.42,0,0,0-.87,1,3.09,3.09,0,0,0-.41,1.27,2.74,2.74,0,0,0,.14,1.12,2.66,2.66,0,0,0,.54.92,3.13,3.13,0,0,0,.79.63,2.35,2.35,0,0,0,.46.21l-3.34,1.75,1.63.92,3.66-2,.61-.35c.19-.13.38-.26.55-.4a3.63,3.63,0,0,0,.48-.48A4.34,4.34,0,0,0,41.71,137.33Zm-2.9.06a2,2,0,0,1-.63-.21,1.89,1.89,0,0,1-.5-.42,1.41,1.41,0,0,1-.3-1.11,1.83,1.83,0,0,1,.62-1.11,1.36,1.36,0,0,1,.52-.27,1.6,1.6,0,0,1,.39-.05h.19a1.71,1.71,0,0,1,.62.22,1.79,1.79,0,0,1,.51.42,1.36,1.36,0,0,1,.27.52,1.4,1.4,0,0,1,0,.58,1.85,1.85,0,0,1-.21.61,1.72,1.72,0,0,1-.41.5,1.36,1.36,0,0,1-.52.27A1.4,1.4,0,0,1,38.81,137.39Z"/><path class="cls-1" d="M47.87,141.67a4.61,4.61,0,0,0,.43-.63,3,3,0,0,0,.38-1.19,2.94,2.94,0,0,0-.14-1.15,2.9,2.9,0,0,0-.58-1,3.61,3.61,0,0,0-1-.77,3.55,3.55,0,0,0-1.15-.42,2.83,2.83,0,0,0-1.16,0,2.58,2.58,0,0,0-1.07.51,3.24,3.24,0,0,0-.87,1,3,3,0,0,0-.42,1.27,2.82,2.82,0,0,0,.14,1.13,2.64,2.64,0,0,0,.55.91,3.37,3.37,0,0,0,.78.64,4.84,4.84,0,0,0,.47.21L40.93,144l1.63.92,3.67-2c.23-.13.43-.24.6-.35a5.94,5.94,0,0,0,.55-.39A4.53,4.53,0,0,0,47.87,141.67Zm-2.48-.57a1.57,1.57,0,0,1-.62-.21,1.62,1.62,0,0,1-.5-.42A1.65,1.65,0,0,1,44,140a1.45,1.45,0,0,1,0-.59,1.8,1.8,0,0,1,.21-.6,1.74,1.74,0,0,1,.42-.5,1.46,1.46,0,0,1,.9-.33l.2,0a1.57,1.57,0,0,1,.62.21,1.74,1.74,0,0,1,.5.42,1.44,1.44,0,0,1,.27.52,1.3,1.3,0,0,1,0,.59,1.62,1.62,0,0,1-.22.6,1.57,1.57,0,0,1-.41.5,1.4,1.4,0,0,1-.51.27A1.29,1.29,0,0,1,45.39,141.1Z"/><path class="cls-1" d="M55,143.32l.74-1.32-4.19-2.36-.17-.1L48.8,143.9l.35,0a3.36,3.36,0,0,1,.93.16,3.68,3.68,0,0,1,.74.29,2.15,2.15,0,0,1,1,1,1.53,1.53,0,0,1-.18,1.32,1.73,1.73,0,0,1-.43.52,1.44,1.44,0,0,1-.5.27,1.46,1.46,0,0,1-.55,0,1.41,1.41,0,0,1-1.29-1.73l0-.2-1.61-.29,0,.21a2.65,2.65,0,0,0,.27,1.74,3.06,3.06,0,0,0,1.23,1.24,3.56,3.56,0,0,0,1.19.43,2.74,2.74,0,0,0,.5,0,3.17,3.17,0,0,0,.69-.07,3,3,0,0,0,1.08-.5,3,3,0,0,0,.83-1,3.74,3.74,0,0,0,.43-1.16,3.05,3.05,0,0,0,0-1.13,2.83,2.83,0,0,0-.49-1,3.31,3.31,0,0,0-.91-.77l-.26-.12-.31-.14-.3-.1.83-1.42Z"/><polygon class="cls-1" points="110.76 89.59 110.76 89.59 110.76 89.59 110.76 89.59 110.76 89.59"/><polygon class="cls-1" points="109.99 87.59 110 87.59 109.99 87.59 109.99 87.59 109.99 87.59"/><path class="cls-1" d="M93.73,70.17l.13,0Z"/><path class="cls-1" d="M93.89,69.82Z"/><path class="cls-1" d="M94,69.88s0,0,0,0S94,69.88,94,69.88Z"/><polygon class="cls-1" points="112.02 93.59 112.03 93.59 112.02 93.59 112.02 93.59 112.02 93.59"/><path class="cls-1" d="M108.45,94.1Z"/><path class="cls-1" d="M107.94,92.1h0S107.87,92.11,107.94,92.1Z"/><polygon class="cls-1" points="111.52 91.59 111.52 91.59 111.52 91.59 111.51 91.59 111.52 91.59"/><path class="cls-1" d="M94.76,133.64h0Z"/><polygon class="cls-1" points="104.28 79.67 104.28 79.67 104.28 79.67 104.28 79.67 104.28 79.67"/><polygon class="cls-1" points="67.56 46.55 67.57 46.55 67.56 46.55 67.56 46.55 67.56 46.55"/><polygon class="cls-1" points="105.68 81.64 105.68 81.64 105.68 81.64 105.67 81.64 105.68 81.64"/><path class="cls-1" d="M90,136.06l0,0a.06.06,0,0,0,0,0Z"/><polygon class="cls-1" points="109.16 85.59 109.16 85.59 109.16 85.59 109.16 85.59 109.16 85.59"/><polygon class="cls-1" points="107.02 83.67 107.02 83.67 107.02 83.67 107.01 83.67 107.02 83.67"/><polygon class="cls-1" points="93.82 71.94 93.82 71.94 93.82 71.94 93.82 71.94 93.82 71.94"/><polygon class="cls-1" points="102.28 77.67 102.28 77.67 102.28 77.67 102.28 77.67 102.28 77.67"/><path class="cls-1" d="M93.83,72a0,0,0,0,0,0,0h0A0,0,0,0,1,93.83,72Z"/><polygon class="cls-1" points="98.09 75.84 98.1 75.84 98.09 75.84 98.09 75.84 98.09 75.84"/><path class="cls-1" d="M108.76,96.1Z"/><polygon class="cls-1" points="62.48 56.55 62.48 56.55 62.48 56.55 62.48 56.55 62.48 56.55"/><path class="cls-1" d="M59.51,55.06h0Z"/><polygon class="cls-1" points="63.55 54.55 63.55 54.55 63.55 54.55 63.55 54.55 63.55 54.55"/><path class="cls-1" d="M58.44,57.06h0Z"/><polygon class="cls-1" points="64.5 52.55 64.5 52.55 64.5 52.55 64.5 52.55 64.5 52.55"/><polygon class="cls-1" points="66.49 48.55 66.5 48.55 66.49 48.55 66.49 48.55 66.49 48.55"/><path class="cls-1" d="M56.32,64.55h0Z"/><path class="cls-1" d="M62.45,49.06h0Z"/><polygon class="cls-1" points="65.5 50.55 65.5 50.55 65.5 50.55 65.5 50.55 65.5 50.55"/><path class="cls-1" d="M54.14,65s-.1,0,0,0h0Z"/><path class="cls-1" d="M57.44,59.06h0Z"/><polygon class="cls-1" points="112.49 97.59 112.49 97.59 112.49 97.59 112.49 97.59 112.49 97.59"/><polygon class="cls-1" points="61.48 58.55 61.48 58.55 61.48 58.55 61.48 58.55 61.48 58.55"/><path class="cls-1" d="M108.92,98.1Z"/><polygon class="cls-1" points="59.2 62.55 59.2 62.55 59.2 62.55 59.2 62.55 59.2 62.55"/><polygon class="cls-1" points="112.33 95.59 112.33 95.59 112.33 95.59 112.33 95.59 112.33 95.59"/><path class="cls-1" d="M55.16,63.06h0Z"/><polygon class="cls-1" points="60.48 60.55 60.48 60.55 60.48 60.55 60.48 60.55 60.48 60.55"/><path class="cls-1" d="M56.44,61.06h0Z"/><polygon class="cls-1" points="112.71 101.61 112.71 101.61 112.71 101.61 112.71 101.61 112.71 101.61"/><path class="cls-1" d="M93,134.11h0l0,0h0Z"/><polygon class="cls-1" points="104.26 125.64 104.26 125.64 104.26 125.64 104.26 125.64 104.26 125.64"/><polygon class="cls-1" points="112.43 107.6 112.44 107.6 112.43 107.6 112.43 107.6 112.43 107.6"/><polygon class="cls-1" points="112.59 105.6 112.59 105.6 112.59 105.6 112.59 105.6 112.59 105.6"/><polygon class="cls-1" points="112.71 103.6 112.71 103.6 112.71 103.6 112.71 103.6 112.71 103.6"/><polygon class="cls-1" points="112.12 109.6 112.13 109.6 112.12 109.6 112.12 109.6 112.12 109.6"/><path class="cls-1" d="M100,128.13h0Z"/><polygon class="cls-1" points="102.36 127.64 102.36 127.64 102.36 127.64 102.36 127.64 102.36 127.64"/><polygon class="cls-1" points="110.45 115.64 110.45 115.64 110.45 115.64 110.45 115.64 110.45 115.64"/><polygon class="cls-1" points="106.19 123.64 106.19 123.64 106.19 123.64 106.19 123.64 106.19 123.64"/><polygon class="cls-1" points="111.12 113.6 111.13 113.6 111.12 113.6 111.12 113.6 111.12 113.6"/><polygon class="cls-1" points="108.19 119.64 108.19 119.64 108.19 119.64 108.19 119.64 108.19 119.64"/><polygon class="cls-1" points="109.5 117.64 109.5 117.64 109.5 117.64 109.5 117.64 109.5 117.64"/><polygon class="cls-1" points="107.19 121.64 107.19 121.64 107.19 121.64 107.19 121.64 107.19 121.64"/><polygon class="cls-1" points="111.48 111.6 111.48 111.6 111.48 111.6 111.47 111.6 111.48 111.6"/><path class="cls-1" d="M98.05,131.64h0Z"/><polygon class="cls-1" points="100.36 129.64 100.36 129.64 100.36 129.64 100.36 129.64 100.36 129.64"/><path class="cls-1" d="M113.93,99.82a.12.12,0,0,1,.06.08A.12.12,0,0,0,113.93,99.82Z"/><path class="cls-1" d="M78.88,64H69.47v0l-.58,0c-.72,0-1.43,0-2.13.07l-.93.07c-.29,0-.57.06-.85.09-.86.09-1.7.2-2.53.35h0l11.26-20H88.36l2-1.87H62.92L55,56.72,47.1,70.8l.78.46.77.45c.78-.52,1.59-1,2.42-1.46l.39-.2c.73-.39,1.46-.77,2.22-1.11l.23-.1c.83-.37,1.68-.72,2.54-1h0c.91-.33,1.85-.62,2.79-.88.7-.19,1.41-.37,2.13-.52,1-.2,2-.37,3-.49l.31,0c1-.12,2-.19,3.07-.22.36,0,.71,0,1.07,0a36.17,36.17,0,0,1,5,.35c.55.07,1.08.16,1.62.26l.09,0c.52.09,1,.2,1.55.32l.11,0c.51.11,1,.24,1.52.39l.1,0c.51.15,1,.3,1.52.47h0a37,37,0,0,1,10.07,5.18l.06,0c.38.28.75.57,1.12.86l.22.17c.34.27.67.55,1,.84l.29.25c.31.27.61.55.91.83l.34.32c.28.27.56.55.83.83l.35.37.78.85.35.4.73.86.34.44c.23.29.46.59.68.89.11.14.21.29.31.43.23.31.45.62.66.94.07.1.13.2.19.3.44.67.86,1.36,1.26,2.06.09.15.18.3.26.46s.29.54.42.81l.37.71c.13.26.24.52.36.78s.25.53.36.79l.32.77.33.84c.1.25.19.51.28.77s.2.58.29.87.17.52.24.78.18.6.26.9.14.52.2.78.15.63.22.94.11.51.16.77.12.66.18,1,.09.5.12.75.1.7.14,1.06.06.47.08.71c0,.39.07.79.09,1.18,0,.21,0,.41,0,.62,0,.59,0,1.18,0,1.78v.06c0,.6,0,1.2,0,1.79,0,.2,0,.4,0,.61,0,.39-.05.79-.09,1.18s0,.48-.08.72-.09.7-.14,1-.08.51-.12.76-.11.66-.18,1-.1.52-.16.77-.14.63-.22,1-.13.52-.2.77-.17.61-.26.91l-.24.78c-.09.29-.19.58-.29.86s-.18.52-.28.78l-.33.83-.32.78c-.11.26-.24.52-.35.78s-.24.52-.37.78-.24.48-.37.72-.27.54-.42.81l-.27.48c-.41.72-.84,1.42-1.3,2.11l-.14.22c-.22.33-.44.64-.67,1l-.3.42c-.22.3-.46.6-.69.9l-.34.42c-.23.3-.48.58-.73.87s-.23.27-.35.4c-.25.29-.51.57-.78.85l-.34.37-.84.83-.34.32c-.29.28-.6.56-.9.83l-.3.26c-.33.28-.66.56-1,.83l-.22.17c-.37.3-.74.58-1.12.86l-.08,0a37,37,0,0,1-7.26,4.11l-8,4.58h3.67a38.48,38.48,0,1,0,0-77ZM63.06,46.86a.43.43,0,0,1,.17-.32.48.48,0,0,1,.25-.08H64l.71,0c.69,0,1.38,0,2.07,0a4.7,4.7,0,0,1,.65,0h.12c.24,0,.47,0,.71.08l.35.06.17,0c.1,0,.12.14.11.18s-.11.16-.15.17l-.17.07-.35.1c-.23.07-.47.11-.7.16a15.35,15.35,0,0,1-2.87,0L64,47.39l-.35,0h-.13a.23.23,0,0,1-.11,0,.45.45,0,0,1-.27-.25.67.67,0,0,1,0-.17Zm-1.07,2a.43.43,0,0,1,.16-.32.5.5,0,0,1,.25-.08h.54l.71,0c.69,0,1.38,0,2.07,0a4.7,4.7,0,0,1,.65,0h.12c.24,0,.47,0,.71.08l.35.06.17,0c.09,0,.12.14.11.18s-.11.16-.15.17l-.17.07-.35.1c-.23.07-.47.11-.7.16a15.34,15.34,0,0,1-2.87,0l-.71-.06-.35,0-.23,0a.41.41,0,0,1-.28-.25.61.61,0,0,1,0-.16Zm-1,2a.42.42,0,0,1,.18-.31.64.64,0,0,1,.18-.06H62l.71,0c.69,0,1.38,0,2.06,0a4.7,4.7,0,0,1,.65,0h.13c.24,0,.47,0,.7.08l.36.06.17,0a.16.16,0,0,1,.1.19c0,.11-.12.15-.16.16l-.17.07-.35.1c-.23.07-.47.11-.7.16a16.24,16.24,0,0,1-2.87,0l-.71-.06-.35,0h-.09l-.17,0A.41.41,0,0,1,61,51,.47.47,0,0,1,61,50.83Zm-1,2a.42.42,0,0,1,.18-.31.64.64,0,0,1,.18-.06H61l.71,0c.69,0,1.38,0,2.06,0a4.7,4.7,0,0,1,.65,0h.13c.24,0,.47,0,.71.08l.35.06.17,0a.16.16,0,0,1,.1.19c0,.11-.12.15-.16.16l-.17.07-.35.1c-.23.07-.47.11-.7.16a16.24,16.24,0,0,1-2.87,0l-.71-.06-.35,0h-.09l-.17,0A.41.41,0,0,1,60,53,.47.47,0,0,1,60,52.83Zm-.94,2a.46.46,0,0,1,.13-.29.31.31,0,0,1,.15-.1l.12,0H60l.71,0c.7,0,1.39,0,2.08,0a4.7,4.7,0,0,1,.65,0h.11l.7.07.36.06.17,0c.08,0,.14.13.12.18s-.09.18-.14.18l-.17.06-.34.11-.71.16a15.34,15.34,0,0,1-2.87,0l-.7-.06-.36,0-.19,0a.43.43,0,0,1-.31-.21.61.61,0,0,1,0-.18Zm-1.07,2a.48.48,0,0,1,.13-.3.51.51,0,0,1,.16-.09l.09,0h.56l.71,0c.7,0,1.39,0,2.08,0a4.7,4.7,0,0,1,.65,0h.11c.24,0,.47,0,.71.08l.35,0,.17,0c.08,0,.14.13.12.18s-.1.18-.14.18l-.17.06-.35.11-.7.16a15.34,15.34,0,0,1-2.87,0l-.71-.06-.35,0-.2,0a.43.43,0,0,1-.3-.22.41.41,0,0,1,0-.18ZM57.12,65a.2.2,0,0,1-.09.12.76.76,0,0,1-.19.12,2.35,2.35,0,0,1-.4.18,2.49,2.49,0,0,1-.89.12c-.27,0-.55,0-.82,0l-.41-.07-.21,0-.1,0a.46.46,0,0,1-.15,0,.46.46,0,0,1-.16-.15.42.42,0,0,1-.06-.21v-.06a.42.42,0,0,1,.21-.34c.17-.06.17,0,.21,0h.1l.42,0,1.34,0a.74.74,0,0,1,.21,0h.18a2.83,2.83,0,0,1,.4.08c.13.06.27,0,.39.2A.28.28,0,0,1,57.12,65Zm3.29-1.88-.17.06-.34.11-.71.16a15.34,15.34,0,0,1-2.87,0l-.71-.06-.35,0-.19,0a.43.43,0,0,1-.31-.21.41.41,0,0,1,0-.18v-.07a.51.51,0,0,1,.13-.3.41.41,0,0,1,.27-.11h.54l.71,0c.72,0,1.43,0,2.14,0a3.87,3.87,0,0,1,.59,0h.11l.7.07.36.06.17,0c.08,0,.14.13.12.18S60.45,63.08,60.41,63.08Zm1.28-2-.17.06-.35.11-.7.16a15.34,15.34,0,0,1-2.87,0l-.71-.06-.35,0-.2,0a.43.43,0,0,1-.3-.22.41.41,0,0,1,0-.18v-.06a.48.48,0,0,1,.13-.3.51.51,0,0,1,.16-.09l.09,0h.56l.71,0c.72,0,1.44,0,2.15,0a3.74,3.74,0,0,1,.58,0h.11c.24,0,.47,0,.71.08l.35,0,.17,0c.08,0,.14.13.12.18S61.73,61.08,61.69,61.08Zm-.22-1.67a15.34,15.34,0,0,1-2.87,0l-.71-.06-.35,0-.2,0a.43.43,0,0,1-.3-.22.41.41,0,0,1,0-.18v-.06a.48.48,0,0,1,.13-.3.51.51,0,0,1,.16-.09l.09,0h.56l.71,0c.72,0,1.43,0,2.15,0a3.74,3.74,0,0,1,.58,0h.11c.24,0,.47,0,.71.08l.35,0,.17,0c.08,0,.14.13.12.18s-.1.18-.14.18l-.17.06-.35.11Zm52.37,38.51a.4.4,0,0,1,0,.11.24.24,0,0,1-.1.1l-.08,0a1.66,1.66,0,0,1-.31.12c-.21.07-.43.12-.65.17a10.74,10.74,0,0,1-2.65.06l-.65-.06-.33,0-.16,0h-.08a.46.46,0,0,1-.28-.14.44.44,0,0,1-.1-.28v0a.47.47,0,0,1,0-.17.39.39,0,0,1,.25-.2.72.72,0,0,1,.14,0h.33l.66,0c.72,0,1.43,0,2.15,0,.12,0,.24,0,.36,0h.11a5.13,5.13,0,0,1,1.31.22A.17.17,0,0,1,113.84,97.92Zm-.16-2s0,.06,0,.11a.24.24,0,0,1-.1.1l-.07,0a2.08,2.08,0,0,1-.32.12c-.21.07-.43.12-.65.17a10.73,10.73,0,0,1-2.65.06l-.65-.06-.33,0-.16,0h-.08a.42.42,0,0,1-.27-.14.4.4,0,0,1-.11-.28v0a.33.33,0,0,1,0-.17.35.35,0,0,1,.24-.2.72.72,0,0,1,.14,0h.33l.66,0c.72,0,1.42,0,2.13,0a3.38,3.38,0,0,1,.45,0h0a4.75,4.75,0,0,1,1.31.23A.13.13,0,0,1,113.68,95.92Zm-.3-2a.22.22,0,0,1,0,.11.18.18,0,0,1-.09.1l-.08,0a1.75,1.75,0,0,1-.32.12c-.21.07-.43.12-.64.17a10.81,10.81,0,0,1-2.66.06l-.65-.06-.32,0-.17,0h-.08a.42.42,0,0,1-.27-.14A.39.39,0,0,1,108,94v0a.33.33,0,0,1,0-.17.4.4,0,0,1,.24-.2.86.86,0,0,1,.15,0h.33l.65,0c.72,0,1.43,0,2.14,0a3.09,3.09,0,0,1,.43,0h0a4.69,4.69,0,0,1,1.31.23A.14.14,0,0,1,113.38,93.92Zm-.51-2a.19.19,0,0,1,0,.1.18.18,0,0,1-.09.1l-.08,0a2,2,0,0,1-.31.12c-.22.07-.44.12-.65.17a10.74,10.74,0,0,1-2.65.06l-.65-.06-.33,0-.16,0h-.08a.42.42,0,0,1-.28-.14.39.39,0,0,1-.1-.28v0a.47.47,0,0,1,0-.17.4.4,0,0,1,.24-.2.86.86,0,0,1,.15,0h.33l.66,0c.71,0,1.42,0,2.13,0a3.08,3.08,0,0,1,.43,0h.06a4.69,4.69,0,0,1,1.3.23A.14.14,0,0,1,112.87,91.93Zm-.84-2a.32.32,0,0,1,0,.1c0,.09-.12.12-.15.14l-.3.12a6.09,6.09,0,0,1-.61.17,9.48,9.48,0,0,1-2.49.06l-.62-.06-.3,0-.15,0h-.08a.42.42,0,0,1-.27-.14A.39.39,0,0,1,107,90a.72.72,0,0,1,0-.17.36.36,0,0,1,.2-.22l.14,0h.35l.62,0c.67,0,1.34,0,2,0a2.8,2.8,0,0,1,.41,0h0a4.59,4.59,0,0,1,1.23.23A.13.13,0,0,1,112,89.92Zm-.76-2a.32.32,0,0,1,0,.1c0,.09-.13.12-.16.14l-.29.12c-.2.07-.41.12-.61.17a9.57,9.57,0,0,1-2.5.06l-.61-.06-.31,0-.15,0h-.07a.42.42,0,0,1-.27-.14.45.45,0,0,1-.11-.28s0,0,0-.16a.42.42,0,0,1,.2-.23l.14,0h.35l.62,0c.67,0,1.34,0,2,0a3.23,3.23,0,0,1,.44,0h0a4.45,4.45,0,0,1,1.23.23A.12.12,0,0,1,111.27,87.92ZM92.67,70.43c-.47,0-1,.06-1.44,0l-.18,0H91a.49.49,0,0,1-.29-.14.48.48,0,0,1-.13-.33.6.6,0,0,1,0-.08.47.47,0,0,1,.06-.19.45.45,0,0,1,.33-.21H91a5.78,5.78,0,0,1,.72,0,14.52,14.52,0,0,1,1.46.1h0a3.43,3.43,0,0,1,.45.16.88.88,0,0,1,.22.1.1.1,0,0,1,.07,0h0s0,0,0,0,0,0,0,0v0a.09.09,0,0,1,0,.08l0,0a1.85,1.85,0,0,1-.52.22A2,2,0,0,1,92.67,70.43Zm2.23,1.79-.59-.09-.3,0h-.15l0,0a0,0,0,0,0,0,0h0a0,0,0,0,1,0,0h0v0h0a.14.14,0,0,1,0-.06c.05-.05.15,0,.21-.05l.3,0,.59-.08,1.17-.23a8.24,8.24,0,0,1,1.24-.16,4.77,4.77,0,0,1,.63.06l.32.08.08,0h0l.1,0a.52.52,0,0,1,.22.44.48.48,0,0,1-.13.32.65.65,0,0,1-.15.1l0,0-.16,0-.33.08c-.21,0-.42,0-.62,0a5.8,5.8,0,0,1-1.23-.17Zm1,1.87h0a.09.09,0,0,1-.06,0,.14.14,0,0,1,0-.17h0s0,0,0,0h0l.26,0,.59-.09,1.17-.22a9.06,9.06,0,0,1,1.23-.19,3.31,3.31,0,0,1,1.26.19.44.44,0,0,1,.22.14.47.47,0,0,1,.1.3.55.55,0,0,1,0,.19.46.46,0,0,1-.22.26l-.36.12a4.94,4.94,0,0,1-.63.08,4.7,4.7,0,0,1-1.25-.13A16.9,16.9,0,0,0,95.91,74.09Zm3,2.11-.59-.08a1.54,1.54,0,0,1-.3,0s0,0,0,0h0a.15.15,0,0,1,0-.18.08.08,0,0,1,.06,0h0a19,19,0,0,0,2.36-.37,5.74,5.74,0,0,1,1.24-.13,3.51,3.51,0,0,1,.63.08,1.71,1.71,0,0,1,.37.12.47.47,0,0,1,.21.27.82.82,0,0,1,0,.17.56.56,0,0,1-.11.31.49.49,0,0,1-.21.14,3.82,3.82,0,0,1-1.27.2,10.54,10.54,0,0,1-1.23-.2Zm2.16,2.28-.59-.11-.29-.06-.16,0a.29.29,0,0,1-.24-.3s0-.24.16-.28a.28.28,0,0,1,.14,0h1c.4,0,.79,0,1.19,0h0l.25,0,.47,0,.46,0c.2,0,.4,0,.61,0l.31.05.15,0c.06,0,.23.16.21.27s0,.25-.15.3l-.16.08a1.88,1.88,0,0,1-.3.12,5.39,5.39,0,0,1-.6.16,5.28,5.28,0,0,1-1.25,0C101.89,78.59,101.49,78.55,101.1,78.48Zm1.41,1.89-.29-.06-.16,0a.29.29,0,0,1-.24-.3s0-.25.16-.28a.28.28,0,0,1,.14,0h1c.4,0,.79,0,1.19,0h0l.25,0,.47,0,.46,0c.2,0,.4,0,.61,0l.31.05.15,0c.06,0,.23.17.21.27s0,.25-.15.31l-.16.07a1.88,1.88,0,0,1-.3.12,5,5,0,0,1-.61.16,5.27,5.27,0,0,1-1.25,0c-.39,0-.79-.09-1.18-.15ZM104,82.46l-.59-.11-.15,0h0l-.12,0a.35.35,0,0,1-.14-.2.24.24,0,0,1,0-.13.32.32,0,0,1,.08-.2.31.31,0,0,1,.2-.09h.07a17.32,17.32,0,0,0,2.39,0h0l.51,0a3,3,0,0,1,.67,0,4.2,4.2,0,0,1,.61.06l.15,0,.1,0a.22.22,0,0,1,.11.14.39.39,0,0,1,0,.12.2.2,0,0,1-.06.17.74.74,0,0,1-.19.13,4.82,4.82,0,0,1-1.22.34,9.73,9.73,0,0,1-1.22,0C104.77,82.57,104.37,82.52,104,82.46Zm1.21,1.91-.3-.06-.15,0a.28.28,0,0,1-.25-.3.29.29,0,0,1,0-.14.26.26,0,0,1,.15-.14.56.56,0,0,1,.2,0h.31l.62,0c.41,0,.82,0,1.23,0h0l.25,0,.49,0,.48,0,.62,0,.32.05.16,0c.05,0,.24.16.21.27s0,.27-.16.31l-.16.07a2,2,0,0,1-.31.12,5.15,5.15,0,0,1-.62.16,5.61,5.61,0,0,1-1.29,0l-1.22-.15Zm.27,1.87a.39.39,0,0,1-.1-.28.7.7,0,0,1,0-.16.35.35,0,0,1,.2-.23.37.37,0,0,1,.14,0h.35l.62,0c.67,0,1.33,0,2,0a3.08,3.08,0,0,1,.43,0h0a4.59,4.59,0,0,1,1.23.23.13.13,0,0,1,0,.1.32.32,0,0,1,0,.1c0,.09-.12.12-.15.14l-.3.12a6.09,6.09,0,0,1-.61.17,9.94,9.94,0,0,1-2.49.07l-.62-.07-.3,0-.15,0h-.08A.42.42,0,0,1,105.46,86.24ZM88.73,137.85a1,1,0,0,1-.24.21.8.8,0,0,1-.32.14l-.34,0a3.44,3.44,0,0,1-.53-.06l-.27-.07-.14,0s-.29-.1-.32-.29a.59.59,0,0,1,0-.13v0a.42.42,0,0,1,.06-.19.34.34,0,0,1,.2-.17.24.24,0,0,1,.11,0h.28l.56,0h.54a1,1,0,0,1,.5.25C88.89,137.61,88.8,137.8,88.73,137.85ZM92.64,136a.26.26,0,0,1-.09.11l-.16.13a3.14,3.14,0,0,1-.37.18,2.18,2.18,0,0,1-.83.13,6.66,6.66,0,0,1-.76-.06l-.38-.06-.18-.05a.47.47,0,0,1-.41-.34c0-.2,0,0,0-.27a.36.36,0,0,1,.25-.22.68.68,0,0,1,.24,0l.39,0,.77,0c.19,0,.38,0,.57,0h.19a1.41,1.41,0,0,1,.73.28A.28.28,0,0,1,92.64,136Zm2.73-1.85-.14.12a1.57,1.57,0,0,1-.33.19.9.9,0,0,1-.39.12l-.38,0a5.51,5.51,0,0,1-.69-.06l-.34-.06-.17,0a.49.49,0,0,1-.38-.32c0-.21,0-.07,0-.22a.37.37,0,0,1,.2-.26.28.28,0,0,1,.12,0H93l.36,0,.7,0h.68a1.26,1.26,0,0,1,.66.27.45.45,0,0,1,0,.11S95.39,134.13,95.37,134.15Zm3.36-2a1,1,0,0,1-.17.12,1.53,1.53,0,0,1-.39.18,2.37,2.37,0,0,1-.86.13,7.37,7.37,0,0,1-.79-.06l-.39-.06-.2,0-.15,0a.41.41,0,0,1-.26-.31c0-.19,0-.05,0-.25a.39.39,0,0,1,.28-.26,1.42,1.42,0,0,1,.23,0h.41l.8,0h.79a2.33,2.33,0,0,1,.38.08c.13.06.26,0,.38.2s0,.06,0,.13A.24.24,0,0,1,98.73,132.17Zm2.46-2.08c0,.07-.09.08-.11.1a1.13,1.13,0,0,1-.21.12,3.83,3.83,0,0,1-.43.17,5,5,0,0,1-1.83.06l-.45-.06-.21,0h-.09l-.11,0a.43.43,0,0,1-.24-.38v-.07a.35.35,0,0,1,.08-.22.4.4,0,0,1,.3-.15h.23l.45,0c.43,0,.87,0,1.3,0a1.78,1.78,0,0,1,.4,0h.08l.43.08.22.07s.17,0,.19.16A.23.23,0,0,1,101.19,130.09Zm2-2c0,.06-.09.07-.11.09a1.13,1.13,0,0,1-.21.12,3.83,3.83,0,0,1-.43.17,5,5,0,0,1-1.83.06l-.45-.06-.21,0h-.09l-.11,0a.43.43,0,0,1-.24-.38v-.07a.35.35,0,0,1,.08-.22.4.4,0,0,1,.3-.15h.23l.45,0c.43,0,.87,0,1.3,0a1.78,1.78,0,0,1,.4,0h.08l.43.08.22.07s.17,0,.19.16A.27.27,0,0,1,103.19,128.1Zm2-2a.61.61,0,0,1-.12.09l-.23.12a4.75,4.75,0,0,1-.49.17,6.56,6.56,0,0,1-2,.05l-.49-.06-.24,0h-.06l-.12,0a.41.41,0,0,1-.28-.4v-.1a.48.48,0,0,1,.12-.22.36.36,0,0,1,.21-.11h.33l.5,0,1.45,0a2.26,2.26,0,0,1,.45,0h.08a4,4,0,0,1,.48.08l.24.06c.06,0,.2,0,.22.17S105.22,126.06,105.17,126.11Zm2-2-.13.07-.27.11a4,4,0,0,1-.57.16,9.07,9.07,0,0,1-2.32.05l-.57-.06-.29,0-.19,0a.43.43,0,0,1-.3-.42v0a.4.4,0,0,1,0-.15.39.39,0,0,1,.2-.2.33.33,0,0,1,.13,0h1c.57,0,1.12,0,1.68,0a3,3,0,0,1,.52,0h.09a5.58,5.58,0,0,1,.57.08l.28.06.14,0a.15.15,0,0,1,.1.15A.18.18,0,0,1,107.2,124.15Zm1-2-.14.07-.27.11a4,4,0,0,1-.57.16,9.06,9.06,0,0,1-2.32.05l-.57-.06-.29,0-.18,0a.43.43,0,0,1-.31-.42v0a.32.32,0,0,1,0-.14.36.36,0,0,1,.19-.21l.14,0h1c.56,0,1.12,0,1.68,0a3,3,0,0,1,.52,0h.09a5,5,0,0,1,.56.08l.29.06.13,0a.15.15,0,0,1,.11.15A.19.19,0,0,1,108.21,122.15Zm1-2-.14.07-.27.11a4,4,0,0,1-.57.16,9.07,9.07,0,0,1-2.32.05l-.57-.06-.29,0-.18,0a.42.42,0,0,1-.31-.42v0a.32.32,0,0,1,0-.14.36.36,0,0,1,.19-.21l.14,0h.4l.57,0q.84,0,1.68,0a3,3,0,0,1,.52,0h.09a5,5,0,0,1,.56.08l.29.06.13,0a.15.15,0,0,1,.11.15A.19.19,0,0,1,109.21,120.15Zm1.37-2-.15.07-.3.11-.61.16a11.22,11.22,0,0,1-2.52,0l-.62-.06-.31,0-.19,0a.43.43,0,0,1-.26-.19.54.54,0,0,1-.06-.24.46.46,0,0,1,.07-.24.37.37,0,0,1,.25-.17,1.82,1.82,0,0,1,.2,0h.31l.63,0c.61,0,1.21,0,1.82,0h.66c.2,0,.41,0,.61.08l.31.06.15,0c.07,0,.12.11.11.16A.17.17,0,0,1,110.58,118.16Zm1-2-.15.07-.32.11-.65.16a12.4,12.4,0,0,1-2.65,0l-.65-.06-.33,0-.2,0a.42.42,0,0,1-.27-.2.49.49,0,0,1,0-.24.67.67,0,0,1,0-.1.46.46,0,0,1,.07-.16.41.41,0,0,1,.29-.15h.5l.65,0c.65,0,1.29,0,1.93,0h.69c.22,0,.43,0,.65.08l.32.06.16,0c.07,0,.13.11.12.16A.17.17,0,0,1,111.58,116.16Zm.67-2-.15.07-.32.11-.65.16a13.1,13.1,0,0,1-2.65.05l-.65-.07-.33,0-.19,0a.46.46,0,0,1-.28-.21.49.49,0,0,1,0-.24.67.67,0,0,1,0-.1.48.48,0,0,1,.08-.16.39.39,0,0,1,.28-.15h.5l.66,0c.64,0,1.28,0,1.92,0a5.8,5.8,0,0,1,.59,0h.1c.22,0,.44,0,.65.08l.33.06.16,0c.07,0,.12.11.11.16S112.31,114.12,112.25,114.12Zm.35-2-.15.07-.32.11-.64.16a13.21,13.21,0,0,1-2.66.05l-.65-.07-.32,0-.2,0a.39.39,0,0,1-.27-.21.44.44,0,0,1-.06-.24.35.35,0,0,1,0-.1.33.33,0,0,1,.07-.16.41.41,0,0,1,.29-.15h.49l.66,0c.64,0,1.28,0,1.92,0a5.8,5.8,0,0,1,.59,0h.11c.21,0,.43,0,.64.08l.33.06.16,0a.14.14,0,0,1,.11.16C112.75,112,112.66,112.12,112.6,112.12Zm.65-2-.15.07-.32.11-.65.16a13.1,13.1,0,0,1-2.65.05l-.65-.07-.33,0-.19,0a.43.43,0,0,1-.28-.21.49.49,0,0,1,0-.24.67.67,0,0,1,0-.1.48.48,0,0,1,.08-.16.39.39,0,0,1,.28-.15h.5l.66,0c.64,0,1.28,0,1.92,0a5.8,5.8,0,0,1,.59,0h.1c.22,0,.44,0,.65.08l.33.06.16,0c.07,0,.12.11.11.16S113.31,110.12,113.25,110.12Zm.31-2-.15.07-.32.11-.65.16a13.1,13.1,0,0,1-2.65.05l-.65-.07-.33,0-.19,0a.43.43,0,0,1-.28-.21.49.49,0,0,1,0-.24.67.67,0,0,1,0-.1.46.46,0,0,1,.07-.16.41.41,0,0,1,.29-.15h.5l.65,0c.65,0,1.29,0,1.93,0a5.8,5.8,0,0,1,.59,0h.1c.22,0,.44,0,.65.08l.32.06.16,0c.07,0,.13.11.12.16A.17.17,0,0,1,113.56,108.12Zm.16-2-.16.07-.31.11-.65.16a13.1,13.1,0,0,1-2.65.05l-.65-.07-.33,0-.2,0a.43.43,0,0,1-.27-.21.32.32,0,0,1,0-.24.19.19,0,0,1,0-.1.46.46,0,0,1,.07-.16.41.41,0,0,1,.29-.15h.49l.66,0c.65,0,1.29,0,1.93,0a3.85,3.85,0,0,1,.59,0h.1c.22,0,.43,0,.65.08l.32.06.16,0c.07,0,.13.11.12.16A.17.17,0,0,1,113.72,106.12Zm.12-2-.16.06-.32.11-.64.16a13.12,13.12,0,0,1-2.65.05l-.66-.06-.32,0-.2,0a.41.41,0,0,1-.27-.21.44.44,0,0,1-.06-.24v0a.25.25,0,0,1,0-.08.26.26,0,0,1,.07-.15.37.37,0,0,1,.28-.16h.5l.66,0c.64,0,1.29,0,1.93,0a3.85,3.85,0,0,1,.59,0h.1c.21,0,.43,0,.65.08l.32.06.16,0c.07,0,.13.11.11.17S113.9,104.12,113.84,104.13Zm0-2-.16.06-.32.11c-.21.07-.43.11-.64.16a12.43,12.43,0,0,1-2.65.05l-.66-.06-.32,0-.2,0a.43.43,0,0,1-.27-.2.45.45,0,0,1-.06-.24v0a.28.28,0,0,1,0-.09.3.3,0,0,1,.07-.15.4.4,0,0,1,.28-.16h.5l.66,0,1.92,0c.2,0,.4,0,.6,0l.1,0h0c.21,0,.43,0,.65.07l.32.06.16,0c.07,0,.13.12.11.17S113.9,102.12,113.84,102.13Zm.06-2.06-.31.1c-.21.06-.43.1-.64.14a7.39,7.39,0,0,1-1.33.12l-1.31,0h-.65l-.33,0h-.25l-.17,0a.46.46,0,0,1-.27-.26.67.67,0,0,1,0-.18v0a.46.46,0,0,1,.13-.32.47.47,0,0,1,.3-.14l.33,0H110l1.32,0c.42,0,.88,0,1.32.07a6.85,6.85,0,0,1,1.27.28.1.1,0,0,1,.06.09h0C114,100,114,100.07,113.9,100.07Z"/><path class="cls-1" d="M113.94,100s0,0,0-.06S114,100,113.94,100Z"/><path class="cls-1" d="M98,130.13h0Z"/><polygon class="cls-1" points="113.93 99.82 113.93 99.82 113.93 99.82 113.93 99.82"/><path class="cls-1" d="M63.52,47.06h0Z"/><path class="cls-1" d="M61.71,21.48A16.37,16.37,0,0,0,45.36,5.21H34.82v0a16.23,16.23,0,0,0-14.46,9.86l1.17,1,.15.06A14.66,14.66,0,0,1,40.33,7.72a14.94,14.94,0,0,1,3.87,2.1l.08.06c.27.2.53.42.79.64l.12.11a14,14,0,0,1,1.94,2.13c.09.11.18.22.26.34l.4.6c.11.17.21.34.31.51l.31.56q.18.35.33.69c.07.15.15.3.21.45.16.39.3.77.43,1.17,0,.14.08.28.12.42s.16.58.23.88l.09.46c.06.31.1.62.14.93,0,.14,0,.28,0,.42a12.44,12.44,0,0,1,.07,1.37,22.21,22.21,0,0,1-1.86,9C46.1,35.38,20.61,79.45,20.35,79.9l-.7,1.22H39.09c.41-.56.82-1.1,1.26-1.63H32.47c4.23-7.33,25.26-43.77,27.24-48.26A23.45,23.45,0,0,0,61.71,21.48Zm-2.77-2.62a.33.33,0,0,1-.21.35,5.19,5.19,0,0,1-1.23.23h-.1l-.3,0c-.23,0-.46,0-.68,0l-.33,0c-.84,0-1.69-.1-2.53-.17a.32.32,0,0,1-.28-.32.33.33,0,0,1,.28-.36c.84-.07,1.69-.13,2.53-.18l.3,0a6.6,6.6,0,0,1,1,0l.11,0a5.19,5.19,0,0,1,1.23.23A.3.3,0,0,1,58.94,18.86Zm-.83-2.08a.35.35,0,0,1-.22.35,5.25,5.25,0,0,1-1.17.23h-.39c-.23,0-.46,0-.68,0l-.3,0c-.81-.05-1.62-.1-2.42-.18a.32.32,0,0,1-.29-.31.34.34,0,0,1,.29-.37c.8-.07,1.61-.13,2.43-.17l.28,0a5.16,5.16,0,0,1,1,0h.11a5.45,5.45,0,0,1,1.18.23A.32.32,0,0,1,58.11,16.78Zm-1-1.92a.34.34,0,0,1-.21.35,4.68,4.68,0,0,1-1.15.23h-.38q-.34,0-.66,0l-.29,0c-.79,0-1.58-.1-2.35-.17a.32.32,0,0,1-.29-.32.33.33,0,0,1,.29-.36c.77-.07,1.56-.13,2.36-.18l.27,0a5.83,5.83,0,0,1,.94,0l.11,0a4.68,4.68,0,0,1,1.15.23A.31.31,0,0,1,57.07,14.86Zm-2.55-2.52a5.75,5.75,0,0,1,1.26.22.33.33,0,0,1,.22.3.35.35,0,0,1-.22.36,5.75,5.75,0,0,1-1.26.22h-.1l-.31,0c-.24,0-.47,0-.7,0l-.34,0c-.87,0-1.74-.1-2.6-.17a.32.32,0,0,1-.29-.32.33.33,0,0,1,.29-.36c.86-.07,1.73-.13,2.6-.18l.31,0v.22h0v-.22a8.33,8.33,0,0,1,1,0Zm-7.2-3.11a.31.31,0,0,1-.27-.31.33.33,0,0,1,.27-.37c.62-.07,1.26-.13,1.89-.18l.22,0a3.76,3.76,0,0,1,.76,0h.09a3.24,3.24,0,0,1,.95.24.31.31,0,0,1,.18.28.34.34,0,0,1-.18.34,3.25,3.25,0,0,1-.94.24h-.08l-.25,0a4.9,4.9,0,0,1-.54,0l-.22,0C48.58,9.36,47.94,9.3,47.32,9.23Zm2,2a.31.31,0,0,1-.28-.31v-.06a.31.31,0,0,1,.28-.31c.74-.07,1.5-.13,2.25-.18l.26,0a4.56,4.56,0,0,1,.91,0h.1a4.4,4.4,0,0,1,1.11.23.32.32,0,0,1,.2.29.35.35,0,0,1-.2.35,4.4,4.4,0,0,1-1.11.23h-.09l-.28,0c-.21,0-.43,0-.64,0l-.26,0C50.82,11.36,50.06,11.3,49.32,11.23Zm-18.52,66a6,6,0,0,1-1.28.23h-.43c-.24,0-.49,0-.73,0l-.32,0c-.9-.05-1.8-.11-2.65-.18a.32.32,0,0,1-.29-.31.35.35,0,0,1,.3-.37c.89-.07,1.78-.13,2.64-.17l.31,0a6.17,6.17,0,0,1,1,0h.12l0,.22h0l0-.22a6,6,0,0,1,1.28.23.31.31,0,0,1,.22.3A.33.33,0,0,1,30.8,77.21Zm1-2a6,6,0,0,1-1.28.23h-.43c-.24,0-.49,0-.73,0l-.32,0c-.9-.05-1.8-.11-2.65-.18a.32.32,0,0,1-.29-.31.35.35,0,0,1,.3-.37c.89-.07,1.78-.13,2.64-.17l.31,0a6.08,6.08,0,0,1,1,0h.12l0,.22h0l0-.22a6,6,0,0,1,1.28.23.31.31,0,0,1,.22.3A.33.33,0,0,1,31.8,75.21Zm1-2a6.32,6.32,0,0,1-1.26.23H31.1c-.25,0-.49,0-.73,0l-.33,0c-.89,0-1.78-.1-2.65-.17a.33.33,0,0,1-.29-.32.35.35,0,0,1,.3-.37c.89-.07,1.78-.13,2.64-.17l.31,0a6.08,6.08,0,0,1,1,0h.12l0,.22h0l0-.22a6,6,0,0,1,1.28.23.31.31,0,0,1,.22.3A.33.33,0,0,1,32.79,73.21Zm1.18-2a6.45,6.45,0,0,1-1.26.23h-.44c-.24,0-.47,0-.71,0l-.34,0c-.89,0-1.78-.1-2.65-.17a.33.33,0,0,1-.29-.32.35.35,0,0,1,.29-.37c.9-.07,1.79-.13,2.65-.17l.31,0a6.14,6.14,0,0,1,1,0h.12a6.21,6.21,0,0,1,1.27.23.31.31,0,0,1,.22.3A.33.33,0,0,1,34,71.21Zm1.46-2a5.87,5.87,0,0,1-1.27.23h-.42c-.24,0-.48,0-.71,0l-.35,0c-.88,0-1.77-.1-2.65-.17a.33.33,0,0,1-.29-.32.35.35,0,0,1,.3-.37c.89-.07,1.79-.13,2.64-.17l.31,0a6.11,6.11,0,0,1,1,0h.12a6.3,6.3,0,0,1,1.28.23.31.31,0,0,1,.22.3A.33.33,0,0,1,35.43,69.21Zm1.36-2a5.76,5.76,0,0,1-1.27.23H35.1l-.72,0-.34,0c-.88,0-1.77-.1-2.65-.17a.33.33,0,0,1-.29-.32.35.35,0,0,1,.3-.37c.9-.07,1.79-.13,2.64-.17l.31,0a6.14,6.14,0,0,1,1,0h.12l0,.22h0l0-.22a6,6,0,0,1,1.28.23.3.3,0,0,1,.21.3A.32.32,0,0,1,36.79,67.21Zm1-2a5.76,5.76,0,0,1-1.27.23h-.43c-.25,0-.5,0-.74,0l-.31,0c-.88,0-1.77-.1-2.65-.17a.34.34,0,0,1,0-.68c.9-.08,1.79-.14,2.64-.18l.31,0a7.37,7.37,0,0,1,1,0h.12l0,.22h0l0-.22a6,6,0,0,1,1.28.23.3.3,0,0,1,.21.3A.32.32,0,0,1,37.79,65.21Zm1-2a5.76,5.76,0,0,1-1.27.23h-.43c-.25,0-.5,0-.74,0l-.31,0c-.88,0-1.77-.1-2.65-.17a.32.32,0,0,1-.29-.32.33.33,0,0,1,.3-.36c.9-.08,1.79-.14,2.64-.18l.31,0a6.08,6.08,0,0,1,1,0h.12l0,.22h0l0-.22a6,6,0,0,1,1.28.23.3.3,0,0,1,.21.3A.32.32,0,0,1,38.79,63.21Zm1-2a5.76,5.76,0,0,1-1.27.23h-.43c-.25,0-.5,0-.74,0l-.31,0c-.88,0-1.77-.1-2.65-.17a.32.32,0,0,1-.29-.32.33.33,0,0,1,.3-.36c.87-.08,1.76-.13,2.64-.18l.31,0a7.53,7.53,0,0,1,1,0h.12l0,.22h0l0-.22a6,6,0,0,1,1.28.23.3.3,0,0,1,.21.3A.32.32,0,0,1,39.79,61.21Zm1.16-2a5.87,5.87,0,0,1-1.27.23h-.43c-.25,0-.5,0-.74,0l-.31,0c-.89,0-1.78-.1-2.65-.17a.32.32,0,0,1-.29-.32.33.33,0,0,1,.29-.36c.87-.08,1.76-.13,2.65-.18l.31,0a6.17,6.17,0,0,1,1.05,0h.12l0,.22h0l0-.22a6.07,6.07,0,0,1,1.28.23.32.32,0,0,1,.21.3A.33.33,0,0,1,41,59.21Zm1.12-2a6.09,6.09,0,0,1-1.27.23h-.42c-.26,0-.51,0-.75,0l-.31,0c-.88,0-1.77-.1-2.65-.17a.32.32,0,0,1-.29-.32.33.33,0,0,1,.3-.36c.87-.08,1.76-.13,2.64-.18l.32,0a6.2,6.2,0,0,1,1,0h.11a6.3,6.3,0,0,1,1.28.23.3.3,0,0,1,.21.3A.32.32,0,0,1,42.07,57.21Zm1.52-2a5.87,5.87,0,0,1-1.27.23h-.43c-.25,0-.5,0-.74,0l-.31,0c-.89,0-1.78-.1-2.65-.17a.32.32,0,0,1-.29-.32.33.33,0,0,1,.29-.36c.87-.08,1.76-.13,2.65-.18l.39,0a6.23,6.23,0,0,1,1,0h.12l0,.22h0l0-.22a6.07,6.07,0,0,1,1.28.23.32.32,0,0,1,.21.3A.33.33,0,0,1,43.59,55.21Zm1.2-2a5.87,5.87,0,0,1-1.27.23h-.43c-.25,0-.5,0-.74,0l-.31,0c-.88,0-1.77-.1-2.65-.17a.32.32,0,0,1-.29-.32.33.33,0,0,1,.29-.36c.88-.08,1.77-.13,2.65-.18l.32,0a6.08,6.08,0,0,1,1,0h.14a6.25,6.25,0,0,1,1.26.23.3.3,0,0,1,.21.3A.32.32,0,0,1,44.79,53.21Zm1-2a5.87,5.87,0,0,1-1.27.23h-.43c-.25,0-.5,0-.74,0l-.31,0c-.88,0-1.77-.1-2.65-.17a.32.32,0,0,1-.29-.32.33.33,0,0,1,.29-.36c.88-.08,1.77-.13,2.65-.18l.32,0a6.08,6.08,0,0,1,1,0l.14,0a6.19,6.19,0,0,1,1.26.22.3.3,0,0,1,.21.3A.32.32,0,0,1,45.79,51.21Zm1-2a5.87,5.87,0,0,1-1.27.23h-.43c-.25,0-.5,0-.74,0l-.31,0c-.85,0-1.75-.1-2.65-.17a.32.32,0,0,1-.29-.32.33.33,0,0,1,.29-.36c.88-.08,1.77-.13,2.65-.18l.32,0a7.19,7.19,0,0,1,1,0l.13,0a5.94,5.94,0,0,1,1.27.22.3.3,0,0,1,.21.3A.32.32,0,0,1,46.79,49.21Zm1.07-2a5.87,5.87,0,0,1-1.27.23h-.43c-.24,0-.48,0-.71,0l-.34,0c-.85,0-1.74-.1-2.65-.17a.32.32,0,0,1-.29-.32.33.33,0,0,1,.29-.36c.88-.08,1.77-.13,2.65-.18l.33,0a5.88,5.88,0,0,1,1,0h.13l0,.22h0l0-.21a5.85,5.85,0,0,1,1.26.22.3.3,0,0,1,.21.3A.32.32,0,0,1,47.86,47.21Zm1.42-2a5.58,5.58,0,0,1-1.28.23h-.42c-.25,0-.49,0-.73,0l-.33,0c-.85,0-1.74-.1-2.64-.17a.32.32,0,0,1-.29-.32.32.32,0,0,1,.29-.36c.85-.07,1.74-.13,2.65-.18l.32,0a7.15,7.15,0,0,1,1,0H48l0,.22h0l0-.21a5.75,5.75,0,0,1,1.26.22.31.31,0,0,1,.22.3A.33.33,0,0,1,49.28,45.21Zm1.22-2a5.5,5.5,0,0,1-1.27.23H48.8c-.24,0-.48,0-.71,0l-.34,0c-.86,0-1.75-.1-2.65-.17a.32.32,0,0,1-.29-.32.33.33,0,0,1,.29-.36c.85-.07,1.75-.13,2.65-.18l.32,0a5.91,5.91,0,0,1,1,0h.12a6.3,6.3,0,0,1,1.28.23.3.3,0,0,1,.21.3A.32.32,0,0,1,50.5,43.21Zm1.11-2a6,6,0,0,1-1.27.23H49.9c-.24,0-.48,0-.71,0l-.34,0c-.85,0-1.74-.1-2.65-.17a.32.32,0,0,1-.29-.32.33.33,0,0,1,.3-.36l2.64-.18.31,0a7.41,7.41,0,0,1,1.05,0h.12l0,.22h0l0-.22a6.68,6.68,0,0,1,1.27.23.31.31,0,0,1,.22.3A.33.33,0,0,1,51.61,41.21Zm.88-2a5.58,5.58,0,0,1-1.28.23h-.42c-.25,0-.5,0-.73,0l-.33,0c-.87,0-1.76-.1-2.64-.17a.32.32,0,0,1-.29-.32.33.33,0,0,1,.29-.36c.88-.07,1.77-.13,2.65-.18l.32,0a7.19,7.19,0,0,1,1,0h.11a6.18,6.18,0,0,1,1.28.23.31.31,0,0,1,.22.3A.33.33,0,0,1,52.49,39.21Zm1.07-2a5.58,5.58,0,0,1-1.28.23h-.42c-.25,0-.5,0-.73,0l-.33,0c-.87,0-1.76-.1-2.64-.17a.32.32,0,0,1-.29-.32.33.33,0,0,1,.29-.36c.88-.07,1.77-.13,2.65-.18l.32,0a7.06,7.06,0,0,1,1,0l.11,0a5.55,5.55,0,0,1,1.28.22.31.31,0,0,1,.22.3A.33.33,0,0,1,53.56,37.21Zm.87-2a5.23,5.23,0,0,1-1.27.23h-.43c-.24,0-.49,0-.73,0l-.32,0c-.88,0-1.77-.1-2.65-.17a.32.32,0,0,1-.29-.32.33.33,0,0,1,.3-.36c.87-.07,1.76-.13,2.64-.18l.32,0a7.35,7.35,0,0,1,1,0l.12,0a5.92,5.92,0,0,1,1.28.22.3.3,0,0,1,.21.3A.32.32,0,0,1,54.43,35.21Zm1.42-2.3a.31.31,0,0,1-.22.3,5.58,5.58,0,0,1-1.28.23h-.42c-.25,0-.5,0-.73,0l-.33,0c-.87,0-1.76-.1-2.64-.17a.32.32,0,0,1-.29-.32.33.33,0,0,1,.29-.36c.88-.07,1.77-.13,2.65-.18l.32,0a7.19,7.19,0,0,1,1,0l.11,0a6.14,6.14,0,0,1,1.28.22.31.31,0,0,1,.22.3Zm1-2a.31.31,0,0,1-.22.3,5.4,5.4,0,0,1-1.28.23H54.9c-.24,0-.49,0-.73,0l-.32,0c-.87,0-1.76-.1-2.65-.17a.32.32,0,0,1-.29-.32.33.33,0,0,1,.3-.36c.88-.07,1.77-.13,2.64-.18l.31,0a7.37,7.37,0,0,1,1.05,0l.12,0a5.92,5.92,0,0,1,1.28.22.31.31,0,0,1,.22.3Zm1.16-2a.31.31,0,0,1-.22.3,5.64,5.64,0,0,1-1.31.23H56q-.39,0-.75,0l-.33,0c-.92,0-1.84-.1-2.71-.17a.32.32,0,0,1-.29-.32.33.33,0,0,1,.29-.36c.89-.07,1.81-.13,2.71-.18l.32,0a7.79,7.79,0,0,1,1.08,0l.11,0a6.19,6.19,0,0,1,1.31.22.33.33,0,0,1,.22.3Zm.34-2a.31.31,0,0,1-.22.3,5.58,5.58,0,0,1-1.28.23h-.42c-.25,0-.49,0-.73,0l-.33,0c-.9,0-1.79-.1-2.64-.17a.32.32,0,0,1-.29-.32.33.33,0,0,1,.29-.36l2.65-.18.31,0a9.14,9.14,0,0,1,1,0l.11,0a6.14,6.14,0,0,1,1.28.22.31.31,0,0,1,.22.3Zm.68-2a.33.33,0,0,1-.22.31,6,6,0,0,1-1.27.22h-.43c-.25,0-.49,0-.73,0l-.32,0c-.89,0-1.78-.1-2.65-.17a.32.32,0,0,1-.29-.32.33.33,0,0,1,.29-.36L56,24.37l.37,0a6.47,6.47,0,0,1,1,0l.12,0a6.25,6.25,0,0,1,1.28.22.32.32,0,0,1,.21.3Zm0-2a.33.33,0,0,1-.22.31,6,6,0,0,1-1.27.22h-.43c-.25,0-.49,0-.73,0l-.32,0c-.89,0-1.78-.1-2.65-.17a.32.32,0,0,1-.29-.32.33.33,0,0,1,.29-.36L56,22.37l.31,0a7.41,7.41,0,0,1,1,0l.12,0a6.25,6.25,0,0,1,1.28.22.32.32,0,0,1,.21.3Zm-.11-1.7a5.4,5.4,0,0,1-1.28.23h-.41q-.36,0-.72,0l-.31,0c-.88,0-1.76-.1-2.62-.17a.31.31,0,0,1-.28-.32.32.32,0,0,1,.29-.36l2.61-.18.3,0a6,6,0,0,1,1,0h0l.11,0a5.85,5.85,0,0,1,1.26.22.35.35,0,0,1,0,.65Z"/><path class="cls-1" d="M69.28,136l-2.91,1.67a3.88,3.88,0,0,1-3,.46,5.16,5.16,0,0,1-1.45-.68l-1.44-.84L57.56,135l-11.5-6.7-23-13.4-11.51-6.7L8.65,106.5l-1.43-.84a4,4,0,0,1-1.2-.92A3.76,3.76,0,0,1,5.14,102l0-3.33L5.3,45.36V38.7a4.72,4.72,0,0,1,.15-1.46A3.6,3.6,0,0,1,6.13,36a3.73,3.73,0,0,1,1.13-.88L8.7,34.3l11.55-6.63,23.1-13.25.86-.49-.67-.66a15.06,15.06,0,0,0-1.14-1.12L42,11.82l-.44.26L18.59,25.22,7.11,31.8l-1.43.82a6.59,6.59,0,0,0-1.51,1.14,6.36,6.36,0,0,0-1.73,3.38,5.2,5.2,0,0,0-.09,1v63.66a8.6,8.6,0,0,0,.13,1.83A6.48,6.48,0,0,0,5.77,108l1.44.82,11.48,6.56,23,13.1L53.17,135l5.76,3.26,1.44.81c.48.26.93.56,1.5.81a6,6,0,0,0,3.53.39,5.83,5.83,0,0,0,1.68-.61l1.44-.84,2.85-1.69,5.68-3.37L88.42,127h0c.72-.63,1.41-1.29,2.09-2,.34-.34.67-.69,1-1l.49-.53.24-.27a1.59,1.59,0,0,0,.23-.39Z"/><path class="cls-1" d="M128,102.65l-.08-10-.28-19.92-.28-19.92-.08-10V40.41a19.3,19.3,0,0,0-.1-2.51,5.76,5.76,0,0,0-2.81-4l-17-9.81-17-9.91L73.41,4.2,69.18,1.71C68.45,1.31,67.82.86,67,.49A6,6,0,0,0,64.43,0,6,6,0,0,0,61.9.65L59.74,1.87,55.47,4.29l-.65.37.63.45L56.73,6l.27.19.27-.16,3.24-1.85h0l2-1.16a3.89,3.89,0,0,1,2-.66,3.59,3.59,0,0,1,1.95.49l2,1.18,8.09,4.71,16.19,9.42L109,27.62l8.1,4.71,4,2.36,2,1.17a3.4,3.4,0,0,1,1.3,1.36,3.16,3.16,0,0,1,.32.89,4.44,4.44,0,0,1,.07,1l0,2.34,0,4.68,0,9.37-.09,18.73,0,18.73V104.6a3.11,3.11,0,0,1-.61,1.65,2.89,2.89,0,0,1-.62.64,4.18,4.18,0,0,1-.38.25l-.51.29-2,1.18-.41.23-.08.49-.26,1.81-.31,2,1.76-1,1.55-.9h0l2.16-1.27a6.73,6.73,0,0,0,2.06-2,6.5,6.5,0,0,0,1-2.7A23.31,23.31,0,0,0,128,102.65Z"/><polygon class="cls-2" points="55.66 80.65 66.87 100.08 72.47 90.37 55.66 80.65"/><polygon class="cls-3" points="73.96 91.23 68.36 100.95 90.78 100.95 73.96 91.23"/><polygon class="cls-4" points="73.96 112.39 68.36 102.67 90.78 102.67 73.96 112.39"/><polygon class="cls-5" points="54.4 81.92 54.4 121.7 65.87 101.81 54.4 81.92"/><polygon class="cls-6" points="55.66 123 66.87 103.57 72.47 113.29 55.66 123"/><path class="cls-1" d="M35.53,88.37l0,0,.05-.15-.17-.06-.08-.19-.05.14-.64-.25,0,.12c-.15.41-.31.83-.48,1.24-.3.77-.61,1.57-.87,2.37-.1.36-.21.71-.32,1.06a26.28,26.28,0,0,0-.7,2.64,39.26,39.26,0,0,0-1.06,7.62,38,38,0,0,0,.46,7.69A29.63,29.63,0,0,0,33.75,118l.12.28,1.2-.59L35,117.4a28.81,28.81,0,0,1-2-7.12,37.38,37.38,0,0,1-.46-7.41,38.22,38.22,0,0,1,.91-7.39A23.94,23.94,0,0,1,34,92.92l.3-1c.23-.77.5-1.54.77-2.29.13-.36.26-.72.38-1.08l.12,0Z"/></svg>